<svg width="200" height="168" viewBox="0 0 200 168" fill="none" xmlns="http://www.w3.org/2000/svg">
<g clip-path="url(#clip0_318_493)">
<path d="M48.343 107.596C47.9621 107.86 47.0287 107.077 46.2859 105.859C44.324 102.697 46.0192 100.998 56.3621 95.7507C70.1335 88.757 75.5145 87.7754 100.076 87.7754C124.829 87.7754 129.505 88.5965 142.876 95.2693C154.419 101.017 155.991 102.631 153.619 106.255C152.676 107.69 151.695 108.483 151.438 108.001C151.181 107.52 150.857 108.294 150.724 109.719C150.2 115.09 143.857 113.41 143.61 107.832C143.4 103.348 143.4 103.348 143.105 107.832C142.81 112.315 142.81 112.315 96.1716 112.315C49.524 112.315 49.524 112.315 50.4954 110.059C51.9907 106.595 51.1906 105.68 48.343 107.596ZM52.3811 111.371H53.3335V101.933H52.3811V111.371ZM54.2859 111.371H55.2383V101.933H54.2859V111.371ZM59.0478 110.427H60.0002V100.989H59.0478V110.427ZM61.9049 110.427H62.8573V100.989H61.9049V110.427ZM64.7621 110.427H65.7145V100.045H64.7621V110.427ZM80.0002 110.427H80.9526V98.1574H80.0002V110.427ZM119.048 110.427H120V98.1574H119.048V110.427ZM140 110.427H140.953V101.933H140V110.427ZM144.762 110.427H145.714V102.877H144.762V110.427ZM67.6192 109.483H68.5716V100.045H67.6192V109.483ZM71.4287 109.483H72.3811V99.1012H71.4287V109.483ZM75.6097 99.1012C75.4097 99.1012 75.2383 101.442 75.2383 104.292C75.2383 107.312 75.5526 108.926 75.9811 108.143C76.7049 106.859 76.3811 99.1012 75.6097 99.1012ZM114.286 109.483H115.238V98.1574H114.286V109.483ZM123.81 109.483H124.762V99.1012H123.81V109.483ZM127.619 109.483H128.572V99.1012H127.619V109.483ZM131.429 109.483H132.381V100.045H131.429V109.483ZM86.2764 108.539C86.5906 108.539 86.6954 106.312 86.5145 103.584C86.1335 97.8082 86.2097 98.1574 85.4002 98.1574C85.0478 98.1574 84.7621 100.498 84.7621 103.348C84.7621 106.208 84.9811 108.539 85.2383 108.539H86.2764ZM91.1145 96.2698C90.7621 96.2698 90.4764 99.0352 90.4764 102.405C90.4764 105.783 90.7335 108.379 91.0573 108.19C92.0859 107.558 92.1335 96.2698 91.1145 96.2698ZM97.6192 108.539C97.8859 108.539 98.0954 106.18 98.0954 103.292C98.0954 100.036 97.7335 98.2707 97.143 98.6293C96.6192 98.9502 96.1907 101.31 96.1907 103.877C96.1907 106.444 96.4097 108.539 96.6668 108.539H97.6192ZM103.81 102.405C103.81 99.0352 103.486 96.2698 103.095 96.2698C102.705 96.2698 102.486 99.0257 102.619 102.405C102.753 105.774 103.076 108.539 103.334 108.539C103.6 108.539 103.81 105.783 103.81 102.405ZM110.381 96.5057C110.438 96.3736 109.943 96.2698 109.286 96.2698C108.429 96.2698 108.162 97.997 108.334 102.405L108.572 108.539C109.905 99.3938 110.334 96.6379 110.381 96.5057Z" fill="#E84C6D"/>
<path d="M85.6665 77.0908C85.2951 72.485 85.8284 70.5879 88.0951 68.3416C91.1237 65.3402 91.2761 59.9699 88.4665 55.2508C87.3237 53.3254 86.6761 51.0319 86.9713 49.9182C87.3046 48.6441 86.6475 47.0301 85.038 45.2558C82.5999 42.5375 82.5999 42.5375 86.038 39.1304C88.7142 36.4782 89.9427 35.8647 91.5808 36.3838C93.1999 36.8935 93.8475 36.582 94.4284 35.0436C95.6284 31.8252 104.447 32.0989 105.714 35.3928C106.705 37.9695 107.628 38.3092 109.238 36.7142C110.009 35.9497 111.086 36.2611 113.228 37.8279C117.447 40.9142 117.943 43.302 114.895 45.907C113.428 47.1528 112.619 48.6063 112.943 49.4274C113.238 50.2014 112.59 52.8252 111.505 55.2602C109.162 60.4984 108.876 66.5578 110.924 67.3411C115.838 69.2099 115.514 77.7609 110.4 81.0737C108.171 82.5178 105.819 83.0558 101.762 83.0558C98.6951 83.0558 95.0094 82.7726 93.5713 82.4234C88.9142 81.3002 85.838 79.2238 85.6665 77.0908ZM102.486 72.1735C100.314 70.5784 97.1332 71.8904 97.1618 74.3632C97.1713 75.2504 97.5999 76.5056 98.1142 77.1569C98.6284 77.8081 99.7999 78.2328 100.714 78.1007C103.457 77.7137 104.647 73.7497 102.486 72.1735ZM93.3332 75.1937C93.3332 74.8445 92.457 74.5614 91.3903 74.5614C90.3332 74.5614 89.6856 74.9861 89.9618 75.5052C90.2475 76.0243 90.9808 76.449 91.5903 76.449C92.8475 76.449 93.3332 76.0998 93.3332 75.1937ZM93.5142 71.9753C92.8284 71.7299 92.0761 71.7205 91.8475 71.947C91.6189 72.1735 91.4284 72.6454 91.4284 72.9852C91.4284 73.3344 91.9332 73.6175 92.5427 73.6175C94.238 73.6175 94.9237 72.4755 93.5142 71.9753ZM101.362 63.3488C101.505 60.5079 101.238 58.8184 100.695 59.1488C100.2 59.4508 99.5142 59.3281 99.1808 58.8751C97.2665 56.2607 95.7142 57.7236 96.038 61.8292C96.2284 64.1605 96.7522 65.831 97.2094 65.5573C97.657 65.2742 97.7618 63.7074 97.4284 62.0746C96.9046 59.4602 97.0094 59.262 98.257 60.4135C99.1713 61.2629 99.5713 63.009 99.3618 65.3214C99.1903 67.2845 99.3332 68.8984 99.6856 68.8984C100.876 68.8984 101.114 68.1056 101.362 63.3488ZM107.057 58.5919C106.838 58.3749 106.4 58.4692 106.067 58.7901C105.743 59.1205 105.743 61.1025 106.067 63.1978C106.4 65.2931 106.981 66.822 107.362 66.5861C108.057 66.1614 107.79 59.347 107.057 58.5919ZM94.2665 60.0926C94.2951 55.2319 92.1713 55.9776 91.8951 60.9232C91.7808 62.9713 91.6284 64.9722 91.5618 65.3591C91.4856 65.7461 91.7237 66.067 92.0856 66.067C93.3713 66.067 94.257 63.6508 94.2665 60.0926ZM103.495 57.5726C103.143 57.5726 102.857 59.2715 102.857 61.3479C102.857 65.1232 102.857 65.1232 103.8 61.6593C104.743 58.205 104.695 57.5726 103.495 57.5726ZM110.162 37.7524C109.809 37.7524 109.524 38.3942 109.524 39.1681C109.524 40.1402 109.895 40.3101 110.705 39.7061C111.819 38.8661 111.514 37.7524 110.162 37.7524ZM100.419 34.9209C100.19 34.9209 99.9999 35.7704 99.9999 36.8086C99.9999 38.1393 100.276 38.3847 100.933 37.6297C101.781 36.667 101.447 34.9209 100.419 34.9209Z" fill="#E84C6D"/>
<path d="M88.7712 152.295C92.3331 149.954 95.2378 147.859 95.2378 147.632C95.2378 146.283 91.4474 147.84 84.8474 151.898C72.4283 159.553 64.695 160.317 55.6855 154.767C50.8664 151.804 50.3426 150.284 54.695 151.927C59.7331 153.824 65.9236 153.031 75.8664 149.199C89.7712 143.847 111.324 143.583 124.085 148.595C134.79 152.804 138.409 153.314 144.714 151.502C149.866 150.011 149.866 150.011 148.143 151.898C141.39 159.298 129.028 159.59 117.438 152.625C106.724 146.179 103.419 146.679 113.171 153.267C121.885 159.137 122.714 160.128 120.409 161.799C118.924 162.875 117.895 162.327 111.981 157.25C100.381 147.311 98.0855 147.472 86.7045 158.986C84.3712 161.346 82.1236 163.281 81.7045 163.281C81.295 163.281 80.4759 162.62 79.895 161.818C78.495 159.864 80.4378 157.778 88.7712 152.295Z" fill="#E84C6D"/>
<path d="M147.609 126.963C149.628 120.951 155.838 109.766 156.685 110.606C157.39 111.295 153.857 127.472 152.314 130.653C150.495 134.381 169.114 124.443 172.543 119.846C175.4 116.014 175.885 117.732 173.352 122.668C170.771 127.671 164.552 133.626 159.076 136.335C156.704 137.505 151.438 139.166 147.381 140.016C140 141.573 140 141.573 142.809 137.222C144.362 134.834 146.523 130.209 147.609 126.963Z" fill="#E84C6D"/>
<path d="M25.3524 120.337C24.6857 117.506 24.6857 117.506 27.2857 120.715C29.2857 123.178 47.1619 134.023 49.2381 134.023C49.419 134.023 48.8952 133.003 48.0666 131.758C47.2476 130.512 45.7428 125.311 44.7333 120.196C42.9047 110.899 42.9047 110.899 45.6952 114.118C47.2286 115.883 50.2381 121.696 52.3714 127.029C54.5047 132.362 57.0857 137.713 58.0952 138.912C59.1047 140.12 59.9524 141.205 59.9714 141.337C59.9905 141.469 59.1428 141.573 58.0952 141.573C57.0476 141.573 53.2952 140.903 49.7619 140.082C38.7428 137.524 27.1809 128.18 25.3524 120.337Z" fill="#E84C6D"/>
<path d="M37.514 138.053C37.7045 137.873 39.4664 138.666 41.4283 139.808C44.0664 141.356 47.914 142.215 56.0759 143.074C65.7711 144.103 66.8188 144.084 64.5616 142.904C62.0283 141.573 53.6092 128.718 54.6188 127.708C54.8949 127.435 58.8473 130.502 63.4092 134.532C68.6473 139.166 73.4759 142.536 76.5521 143.725C81.4283 145.594 81.4283 145.594 71.9045 147.812C66.6664 149.029 60.5616 150.039 58.333 150.049C56.1045 150.058 52.2473 149.199 49.7616 148.142C45.7616 146.443 36.6378 138.93 37.514 138.053Z" fill="#E84C6D"/>
<path d="M120.714 145.867C118.848 145.744 120.372 144.593 123.752 143.593C126.229 142.856 130.495 139.751 136.267 134.475C141.086 130.068 145.372 126.472 145.781 126.472C147.314 126.472 138.886 140.393 136.629 141.592C135.343 142.271 134.457 142.998 134.667 143.206C135.667 144.197 154.381 141.318 157.657 139.666C165.629 135.636 160.733 142.092 152.524 146.433C148.238 148.699 146.305 149.123 140.381 149.123C136.505 149.123 130.657 148.406 127.381 147.519C124.105 146.641 121.105 145.896 120.714 145.867Z" fill="#E84C6D"/>
<path d="M19.1334 99.1011C19.181 96.9114 19.3239 96.9869 21.2572 100.215C22.781 102.773 34.8477 117.411 35.8382 117.921C35.9048 117.949 35.7334 116.052 35.4667 113.702C35.2001 111.352 35.5429 106.151 36.2286 102.14C37.8191 92.8813 39.162 95.6467 40.9048 111.777C41.5239 117.449 42.6477 123.574 43.4096 125.396C44.181 127.208 44.581 128.831 44.3048 129.001C44.0382 129.162 40.3429 126.925 36.0953 124.008C24.381 115.967 18.9715 108.03 19.1334 99.1011Z" fill="#E84C6D"/>
<path d="M159.124 111.664C161.276 89.7293 164.219 88.8138 164.267 110.059L164.286 116.76C174.305 105.642 177.943 100.753 178.848 98.7145C180.457 95.0525 180.476 95.0431 180.79 97.6669C181.771 105.954 175.276 115.656 163.448 123.565C159.505 126.199 156.048 128.36 155.762 128.36C155.476 128.36 155.886 126.897 156.676 125.113C157.467 123.32 158.571 117.27 159.124 111.664Z" fill="#E84C6D"/>
<path d="M20.152 76.4397C21.2472 73.1458 21.2472 73.1458 21.6091 75.9773C22.4758 82.82 28.9996 97.553 29.6758 94.2024C30.0282 92.4847 31.952 87.8977 33.9615 83.9997C38.752 74.7314 39.552 78.9692 35.7044 93.1831C34.3329 98.2609 33.1996 104.207 33.1901 106.415C33.1806 108.624 32.9996 110.427 32.7806 110.427H31.9044C31.6377 110.427 29.1044 107.01 26.2567 102.838C19.5044 92.9188 17.5139 84.3301 20.152 76.4397Z" fill="#E84C6D"/>
<path d="M164.79 94.4389C160.267 77.4973 160.771 73.7315 166.2 84.0003C168.533 88.4173 170.6 92.6645 170.8 93.4385C171.314 95.4205 171.59 94.9297 175.038 85.8407C176.714 81.3953 178.105 76.2987 178.114 74.5149C178.133 69.8241 179.762 72.7782 180.533 78.9131C181.705 88.2003 177.533 98.6483 168.619 108.776C168.276 109.163 167.705 109.483 167.333 109.483C166.971 109.483 166.895 108.53 167.171 107.36C167.448 106.189 166.371 100.376 164.79 94.4389Z" fill="#E84C6D"/>
<path d="M26.2664 56.6478C29.3617 51.0227 29.8188 50.7867 28.9712 55.2793C28.6188 57.1292 28.6378 62.4712 29.0093 67.1525C29.6759 75.6658 29.6759 75.6658 32.0188 72.5134C35.095 68.3795 42.3045 61.4802 42.6569 62.3296C43.2283 63.717 39.0093 72.4379 34.4474 79.2806C31.8569 83.1786 29.5807 87.1049 29.3902 88.0204C29.1998 88.9265 28.7236 89.6721 28.3331 89.6721C27.9426 89.6627 26.5045 85.5193 25.1521 80.4604C22.1807 69.3894 22.4569 63.5943 26.2664 56.6478Z" fill="#E84C6D"/>
<path d="M164.952 77.242C160.19 70.4654 156.19 62.8865 156.19 60.6497C156.19 59.3567 169.524 73.1175 169.657 74.5333C169.724 75.3261 170.171 71.9472 170.638 67.011C171.229 60.7913 171.152 56.9027 170.409 54.3072C168.905 49.0973 171.429 51.1926 174.095 57.3652C177.476 65.1989 177.6 69.4366 174.724 78.8654C173.305 83.509 172.095 87.6241 172.029 88.011C171.962 88.398 171.581 88.7189 171.19 88.7189C170.8 88.7189 170.476 87.9072 170.476 86.9162C170.476 85.9252 167.99 81.5742 164.952 77.242Z" fill="#E84C6D"/>
<path d="M149.523 47.1065C149.523 46.6063 150.914 47.4746 152.619 49.0508C156.314 52.458 164.2 59.0081 164.504 58.9326C165.266 58.7344 160.542 45.0113 159.095 43.2369C156.638 40.2355 157.371 39.9901 161.409 42.4629C166.876 45.8041 168.952 50.8441 169.028 60.8769C169.057 65.5488 169.038 69.4751 168.99 69.6072C168.933 69.7393 168.6 69.8432 168.257 69.8432C167.904 69.8432 163.942 65.9641 159.457 61.2261C152.095 53.4584 149.523 49.8059 149.523 47.1065Z" fill="#E84C6D"/>
<path d="M36.6289 44.5205C40.5528 41.1038 42.0385 41.1133 39.5718 44.5393C38.2861 46.3326 35.3051 56.12 35.248 58.7438C35.2289 59.8387 48.5623 48.9658 48.6861 47.7766C48.7432 47.2009 48.9908 47.4746 49.2289 48.3996C49.9528 51.1366 45.2385 57.9227 39.6385 62.1982C36.7718 64.3973 33.7432 67.2288 32.9051 68.4935C32.067 69.7488 31.1813 70.787 30.9337 70.787C30.6766 70.787 30.4766 66.9551 30.4766 62.2643C30.4766 52.2598 31.6575 48.8431 36.6289 44.5205Z" fill="#E84C6D"/>
<path d="M160.952 53.7982L151.428 46.2477L141.904 33.0342L156.19 40.5847L160.952 53.7982Z" fill="#E84C6D"/>
<path d="M38.0957 54.7416L42.8576 41.5281L57.1433 33.9775L47.6195 47.191L38.0957 54.7416Z" fill="#E84C6D"/>
<path d="M101.905 73.6465C103.143 74.4677 103.086 74.7886 101.486 75.9966C100.467 76.7611 99.505 77.3935 99.3431 77.3935C99.1812 77.3935 99.0479 76.3364 99.0479 75.034C99.0479 72.4856 99.6859 72.1742 101.905 73.6465Z" fill="#E84C6D"/>
</g>
<defs>
<clipPath id="clip0_318_493">
<rect width="200" height="168" fill="white"/>
</clipPath>
</defs>
</svg>
