<svg width="198" height="173" viewBox="0 0 198 173" fill="none" xmlns="http://www.w3.org/2000/svg">
<g clip-path="url(#clip0_318_596)">
<path d="M72.3456 148.421L66.634 146.53L54.259 138.967L49.4994 135.186L39.0282 121.951L34.2686 111.552L30.4609 95.4807V90.7539L33.3167 72.7922L34.2686 69.0107C36.6294 62.9888 40.6275 57.8366 44.7398 52.9397L47.5956 49.1583C52.0601 44.63 57.1529 40.7352 62.8263 37.814L66.634 35.9233C79.5326 30.4024 94.0018 29.1073 107.567 33.0872L110.422 34.0326C118.143 36.7174 125.311 40.8297 131.365 46.3222L132.317 47.2676L143.74 61.4479L144.692 64.284C147.633 70.2303 149.566 76.6209 150.403 83.1911L151.355 88.8632L149.451 106.825L147.547 113.442L138.028 128.568L133.269 134.24C128.519 138.854 123.074 142.711 117.086 145.585L112.326 147.475L98.0475 151.257H90.4321L72.3456 148.421ZM84.7206 143.855C83.3403 143.391 81.8457 144.044 82.3693 144.876C82.6168 145.263 83.464 145.585 84.2446 145.585C85.0347 145.585 85.6725 145.263 85.6725 144.876C85.6725 144.488 85.2441 144.025 84.7206 143.855ZM92.3931 143.836C91.8409 144.015 91.384 144.488 91.384 144.876C91.384 145.263 91.8885 145.585 92.4978 145.585C93.107 145.585 93.8209 145.367 94.078 145.112C94.8014 144.403 93.5449 143.448 92.3931 143.836ZM99.9513 142.748V144.639H103.759V142.748H99.9513ZM74.0114 141.482C73.564 141.746 73.6497 142.361 74.2018 142.834C74.7539 143.306 75.6297 143.694 76.1532 143.694C76.6768 143.694 77.1052 143.401 77.1052 143.042C77.1052 142.03 74.9157 140.924 74.0114 141.482ZM111.279 140.451C110.727 139.903 108.519 141.217 108.519 142.096C108.519 142.455 108.823 142.748 109.185 142.748C109.556 142.748 110.27 142.333 110.784 141.822C111.298 141.312 111.527 140.697 111.279 140.451ZM93.2879 139.912L96.7814 138.646C100.332 137.35 101.95 133.144 99.5134 131.574C97.9618 130.582 93.8876 130.657 92.5358 131.697C91.6981 132.34 90.9461 132.293 90.2036 131.555C88.8519 130.213 84.0257 130.109 82.8167 132.35L82.5787 134.212C82.4455 135.242 82.6644 136.301 83.7686 137.076L89.4802 139.912L90.8605 140.886C91.8029 141.557 92.4026 141.557 93.2879 139.912ZM66.0248 138.315C65.6631 138.665 65.8725 139.383 66.4817 139.903C67.0909 140.432 67.9001 140.659 68.2904 140.423C68.6806 140.187 68.4712 139.468 67.8334 138.835C67.1861 138.192 66.377 137.965 66.0248 138.315ZM116.134 137.549V138.494C116.134 138.75 116.439 138.967 116.8 138.967C117.172 138.967 117.895 138.542 118.419 138.022C119.056 137.388 118.828 137.076 117.752 137.076C116.867 137.076 116.134 137.294 116.134 137.549ZM59.9896 133.881C58.8473 132.747 57.6955 133.673 58.4665 135.101C58.7711 135.668 59.447 136.131 59.9706 136.131C60.4941 136.131 60.9225 135.838 60.9225 135.469C60.9225 135.11 60.5036 134.392 59.9896 133.881ZM67.5859 132.35L69.7278 129.58C70.9081 128.058 71.5459 126.573 70.4417 125.732L69.2804 124.73C68.4331 124.002 67.7668 124.134 65.6821 126.677L64.5969 129.145C64.0067 130.497 63.7973 131.773 64.7302 132.35L66.1581 133.437C67.2337 134.259 67.5859 134.259 67.5859 132.35ZM126.367 131.801C125.625 131.064 123.749 132.17 123.749 133.352C123.749 133.843 124.054 134.24 124.416 134.24C124.787 134.24 125.501 133.824 126.015 133.314C126.529 132.803 126.691 132.123 126.367 131.801ZM118.038 128.568L117.086 127.623L116.296 125.496C115.858 124.323 115.277 123.586 115.001 123.841C114.716 124.097 114.678 124.843 114.916 125.496C115.154 126.148 114.659 126.677 112.326 126.677L111.898 125.997C111.669 125.619 111.136 125.694 110.708 126.148C110.289 126.611 110.48 127.131 112.326 127.623L116.134 131.404L116.658 132.378C117.533 134.004 119.256 132.227 118.038 128.568ZM53.5546 128.436C52.1077 126.999 51.2033 127.689 52.4218 129.287C52.9073 129.929 53.6212 130.26 54.0115 130.024C54.4018 129.788 54.1924 129.069 53.5546 128.436ZM117.619 122.055C117.295 122.376 118.114 124.182 119.437 126.072C120.76 127.963 122.274 129.513 122.797 129.513C123.321 129.513 123.749 129.249 123.749 128.927C123.749 127.736 118.181 121.497 117.619 122.055ZM61.8744 127.623L63.7782 125.732L64.9681 123.681C65.9772 121.932 65.9106 121.516 62.8263 120.06L59.0186 122.896L58.0667 123.841L57.8287 125.968C57.6383 127.67 58.0191 128.048 61.8744 127.623ZM133.031 125.184C132.288 124.446 130.413 125.552 130.413 126.734C130.413 127.226 130.717 127.623 131.079 127.623C131.45 127.623 132.164 127.207 132.678 126.696C133.192 126.186 133.354 125.505 133.031 125.184ZM80.9129 124.002C79.5326 123.539 78.0381 124.191 78.5616 125.023C78.8091 125.411 79.6563 125.732 80.4369 125.732C81.227 125.732 81.8648 125.411 81.8648 125.023C81.8648 124.635 81.4364 124.172 80.9129 124.002ZM128.509 123.841V121.005L126.605 119.115L124.701 118.169L123.749 116.988C122.988 116.042 122.607 116.042 120.894 118.169L120.656 119.824C120.522 120.731 120.951 121.799 122.797 122.896L124.197 124.55C125.33 125.902 125.853 125.987 128.509 123.841ZM46.1391 120.249C45.7774 120.608 45.9582 121.563 46.5389 122.367C47.1196 123.18 47.8621 123.681 48.1857 123.482C48.5094 123.284 48.319 122.329 47.7764 121.365C47.2338 120.391 46.4913 119.89 46.1391 120.249ZM72.8977 120.807C70.9177 119.701 70.2418 120.126 71.4603 121.724C71.9457 122.367 72.8406 122.631 73.4498 122.31C74.2018 121.913 74.0209 121.431 72.8977 120.807ZM57.1148 120.06L59.2566 119.275C61.4175 118.481 61.2176 116.912 59.0186 117.422C58.3618 117.574 57.6669 116.742 57.1148 113.442L56.3913 112.261C56.001 111.608 55.1443 111.4 53.3071 112.497H52.3552L53.3071 109.661L54.2876 109.141C54.8206 108.857 54.973 108.158 54.6207 107.591C54.1733 106.863 53.7545 106.882 52.3552 108.716L48.5475 110.606L47.8335 111.089C47.4432 111.363 47.2243 112.213 47.5956 114.388L48.4713 115.532C49.1472 116.439 49.6612 116.439 52.3552 114.388L54.259 113.442L56.1629 114.388V115.333L54.259 117.224L52.6979 118.491C50.1372 120.561 51.6317 122.688 57.1148 120.06ZM114.963 117.63C114.078 116.751 111.27 119.048 111.869 120.164C112.117 120.627 113.069 120.4 113.983 119.663C114.897 118.916 115.334 118.009 114.963 117.63ZM137.647 118.424C136.924 117.697 136.124 118.472 136.124 119.899C136.124 120.514 136.315 121.005 136.543 121.005C136.772 121.005 137.248 120.552 137.59 119.994C137.933 119.445 137.962 118.736 137.647 118.424ZM92.3359 62.3933H90.4321C78.7615 62.3933 67.8049 69.1715 63.7782 80.355C59.3804 92.5879 62.8073 106.957 74.2494 114.388H75.2013C91.2507 124.191 113.773 118.264 119.942 99.2621C126.129 80.2227 110.28 63.6222 92.3359 62.3933ZM132.317 116.279L133.507 115.985C135.125 115.588 132.774 112.696 128.509 111.552L127.576 110.37C126.891 109.5 126.643 109.756 126.605 113.442L125.415 113.925C124.616 114.246 124.939 114.87 128.509 117.224L128.947 117.933C129.813 119.351 132.317 119.228 132.317 116.279ZM65.2632 114.539C64.8825 114.889 64.8254 115.636 65.13 116.193C65.4346 116.761 65.9486 117.063 66.2723 116.865C66.5959 116.657 66.6626 115.919 66.4056 115.21C66.1485 114.492 65.6345 114.199 65.2632 114.539ZM42.9406 113.168C42.1696 112.403 41.884 112.677 41.884 114.199C41.884 115.343 42.2077 116.279 42.598 116.279C42.9882 116.279 43.4642 115.815 43.6546 115.248C43.845 114.681 43.5213 113.745 42.9406 113.168ZM120.798 112.091C120.246 111.542 118.038 112.856 118.038 113.736C118.038 114.095 118.342 114.388 118.704 114.388C119.075 114.388 119.789 113.972 120.303 113.461C120.817 112.951 121.046 112.336 120.798 112.091ZM142.55 111.003C141.807 110.266 139.932 111.372 139.932 112.554C139.932 113.045 140.237 113.442 140.598 113.442C140.97 113.442 141.684 113.026 142.198 112.516C142.712 112.006 142.874 111.325 142.55 111.003ZM132.317 108.716L130.413 107.714C129.128 107.033 128.509 107.023 128.509 107.676C128.509 108.215 128.937 108.876 130.413 109.661L133.269 110.606L134.344 111.533C134.935 112.043 135.886 112.176 136.448 111.826C137.057 111.448 136.429 110.682 132.317 108.716ZM61.0748 108.073C59.8944 105.984 57.981 106.825 59.0948 108.952C59.5803 109.86 60.4084 110.37 60.9415 110.086C61.5412 109.774 61.5983 108.999 61.0748 108.073ZM53.3071 104.934L52.536 103.28C52.041 102.193 50.8892 101.711 46.6436 102.098L44.9873 102.949C43.8069 103.554 43.5404 104.367 44.7398 107.77L48.6141 107.061C50.7464 106.674 52.6788 106.031 53.3071 104.934ZM125.358 103.838C124.844 102.561 122.845 104.348 122.817 106.116C122.807 106.504 123.102 106.825 123.464 106.825C123.835 106.825 124.52 106.437 124.996 105.965C125.472 105.492 125.634 104.528 125.358 103.838ZM144.53 103.044C144.159 101.928 142.788 102.788 142.788 104.15C142.788 104.584 143.073 104.934 143.426 104.934C143.768 104.934 144.244 104.745 144.473 104.518C144.701 104.291 144.73 103.63 144.53 103.044ZM134.221 101.153H137.076L139.218 100.302C141.331 99.4701 141.322 99.4417 136.124 98.3168L135.782 97.759C135.591 97.4565 134.411 97.3525 133.164 97.5321C131.117 97.8346 131.06 97.967 132.564 98.8462C134.002 99.6781 134.03 99.9144 131.365 101.153L130.737 102.013C130.108 102.892 138.685 104.603 139.523 103.771C139.77 103.526 138.676 102.836 134.221 101.153ZM57.1909 99.4228C56.1248 97.5321 54.7064 98.6004 55.5631 100.652C55.8868 101.446 56.5912 102.098 57.1148 102.098C57.6383 102.098 58.0667 101.852 58.0667 101.54C58.0667 101.238 57.6669 100.283 57.1909 99.4228ZM36.9055 96.0101C36.6008 96.3126 36.5247 97.1729 36.7341 97.9197C36.9531 98.6571 37.3148 99.2621 37.5432 99.2621C37.7717 99.2621 38.1715 98.9218 38.4381 98.5058C39.0378 97.5416 37.648 95.2727 36.9055 96.0101ZM128.043 95.6509C127.681 95.3011 126.995 95.7548 126.52 96.6624C125.986 97.6739 126.005 98.3168 126.548 98.3168C127.043 98.3168 127.728 97.863 128.071 97.3052C128.414 96.7569 128.404 96.0101 128.043 95.6509ZM145.929 92.6446C144.539 92.6446 143.492 94.4881 144.082 95.8967C144.416 96.7097 145.12 97.3714 145.644 97.3714C146.167 97.3714 146.596 96.3126 146.596 95.008C146.596 93.7129 146.3 92.6446 145.929 92.6446ZM49.4994 90.7539L46.2057 90.9903C42.2648 91.2739 39.8088 93.2118 42.8359 95.4807L46.0439 95.717C49.9658 96.0101 52.4884 94.0154 49.4994 90.7539ZM135.172 94.5353L134.135 93.987C133.573 93.6845 132.821 93.7696 132.469 94.1761C132.126 94.5826 132.593 95.0458 135.172 95.4807L137.314 95.9061C139.837 96.4166 140.884 96.2181 140.884 95.2444C140.884 94.8568 139.599 94.5353 135.172 94.5353ZM36.1725 86.9725V90.7539H38.0763V86.9725H36.1725ZM126.605 86.0271V89.8086H128.509V86.0271H126.605ZM47.5956 86.9725V86.0271L45.6917 84.1364H43.7879L42.8359 83.4558C42.2648 83.0493 41.884 83.8056 41.884 85.3465C41.884 87.0009 42.3885 87.9179 44.7398 87.9179L47.091 88.5796C48.3857 88.9388 49.7755 88.8537 50.1848 88.3811C50.5941 87.9178 50.1753 87.4074 47.5956 86.9725ZM141.836 87.9179V85.8664C141.836 83.3612 140.694 82.3024 138.98 85.0818L135.172 86.0271L133.507 86.3107C132.593 86.462 133.973 87.0765 136.581 87.6626C139.199 88.2487 141.446 88.5418 141.836 87.9179ZM56.8673 82.0661C56.3628 80.667 55.2109 81.3476 55.2109 83.0304C55.2109 83.6448 55.4965 84.1364 55.8487 84.1364C56.1914 84.1364 56.6674 83.9474 56.8958 83.7205C57.1243 83.4936 57.1148 82.7468 56.8673 82.0661ZM133.269 79.4097L134.801 80.8277C136.791 82.6617 136.886 82.6333 137.257 80.1187C137.571 78.0389 137.6 78.0389 138.685 79.8729C139.999 82.1228 140.617 81.6312 140.142 78.7006C139.742 76.1954 138.961 76.1009 130.413 79.4097L131.155 81.3004C131.565 82.3403 132.212 83.1911 132.583 83.1911C132.964 83.1911 133.269 82.3403 133.269 79.4097ZM38.7807 79.23C38.2762 77.8309 37.1244 78.5116 37.1244 80.1943C37.1244 80.8088 37.41 81.3004 37.7622 81.3004C38.1049 81.3004 38.5808 81.1113 38.8093 80.8844C39.0378 80.6575 39.0282 79.9107 38.7807 79.23ZM126.681 78.625C125.615 76.7343 124.197 77.8026 125.054 79.854C125.377 80.6481 126.082 81.3004 126.605 81.3004C127.129 81.3004 127.557 81.0546 127.557 80.7426C127.557 80.4401 127.157 79.4853 126.681 78.625ZM48.5475 76.5736L45.6917 75.6282L46.6436 74.0495C47.8145 72.0926 47.2338 71.4214 45.0825 72.2439C43.9306 72.6787 43.626 73.4256 44.7398 76.5736L46.6436 77.5189L48.3095 78.4454C51.7079 80.3361 55.5727 76.186 52.2885 74.1724C50.8797 73.3027 50.2895 74.1157 51.0034 75.9686C51.3366 76.8194 51.4508 77.4811 51.27 77.4244C51.0796 77.3771 50.3942 77.1597 48.5475 76.5736ZM144.644 76.5263C143.959 75.4581 143.768 75.6188 143.759 77.2826C143.749 78.4548 143.93 79.4097 144.159 79.4097C144.387 79.4097 144.787 79.0693 145.053 78.6534C145.31 78.2374 145.12 77.2826 144.644 76.5263ZM133.269 74.6829L136.362 73.8793C139.389 73.0852 139.409 73.0474 135.172 70.9015L136.362 70.58C137.019 70.4099 137.219 69.8994 136.81 69.4456C136.4 69.0013 135.648 68.9351 134.221 69.9561L131.127 71.2134C127.919 72.5086 127.795 73.0947 132.317 73.7375L130.66 75.0799C129.747 75.8268 129.347 76.7816 129.775 77.207C130.203 77.6324 131.165 77.2353 133.269 74.6829ZM59.7231 73.5579C59.2185 72.1588 58.0667 72.8394 58.0667 74.5222C58.0667 75.1367 58.3523 75.6282 58.7045 75.6282C59.0472 75.6282 59.5231 75.4392 59.7516 75.2123C59.9801 74.9854 59.9706 74.2386 59.7231 73.5579ZM40.7703 69.0107C40.5037 69.0107 39.9992 69.8616 39.6565 70.9015C39.3043 71.9697 39.4566 72.7922 40.0087 72.7922C40.5513 72.7922 41.2462 72.1399 41.5508 71.3363C42.0934 69.9277 41.7888 69.0107 40.7703 69.0107ZM122.817 70.5422C121.674 69.4078 120.522 70.3342 121.293 71.7617C121.598 72.3289 122.274 72.7922 122.797 72.7922C123.321 72.7922 123.749 72.4991 123.749 72.1304C123.749 71.7712 123.331 71.0527 122.817 70.5422ZM53.3071 71.8468L55.2109 70.9015L55.8392 69.1147C56.5531 67.0917 51.3556 63.7357 48.9378 64.6621C46.4913 65.5886 47.4052 69.1242 53.3071 71.8468ZM142.007 68.8028C141.141 67.9425 140.884 68.0559 140.884 69.2944C140.884 70.183 141.17 70.9015 141.522 70.9015C141.864 70.9015 142.379 70.684 142.645 70.4099C142.912 70.1452 142.626 69.4172 142.007 68.8028ZM127.557 67.12L131.365 64.284H133.269L132.859 65.702C132.631 66.4772 132.935 67.12 133.526 67.12C134.192 67.12 134.344 66.4016 133.269 63.3386H130.413L128.024 64.5203C126.7 65.1726 125.634 66.2314 125.653 68.0654L127.395 69.2471C128.347 69.8994 129.509 70.0884 129.975 69.6725C130.451 69.2471 130.108 68.5192 127.557 67.12ZM65.4631 65.6358C64.5779 64.7566 61.7697 67.0539 62.3694 68.1694C62.6169 68.6326 63.5688 68.4057 64.4827 67.6683C65.3965 66.9215 65.8344 66.014 65.4631 65.6358ZM59.0186 63.3386L60.6845 62.9605C62.2742 62.6107 62.2742 62.5445 59.0186 60.5025L57.1148 58.6118L56.3057 57.5436C55.8582 56.9575 54.8873 56.7495 54.1638 57.0898C53.1548 57.5625 53.1167 57.8177 55.2109 58.6118L56.1629 60.5025H55.2109L53.5451 60.2189C50.9082 59.7841 50.7559 60.512 55.2109 64.284L58.0667 66.1747L59.0186 63.3386ZM43.9687 61.8071C43.35 62.1947 42.8359 63.1212 42.8359 63.868C42.8359 64.6148 43.1406 65.2293 43.5023 65.2293C43.8735 65.2293 44.5589 64.8417 45.0349 64.369C46.2629 63.1495 45.349 60.9658 43.9687 61.8071ZM127.557 61.4479L129.223 60.5876C130.137 60.115 130.537 59.3776 130.099 58.9427C129.67 58.5078 128.709 58.8954 126.605 61.4479L125.054 62.2515C124.197 62.6863 123.683 63.6033 123.902 64.2745C124.197 65.1442 124.806 64.8984 127.557 61.4479ZM136.667 59.6517C136.391 59.9259 136.362 60.8712 136.619 61.7504C136.867 62.6201 137.267 63.3386 137.495 63.3386C137.724 63.3386 138.123 62.9983 138.39 62.5823C138.961 61.6559 137.381 58.9427 136.667 59.6517ZM71.1556 59.9542C70.4131 59.2169 68.5379 60.3229 68.5379 61.5046C68.5379 61.9962 68.8425 62.3933 69.2042 62.3933C69.5755 62.3933 70.2894 61.9773 70.8034 61.4668C71.3175 60.9563 71.4793 60.2757 71.1556 59.9542ZM123.749 60.5025L125.653 57.6665L126.605 56.7211L126.843 55.8892C126.976 55.426 126.329 54.2727 125.415 53.3179C124.435 52.2969 123.749 52.0605 123.749 53.8851L120.894 55.7758L119.237 57.1182C117.314 58.678 117.981 59.8786 120.284 59.0089C121.988 58.3566 122.141 58.6402 121.265 60.8996C120.627 62.5445 121.893 62.9416 123.749 60.5025ZM62.8263 56.7211L61.7316 55.5394C60.8749 54.6224 60.7702 54.7264 61.8744 57.6665L63.2737 59.3209C64.5874 60.8712 64.6826 60.8712 64.7016 59.3587C64.7206 58.4606 64.3018 57.5058 62.8263 56.7211ZM50.8511 54.7075C50.1372 53.5542 47.4432 55.6151 48.0906 56.8251C48.3476 57.2883 49.1853 57.2127 49.9849 56.6455C50.775 56.0877 51.1653 55.218 50.8511 54.7075ZM77.1052 56.2485V57.1938C77.1052 57.4585 77.4098 57.6665 77.7715 57.6665C78.1428 57.6665 78.8662 57.2411 79.3898 56.7211C80.0276 56.0877 79.7991 55.7758 78.7234 55.7758C77.8381 55.7758 77.1052 55.9932 77.1052 56.2485ZM67.5859 52.9397L68.0238 52.2307C68.2618 51.8525 69.09 52.3819 69.8515 53.4124C70.613 54.4523 71.5459 55.0006 71.9077 54.6319C72.2789 54.2632 71.6792 52.883 68.5379 49.1583L68.2904 48.0995C68.1476 47.5228 67.1861 47.2581 66.1485 47.5134C64.4351 47.9388 64.416 48.0428 67.5859 49.1583L65.6821 51.049L65.2537 50.3683C65.0253 49.9902 64.5303 49.9902 64.159 50.3589C63.7878 50.7276 63.9781 51.6729 65.6821 53.8851L66.5483 55.5394C67.5859 57.5247 68.6902 56.7778 67.5859 52.9397ZM117.086 56.7211L117.676 56.3619C118.79 55.6812 117.476 53.6109 115.182 54.8304L116.134 51.049L117.324 50.1509C118.143 49.5459 118.742 49.7633 119.237 50.8599C119.799 52.1078 120.084 52.1834 120.541 51.1908C121.608 48.8274 118.19 46.4829 115.182 50.1036L113.278 54.8304L117.086 56.7211ZM60.9225 51.2097C59.7611 50.8221 57.1148 52.7601 57.1148 53.9985C57.1148 54.4617 57.6479 54.8304 58.3047 54.8304C58.9615 54.8399 60.0467 54.1025 60.7131 53.195C61.5317 52.0889 61.5983 51.4271 60.9225 51.2097ZM88.5282 54.4145C88.5282 53.3935 86.7672 53.0626 85.7962 53.904C85.0347 54.5563 85.2822 54.8304 86.6244 54.8304C87.6715 54.8304 88.5282 54.6413 88.5282 54.4145ZM75.2013 52.9397L77.1052 51.9944L77.6668 51.654C77.9714 51.465 78.0666 50.2927 77.8857 49.0543C77.6573 47.5701 77.3051 47.2014 76.1532 49.1583L75.2013 51.049L72.3456 45.3769L73.2308 44.9042C73.7163 44.6489 74.2494 45.1689 74.4207 46.0481C74.6206 47.0785 75.1728 47.3999 75.9343 46.9272C76.8101 46.3978 76.8577 45.7645 76.1152 44.6017C75.2775 43.2782 74.8015 43.212 71.3936 45.3769L72.5835 48.818C73.2404 50.7087 74.0971 52.4103 75.2013 52.9397ZM108.519 51.9944V47.2676L109.709 45.9063C110.365 45.1594 110.575 44.3086 109.471 43.4862L107.814 42.5692C106.615 41.9074 105.958 42.0398 104.711 44.4315L103.788 47.4566C102.95 50.2171 103.274 52.4103 104.711 50.1036H106.615L106.957 51.758C107.148 52.6656 107.576 53.091 108.519 51.9944ZM56.8768 48.61C56.1343 47.8726 54.259 48.9787 54.259 50.1604C54.259 50.6519 54.5636 51.049 54.9254 51.049C55.2966 51.049 56.0106 50.633 56.5246 50.1225C57.0386 49.6121 57.2005 48.9314 56.8768 48.61ZM80.9129 46.3222V44.7151C80.9129 43.8359 80.4083 42.6637 79.7896 42.1154C78.9329 41.3591 78.8186 41.8696 79.9609 47.2676L80.6749 49.0732C81.208 50.4251 81.8743 50.6992 83.2927 50.1509C85.1584 49.4324 85.1489 49.3852 80.9129 46.3222ZM100.903 49.1583L101.855 47.2676V42.5408V41.5954C101.855 41.0755 100.77 40.6501 99.4563 40.6501C96.9718 40.6501 95.5154 43.9021 96.2864 47.7024C96.7719 50.0847 98.0475 48.3264 98.0475 45.2729C98.0475 43.8359 98.4758 42.3895 98.9994 42.0681C99.542 41.7372 99.9513 42.5313 99.9513 46.3222V48.2129L98.7614 49.3001C97.8381 50.1509 97.9428 50.2549 100.903 49.1583ZM91.384 42.5408L93.3259 41.7845C94.3921 41.378 94.9632 40.7352 94.592 40.3665C93.5734 39.355 89.4802 39.5818 89.4802 41.5954L90.4321 47.2676L90.8129 48.4493C91.0223 49.1016 91.2412 48.7045 91.2888 47.5701C91.3459 46.4451 92.136 45.3201 93.0499 45.0838C94.6396 44.6773 94.6396 44.6017 91.384 42.5408ZM64.5588 43.004C63.5688 42.0114 60.6369 44.025 61.2937 45.2351C61.7126 46.0197 62.3313 45.9441 63.5307 44.9798C64.4446 44.233 64.911 43.3444 64.5588 43.004ZM72.1742 39.2132C71.4603 38.5136 68.5379 39.8844 68.5379 40.9242C68.5379 41.2929 68.7854 41.5954 69.0995 41.5954C69.4041 41.5954 70.3656 41.1984 71.2318 40.7163C72.0981 40.2436 72.5169 39.5629 72.1742 39.2132ZM108.842 38.1165C108.585 38.3812 108.614 39.0619 108.918 39.6197C109.223 40.1869 110.118 40.6501 110.898 40.6501C111.689 40.6501 112.326 40.3476 112.326 39.9789C112.326 39.0619 109.442 37.521 108.842 38.1165ZM77.1052 36.396V37.814C77.1052 38.334 77.5716 38.7594 78.1523 38.7594C78.7234 38.7594 79.5802 38.523 80.0561 38.23C81.5792 37.2941 80.97 35.9233 79.009 35.9233C77.9619 35.9233 77.1052 36.1407 77.1052 36.396ZM101.912 36.0651C101.36 36.2447 100.903 36.7174 100.903 37.105C100.903 37.4926 101.408 37.814 102.017 37.814C102.626 37.814 103.34 37.5966 103.597 37.3413C104.321 36.6323 103.064 35.6775 101.912 36.0651ZM91.384 34.978V36.8687H95.1917V34.978H91.384Z" fill="#23284C"/>
<path d="M72.3469 148.421L90.4335 151.257C89.9385 165.135 89.472 165.551 84.6267 162.923C82.047 161.524 80.8286 161.476 73.7272 162.516C63.4084 164.029 62.8277 163.556 67.7682 157.572C69.9957 154.878 71.9376 151.72 72.0804 150.548L72.3469 148.421ZM98.0488 151.257L112.328 147.476C112.347 152.24 113.403 155.322 114.679 157.402C117.011 161.183 117.011 161.183 110.624 161.656C107.111 161.921 103.303 162.658 102.161 163.31C98.6105 165.324 95.8785 164.861 96.6305 162.365C98.6486 155.719 99.372 152.07 98.7533 151.692L98.0488 151.257ZM117.087 145.585C123.075 142.711 128.52 138.854 133.27 134.241C134.022 138.192 135.45 139.563 138.239 140.943C142.313 142.957 142.313 142.957 136.764 145.925C132.356 148.279 130.776 149.782 129.072 153.204C125.502 160.399 123.932 160.38 122.037 153.148C121.019 149.291 119.8 146.738 118.753 146.294L117.087 145.585ZM54.2604 138.967L66.6354 146.53C57.278 157.099 57.278 157.099 55.4122 154.273C53.7368 151.711 52.9658 151.399 47.4827 151.021L41.4094 150.605C50.2623 144.148 53.1561 141.529 53.5464 140.622L54.2604 138.967ZM39.0296 121.951L49.5008 135.186C45.2933 136.519 42.6469 138.703 40.9144 140.905C37.1829 145.651 35.8597 145.112 34.3747 138.192C33.5085 134.137 32.9754 133.456 29.2343 131.641C26.9402 130.525 24.0463 128.417 22.7898 126.961C20.5147 124.314 20.5147 124.314 28.2538 124.286C32.8516 124.277 36.6022 123.795 37.5065 123.104L39.0296 121.951ZM138.03 128.569L147.549 113.443C150.9 117.082 153.26 118.406 154.945 118.737C159.067 119.54 158.82 121.27 154.212 123.766C150.614 125.723 150.405 126.082 150.376 130.28C150.328 138.325 149.024 139.185 144.902 133.881C142.951 131.367 140.609 129.145 139.695 128.937L138.03 128.569ZM30.4623 95.4811L34.27 111.552C28.9773 111.552 25.5789 112.403 23.3038 113.443C17.1544 116.26 16.6309 115.995 18.5823 111.098C20.2577 106.863 20.2577 106.863 17.2306 102.354C12.7756 95.7364 13.0992 94.7532 19.2772 96.2279C22.866 97.0788 25.1411 97.1449 27.3686 96.4454L30.4623 95.4811ZM149.453 106.825L151.357 88.8636C155.24 90.5369 158.087 90.6976 160.99 90.3006C165.788 89.6483 165.788 89.6483 165.007 92.3331C164.579 93.7984 164.227 98.3077 164.217 102.335C164.207 111.155 163.855 111.618 159.238 108.877C157.258 107.705 154.25 106.759 152.546 106.788L149.453 106.825ZM33.3181 72.7926L30.4623 90.7543C26.4261 89.289 24.0844 88.8636 22.6565 88.8636C19.1249 88.8636 18.5347 87.5969 20.4957 84.1841C22.1044 81.3859 22.0854 81.1306 20.0387 76.3377C17.183 69.6729 17.3638 69.3137 22.6089 71.2328C25.0935 72.1403 28.5204 72.8682 30.2243 72.8399L33.3181 72.7926ZM150.405 83.1915C149.567 76.6213 147.635 70.2307 144.693 64.2844C159.324 61.42 158.972 61.2687 158.972 66.3169C158.972 68.8788 159.8 71.5258 161.352 73.9459C165.178 79.93 164.683 81.263 158.734 81.0266C155.935 80.9132 153.003 81.3481 152.07 82.0098L150.405 83.1915ZM34.27 69.0112C25.7884 64.4451 23.1611 62.9703 22.9516 62.7907C22.7517 62.6017 24.608 61.1553 27.0735 59.5671C31.557 56.6743 31.557 56.6743 30.9097 51.8341C30.0815 45.5947 30.3005 45.4813 35.4599 49.5369C37.9159 51.4748 40.8478 52.9401 42.2662 52.9401H44.7411C40.6288 57.8371 36.6308 62.9893 34.27 69.0112ZM132.318 47.268C136.126 45.8878 138.191 43.6473 139.6 41.1137C142.485 35.9426 143.313 36.1034 145.264 42.182C146.464 45.8972 147.539 47.2018 151.414 49.6314C157.42 53.3939 157.354 54.7269 151.119 56.1449C147.739 56.9201 145.731 57.96 144.931 59.3685L143.741 61.4483L132.318 47.268ZM47.5969 49.1587C46.2642 45.2638 44.4556 43.6567 41.9996 42.5223C37.6208 40.4898 37.8016 39.6768 43.1419 37.4363C46.3118 36.1034 47.0067 35.2147 48.5774 30.4785L50.367 25.0522C55.9643 33.1066 58.7725 35.9805 60.2099 36.6328L62.8277 37.8144C57.1542 40.7356 52.0614 44.6305 47.5969 49.1587ZM110.424 34.033C114.965 32.823 117.259 28.9187 116.63 26.2622C115.402 21.0722 117.782 21.0628 122.685 26.2338C127.159 30.9606 127.616 31.197 132.232 31.197C138.744 31.197 138.934 31.7075 134.193 36.3491C130.605 39.8659 130.195 40.6789 130.747 43.3259L131.366 46.3226C125.312 40.8301 118.144 36.7178 110.424 34.033ZM66.6354 35.9237C66.6449 30.9323 65.5026 28.134 63.5892 25.383C59.8767 20.0323 60.4574 18.9073 66.9781 18.9073C71.7187 18.9073 72.2422 18.6616 76.107 14.5776C80.9142 9.51997 82.2374 9.69959 81.4473 15.315C80.5715 21.526 82.9038 28.5216 86.0261 29.0794C88.6534 29.5615 91.8328 26.5175 91.0332 24.2864C90.8142 23.6625 90.0622 21.6772 89.3673 19.8527C87.711 15.5324 89.0246 15.1637 95.5167 18.1322C100.172 20.2687 100.381 20.2781 103.456 18.671L106.616 17.0166L109.472 19.8527C107.625 23.8799 107.197 26.8578 107.33 29.0699L107.568 33.0877C94.0032 29.1077 79.5339 30.4029 66.6354 35.9237Z" fill="#E84C6D"/>
<path d="M74.2493 114.388L75.1442 109.425C77.8952 94.2048 78.0285 94.9421 71.3745 88.8635C63.9686 82.0948 64.1209 81.6788 74.6682 79.6368C83.1784 77.9919 83.1784 77.9919 90.432 62.3936H92.3359L95.9627 70.1927C99.5991 77.9919 99.5991 77.9919 108.338 79.5328C118.742 81.3763 118.952 81.8773 112.003 88.3625C105.644 94.3087 105.463 94.8476 106.758 103.999C108.071 113.282 107.69 113.566 99.7038 109.255C91.7362 104.963 90.889 105.001 75.2013 114.388H74.2493Z" fill="#E84C6D"/>
<path d="M75.2012 114.388C90.8889 105.001 91.7361 104.963 99.7037 109.255C107.69 113.566 108.071 113.282 106.757 103.999C105.463 94.8476 105.644 94.3087 112.003 88.3625C118.952 81.8773 118.742 81.3763 108.338 79.5328C99.599 77.9919 99.599 77.9919 95.9626 70.1927L92.3358 62.3936C110.28 63.6225 126.129 80.223 119.942 99.2624C113.773 118.264 91.2506 124.191 75.2012 114.388Z" fill="#214972"/>
<path d="M90.4332 62.3936C83.1795 77.9919 83.1795 77.9919 74.6693 79.6368C64.122 81.6788 63.9697 82.0948 71.3757 88.8635C78.0296 94.9421 77.8964 94.2048 75.1453 109.425L74.2505 114.388C62.8084 106.958 59.3815 92.5882 63.7793 80.3553C67.806 69.1718 78.7626 62.3936 90.4332 62.3936Z" fill="#214972"/>
<path d="M84.7215 136.131L83.7695 133.295L86.711 132.624C89.0051 132.094 89.8618 132.312 90.6043 133.635C91.4801 135.195 91.6419 135.204 92.7081 133.739C94.1645 131.763 98.3911 132.236 98.8099 134.42C99.0289 135.545 98.115 136.311 92.3368 138.022H89.4811L84.7215 136.131Z" fill="#23284C"/>
<path d="M93.2876 139.913L92.3356 138.022C98.1138 136.311 99.0277 135.545 98.8087 134.42C98.3899 132.236 94.1633 131.764 92.7069 133.74C91.6407 135.205 91.4789 135.195 90.6031 133.636C89.8606 132.312 89.0039 132.095 86.7098 132.624L83.7683 133.295L82.8164 132.35C84.0253 130.109 88.8516 130.213 90.2033 131.556C90.9458 132.293 91.6978 132.34 92.5355 131.698C93.8873 130.658 97.9615 130.582 99.5131 131.575C101.95 133.144 100.332 137.351 96.7811 138.646L93.2876 139.913Z" fill="#E84C6D"/>
<path d="M55.2112 70.9016L54.2593 69.0108L52.5078 67.4605C51.5463 66.6096 50.147 66.1653 49.414 66.4584C48.0528 67.0067 50.6801 69.9562 53.3074 69.9562V71.8469C47.4055 69.1243 46.4916 65.5887 48.9381 64.6622C51.3559 63.7358 56.5534 67.0918 55.8395 69.1148L55.2112 70.9016Z" fill="#E84C6D"/>
<path d="M133.27 79.41H130.414C138.962 76.1012 139.743 76.1958 140.143 78.701C140.619 81.6316 140 82.1231 138.686 79.8732C137.601 78.0392 137.573 78.0392 137.258 80.119C136.887 82.6336 136.792 82.662 134.802 80.828L133.27 79.41Z" fill="#E84C6D"/>
<path d="M132.318 73.7375C127.796 73.0946 127.92 72.5085 131.128 71.2134L134.222 69.9561L135.174 70.9014C139.41 73.0474 139.391 73.0852 136.364 73.8793L133.27 74.6828L132.318 73.7375Z" fill="#E84C6D"/>
<path d="M109.471 19.8527L106.615 17.0166C116.249 11.2121 116.848 11.8077 112.727 16.3076L109.471 19.8527Z" fill="#E84C6D"/>
<path d="M101.856 42.5411L100.904 46.3225H99.9519C99.9519 42.5316 99.5425 41.7375 98.9999 42.0684C98.4764 42.3898 98.048 43.8362 98.048 45.2732C98.048 48.3267 96.7724 50.085 96.287 47.7027C95.5159 43.9024 96.9723 40.6504 99.4569 40.6504C100.771 40.6504 101.856 41.0758 101.856 41.5957V42.5411Z" fill="#E84C6D"/>
<path d="M54.2603 117.224H56.1642L57.1161 120.06C51.633 122.688 50.1385 120.561 52.6992 118.49L54.2603 117.224Z" fill="#E84C6D"/>
<path d="M65.6819 126.678L66.6338 127.623L67.5667 128.805C68.2806 129.712 68.6043 129.608 69.4896 126.678L70.4415 125.732C71.5457 126.574 70.9079 128.058 69.7275 129.58L67.5857 132.35L67.1383 130.696C66.7099 129.117 66.6338 129.117 64.7299 132.35C63.7971 131.773 64.0065 130.497 64.5967 129.145L65.6819 126.678Z" fill="#E84C6D"/>
<path d="M112.326 127.623V126.678C114.658 126.678 115.153 126.148 114.915 125.496C114.677 124.844 114.715 124.097 115.001 123.841C115.277 123.586 115.858 124.324 116.296 125.496L117.086 127.623L115.982 127.878C115.382 128.02 115.163 128.663 116.134 130.459V131.404L112.326 127.623Z" fill="#E84C6D"/>
<path d="M42.8359 95.4807L43.7879 94.5353H46.4056C47.8431 94.5353 49.1281 94.1099 49.4994 92.6446V91.6993V90.7539C52.4884 94.0154 49.9658 96.0101 46.0439 95.717L42.8359 95.4807Z" fill="#E84C6D"/>
<path d="M46.6445 77.5189L48.5484 76.5736C50.3951 77.1597 51.0805 77.3771 51.2709 77.4244C51.4517 77.4811 51.3375 76.8194 51.0043 75.9686C50.2904 74.1157 50.8806 73.3027 52.2894 74.1724C55.5736 76.186 51.7088 80.3361 48.3104 78.4454L46.6445 77.5189Z" fill="#E84C6D"/>
<path d="M117.62 122.055C118.181 121.497 123.75 127.736 123.75 128.927C123.75 129.249 123.322 129.514 122.798 129.514C122.274 129.514 120.761 127.963 119.438 126.072C118.115 124.182 117.296 122.376 117.62 122.055Z" fill="#E84C6D"/>
<path d="M135.173 86.0274L139.932 85.082L141.836 87.9181C141.446 88.542 139.199 88.249 136.581 87.6629C133.973 87.0767 132.593 86.4623 133.507 86.311L135.173 86.0274Z" fill="#E84C6D"/>
<path d="M107.567 50.1038L106.653 48.9221C105.92 47.9767 105.634 47.9767 104.711 50.1038C103.273 52.4104 102.95 50.2172 103.787 47.4568L104.711 44.4316L106.615 46.3224L108.519 47.2677V51.9945L107.567 50.1038Z" fill="#E84C6D"/>
<path d="M131.366 101.153H134.222C138.677 102.836 139.772 103.526 139.524 103.772C138.687 104.604 130.11 102.893 130.738 102.014L131.366 101.153Z" fill="#E84C6D"/>
<path d="M44.7402 107.771L45.6922 106.825L51.4037 104.935H53.3075C52.6793 106.031 50.7469 106.674 48.6146 107.062L44.7402 107.771Z" fill="#E84C6D"/>
<path d="M120.895 55.7764L122.799 58.6124L123.751 60.5031C121.895 62.9422 120.629 62.5451 121.266 60.9002C122.142 58.6408 121.99 58.3572 120.286 59.0095C117.982 59.8792 117.316 58.6786 119.239 57.1188L120.895 55.7764Z" fill="#E84C6D"/>
<path d="M131.365 101.153C134.031 99.9149 134.002 99.6785 132.565 98.8466C131.061 97.9674 131.118 97.8351 133.164 97.5326C134.411 97.353 135.592 97.4569 135.782 97.7595L136.125 98.3172L135.411 98.5536C135.021 98.6859 135.23 99.3193 137.077 101.153H134.221H131.365Z" fill="#E84C6D"/>
<path d="M49.4995 90.7539V91.6993L44.7398 92.6446L43.5499 93.0228C42.8931 93.2307 42.6837 93.6561 43.7879 94.5353L42.836 95.4807C39.8089 93.2118 42.2648 91.2739 46.2058 90.9902L49.4995 90.7539Z" fill="#E84C6D"/>
<path d="M67.5874 52.9396H66.6355L65.6836 51.0489L67.5874 49.1582H68.5394C71.6807 52.8829 72.2804 54.2631 71.9092 54.6318C71.5474 55.0005 70.6146 54.4522 69.853 53.4123C69.0915 52.3819 68.2633 51.8525 68.0253 52.2306L67.5874 52.9396Z" fill="#E84C6D"/>
<path d="M116.136 51.0491L115.184 50.1038C118.192 46.4831 121.609 48.8275 120.543 51.1909C120.086 52.1835 119.8 52.1079 119.239 50.86C118.744 49.7634 118.144 49.546 117.325 50.151L116.136 51.0491Z" fill="#E84C6D"/>
<path d="M104.711 44.4313C105.958 42.0395 106.615 41.9072 107.814 42.5689L109.471 43.4859L106.615 46.322L104.711 44.4313Z" fill="#E84C6D"/>
<path d="M59.0195 124.787L59.9715 122.897L62.8272 121.951V124.787L60.9234 126.678L59.9715 127.188C59.4479 127.463 59.0195 127.037 59.0195 124.787Z" fill="#23284C"/>
<path d="M43.7886 84.137L43.1603 85.3187C42.7225 86.1412 43.008 86.283 45.6925 85.0824L47.5963 86.0277V86.9731L44.7405 87.9184C42.3893 87.9184 41.8848 87.0014 41.8848 85.3471C41.8848 83.8061 42.2655 83.0498 42.8367 83.4564L43.7886 84.137Z" fill="#E84C6D"/>
<path d="M54.2596 69.0108L53.3077 69.9561C50.6804 69.9561 48.0531 67.0066 49.4143 66.4583C50.1473 66.1652 51.5466 66.6096 52.5081 67.4604L54.2596 69.0108Z" fill="#23284C"/>
<path d="M58.0667 66.1751L56.1629 64.2844L55.2109 60.5029H56.1629H58.0667L57.6574 61.1552C57.4289 61.5239 57.6479 62.1573 59.0186 63.339L58.0667 66.1751Z" fill="#E84C6D"/>
<path d="M90.4336 47.2678V41.5957L91.3855 42.5411C94.6411 44.6019 94.6411 44.6776 93.0514 45.0841C92.1375 45.3204 91.3474 46.4454 91.2903 47.5703C91.2427 48.7048 91.0238 49.1018 90.8144 48.4495L90.4336 47.2678Z" fill="#E84C6D"/>
<path d="M128.51 117.224V116.278L131.366 115.333L132.317 116.278C132.317 119.228 129.814 119.351 128.948 117.933L128.51 117.224Z" fill="#E84C6D"/>
<path d="M57.116 120.06L56.1641 117.224V115.333V114.388L57.116 113.442C57.6681 116.742 58.363 117.574 59.0198 117.422C61.2188 116.912 61.4187 118.481 59.2578 119.275L57.116 120.06Z" fill="#E84C6D"/>
<path d="M45.6914 106.825L45.9294 105.644C46.0627 104.991 46.7004 104.141 48.5472 103.044L51.4029 104.935L45.6914 106.825Z" fill="#23284C"/>
<path d="M51.4041 104.935L48.5484 103.044L46.6445 102.098C50.8901 101.711 52.0419 102.193 52.5369 103.28L53.308 104.935H51.4041Z" fill="#E84C6D"/>
<path d="M44.7411 92.6445H49.5007C49.1295 94.1098 47.8444 94.5352 46.407 94.5352H43.7892C42.685 93.6561 42.8944 93.2307 43.5512 93.0227L44.7411 92.6445Z" fill="#23284C"/>
<path d="M79.9609 47.2676L80.9129 46.3223C85.1489 49.3852 85.1584 49.4325 83.2927 50.151C81.8743 50.6993 81.208 50.4251 80.6749 49.0732L79.9609 47.2676Z" fill="#E84C6D"/>
<path d="M71.3945 45.377H72.3465L75.2022 51.0491V52.9398C74.098 52.4104 73.2413 50.7088 72.5844 48.818L71.3945 45.377Z" fill="#E84C6D"/>
<path d="M46.6438 102.099L48.5476 103.044C46.7009 104.141 46.0631 104.991 45.9298 105.644L45.6919 106.825L44.7399 107.771C43.5405 104.367 43.8071 103.554 44.9874 102.949L46.6438 102.099Z" fill="#E84C6D"/>
<path d="M137.077 101.153C135.23 99.3195 135.02 98.6861 135.411 98.5537L136.125 98.3174C141.322 99.4424 141.332 99.4707 139.218 100.303L137.077 101.153Z" fill="#E84C6D"/>
<path d="M145.929 92.6445C146.3 92.6445 146.595 93.7128 146.595 95.0079C146.595 96.3125 146.167 97.3713 145.643 97.3713C145.12 97.3713 144.415 96.7096 144.082 95.8966C143.492 94.488 144.539 92.6445 145.929 92.6445Z" fill="#E84C6D"/>
<path d="M60.9229 51.2095C61.5988 51.427 61.5322 52.0887 60.7135 53.1948C60.0472 54.1023 58.962 54.8397 58.3051 54.8303C57.6483 54.8303 57.1152 54.4616 57.1152 53.9983C57.1152 52.7599 59.7616 50.8219 60.9229 51.2095Z" fill="#E84C6D"/>
<path d="M72.3465 45.3773H71.3945C74.8024 43.2125 75.2784 43.2787 76.1161 44.6021C76.8586 45.7649 76.811 46.3983 75.9352 46.9277C75.1737 47.4004 74.6216 47.079 74.4216 46.0485C74.2503 45.1694 73.7172 44.6494 73.2317 44.9047L72.3465 45.3773Z" fill="#E84C6D"/>
<path d="M64.7305 132.35C66.6343 129.117 66.7105 129.117 67.1388 130.696L67.5862 132.35C67.5862 134.26 67.234 134.26 66.1584 133.437L64.7305 132.35Z" fill="#E84C6D"/>
<path d="M58.068 123.842L59.0199 124.787C59.0199 127.037 59.4482 127.463 59.9718 127.188L60.9237 126.678L61.8756 127.623C58.0204 128.049 57.6396 127.67 57.83 125.969L58.068 123.842Z" fill="#E84C6D"/>
<path d="M122.799 122.897V121.951L124.703 122.897L127.558 123.842H128.51C125.855 125.988 125.331 125.903 124.198 124.551L122.799 122.897Z" fill="#E84C6D"/>
<path d="M63.7781 125.733L62.8262 124.787V121.951V120.061C65.9104 121.516 65.977 121.932 64.968 123.681L63.7781 125.733Z" fill="#E84C6D"/>
<path d="M122.799 121.951V119.115H124.703L125.655 121.006L126.169 121.951C126.445 122.471 126.226 122.897 124.703 122.897L122.799 121.951Z" fill="#23284C"/>
<path d="M132.317 116.279L131.366 115.333L130.414 113.442L128.51 111.552C132.774 112.696 135.126 115.588 133.507 115.985L132.317 116.279Z" fill="#E84C6D"/>
<path d="M126.605 113.442C126.644 109.755 126.891 109.5 127.576 110.37L128.509 111.552L130.413 113.442L127.557 114.388L126.605 113.442Z" fill="#E84C6D"/>
<path d="M44.7402 87.918L47.596 86.9727C50.1757 87.4075 50.5946 87.918 50.1852 88.3812C49.7759 88.8539 48.3861 88.939 47.0915 88.5798L44.7402 87.918Z" fill="#E84C6D"/>
<path d="M45.6922 75.6289L44.7403 76.5742C43.6266 73.4262 43.9312 72.6794 45.083 72.2445C47.2343 71.4221 47.815 72.0933 46.6441 74.0501L45.6922 75.6289Z" fill="#E84C6D"/>
<path d="M125.655 68.0656C125.636 66.2317 126.702 65.1729 128.025 64.5206L130.414 63.3389L131.366 64.2842L127.558 67.1203L125.655 68.0656Z" fill="#E84C6D"/>
<path d="M55.2124 60.5029L56.1644 64.2843H55.2124C50.7574 60.5123 50.9097 59.7844 53.5466 60.2193L55.2124 60.5029Z" fill="#E84C6D"/>
<path d="M120.895 55.7755L123.75 53.8848V54.8301L123.065 55.7755C122.684 56.3049 123.103 56.7208 125.654 56.7208H126.606L125.654 57.6662L122.798 58.6115L120.895 55.7755Z" fill="#E84C6D"/>
<path d="M89.4805 139.912V138.021H92.3362L93.2882 139.912C92.4029 141.557 91.8032 141.557 90.8608 140.886L89.4805 139.912Z" fill="#E84C6D"/>
<path d="M83.7695 137.076L84.7215 136.131L89.4811 138.022V139.912L83.7695 137.076Z" fill="#E84C6D"/>
<path d="M120.895 118.169L122.799 119.114V121.95V122.896C120.952 121.799 120.524 120.731 120.657 119.823L120.895 118.169Z" fill="#E84C6D"/>
<path d="M50.4527 111.552L48.5488 110.607L52.3565 108.716L53.3084 109.661L52.3565 112.497H51.4046L50.4527 111.552Z" fill="#E84C6D"/>
<path d="M91.3843 42.5412L90.4324 41.5959H89.4805C89.4805 39.5822 93.5737 39.3554 94.5923 40.3669C94.9635 40.7356 94.3924 41.3784 93.3262 41.7849L91.3843 42.5412Z" fill="#E84C6D"/>
<path d="M77.1055 36.3965C77.1055 36.1413 77.9622 35.9238 79.0093 35.9238C80.9703 35.9238 81.5795 37.2946 80.0564 38.2305C79.5805 38.5236 78.7237 38.7599 78.1526 38.7599C77.5719 38.7599 77.1055 38.3345 77.1055 37.8145V36.3965Z" fill="#E84C6D"/>
<path d="M82.8177 132.35L83.7696 133.295L84.7216 136.131L83.7696 137.076C82.6654 136.301 82.4465 135.242 82.5797 134.212L82.8177 132.35Z" fill="#E84C6D"/>
<path d="M116.135 131.404V130.459L118.039 128.568C119.257 132.227 117.534 134.004 116.658 132.378L116.135 131.404Z" fill="#E84C6D"/>
<path d="M126.605 113.442L127.557 114.388L128.509 116.278V117.224C124.94 114.87 124.616 114.246 125.416 113.925L126.605 113.442Z" fill="#E84C6D"/>
<path d="M125.654 68.0655L127.558 67.1201C130.109 68.5192 130.452 69.2472 129.976 69.6726C129.51 70.0885 128.348 69.8995 127.396 69.2472L125.654 68.0655Z" fill="#E84C6D"/>
<path d="M43.9687 61.8072C45.349 60.9658 46.2629 63.1496 45.0349 64.3691C44.5589 64.8418 43.8735 65.2294 43.5023 65.2294C43.1406 65.2294 42.8359 64.6149 42.8359 63.8681C42.8359 63.1212 43.35 62.1948 43.9687 61.8072Z" fill="#E84C6D"/>
<path d="M59.0197 63.339C57.6489 62.1573 57.4299 61.5239 57.6584 61.1552L58.0677 60.5029H59.0197C62.2752 62.5449 62.2752 62.6111 60.6855 62.9609L59.0197 63.339Z" fill="#E84C6D"/>
<path d="M125.654 56.7216L123.75 54.8309V53.8856C123.75 52.061 124.435 52.2974 125.416 53.3184C126.33 54.2732 126.977 55.4265 126.844 55.8897L126.606 56.7216H125.654Z" fill="#E84C6D"/>
<path d="M113.279 54.8303L115.183 50.1035L116.135 51.0489L115.183 54.8303H113.279Z" fill="#E84C6D"/>
<path d="M64.5592 43.0047C64.9115 43.345 64.445 44.2336 63.5312 44.9805C62.3317 45.9447 61.713 46.0204 61.2941 45.2357C60.6373 44.0257 63.5692 42.0121 64.5592 43.0047Z" fill="#E84C6D"/>
<path d="M79.9624 47.2679C78.8201 41.8699 78.9343 41.3594 79.7911 42.1157C80.4098 42.664 80.9143 43.8363 80.9143 44.7155V46.3226L79.9624 47.2679Z" fill="#E84C6D"/>
<path d="M66.6355 127.623L65.6836 126.678C67.7683 124.135 68.4347 124.003 69.2819 124.731L70.4432 125.733L69.4913 126.678L68.8345 126.272C68.4632 126.045 67.8254 126.262 66.6355 127.623Z" fill="#E84C6D"/>
<path d="M124.701 122.897C126.224 122.897 126.443 122.471 126.167 121.951L125.653 121.006L126.605 119.115L128.509 121.006L127.557 123.842L124.701 122.897Z" fill="#E84C6D"/>
<path d="M114.964 117.631C115.335 118.009 114.897 118.916 113.984 119.663C113.07 120.401 112.118 120.627 111.87 120.164C111.271 119.049 114.079 116.751 114.964 117.631Z" fill="#E84C6D"/>
<path d="M133.268 110.607L132.316 108.716C136.429 110.682 137.057 111.448 136.448 111.826C135.886 112.176 134.934 112.043 134.344 111.533L133.268 110.607Z" fill="#E84C6D"/>
<path d="M61.0758 108.073C61.5993 108.999 61.5422 109.775 60.9425 110.086C60.4094 110.37 59.5813 109.86 59.0958 108.952C57.982 106.825 59.8954 105.984 61.0758 108.073Z" fill="#E84C6D"/>
<path d="M125.358 103.838C125.634 104.528 125.472 105.492 124.997 105.965C124.521 106.437 123.835 106.825 123.464 106.825C123.102 106.825 122.807 106.503 122.817 106.116C122.845 104.348 124.844 102.561 125.358 103.838Z" fill="#E84C6D"/>
<path d="M57.1918 99.4232C57.6677 100.284 58.0675 101.238 58.0675 101.541C58.0675 101.853 57.6392 102.099 57.1156 102.099C56.5921 102.099 55.8876 101.446 55.564 100.652C54.7073 98.6008 56.1256 97.5325 57.1918 99.4232Z" fill="#E84C6D"/>
<path d="M135.174 95.4805V94.5352C139.6 94.5352 140.885 94.8566 140.885 95.2442C140.885 96.2179 139.838 96.4164 137.316 95.9059L135.174 95.4805Z" fill="#E84C6D"/>
<path d="M130.414 79.4102H133.27C133.27 82.3408 132.965 83.1916 132.584 83.1916C132.213 83.1916 131.566 82.3408 131.157 81.3009L130.414 79.4102Z" fill="#E84C6D"/>
<path d="M126.682 78.6254C127.158 79.4857 127.558 80.4405 127.558 80.743C127.558 81.055 127.129 81.3008 126.606 81.3008C126.082 81.3008 125.378 80.6485 125.054 79.8544C124.197 77.8029 125.616 76.7347 126.682 78.6254Z" fill="#E84C6D"/>
<path d="M132.317 73.7373L133.269 74.6827C131.165 77.2351 130.204 77.6322 129.776 77.2068C129.347 76.7813 129.747 75.8265 130.661 75.0797L132.317 73.7373Z" fill="#E84C6D"/>
<path d="M65.4641 65.6356C65.8353 66.0137 65.3974 66.9212 64.4836 67.6681C63.5698 68.4055 62.6178 68.6323 62.3703 68.1691C61.7706 67.0536 64.5788 64.7564 65.4641 65.6356Z" fill="#E84C6D"/>
<path d="M100.904 46.3224L101.856 42.541V47.2678L100.904 46.3224Z" fill="#E84C6D"/>
<path d="M108.842 38.1166C109.442 37.5211 112.326 39.062 112.326 39.979C112.326 40.3477 111.689 40.6502 110.898 40.6502C110.118 40.6502 109.223 40.187 108.918 39.6197C108.614 39.062 108.585 38.3813 108.842 38.1166Z" fill="#E84C6D"/>
<path d="M99.9512 142.749H103.759V144.64H99.9512V142.749Z" fill="#E84C6D"/>
<path d="M59.0195 122.897L62.8272 120.061V121.951L59.9715 122.897H59.0195Z" fill="#E84C6D"/>
<path d="M120.895 118.17C122.608 116.042 122.989 116.042 123.75 116.988L124.702 118.17V119.115H122.798L120.895 118.17Z" fill="#E84C6D"/>
<path d="M47.5957 114.388H48.5476L51.4034 113.442L52.3553 114.388C49.6614 116.439 49.1473 116.439 48.4715 115.532L47.5957 114.388Z" fill="#E84C6D"/>
<path d="M56.1644 114.388L54.2605 113.443L53.3086 112.498C55.1458 111.401 56.0025 111.609 56.3928 112.261L57.1163 113.443L56.1644 114.388Z" fill="#E84C6D"/>
<path d="M47.5953 114.388C47.2241 112.214 47.443 111.363 47.8333 111.089L48.5472 110.606L50.4511 111.552L48.5472 114.388H47.5953Z" fill="#E84C6D"/>
<path d="M36.1738 86.9727H38.0777V90.7541H36.1738V86.9727Z" fill="#E84C6D"/>
<path d="M126.605 86.0273H128.509V89.8088H126.605V86.0273Z" fill="#E84C6D"/>
<path d="M139.932 85.0818H138.98C140.694 82.3024 141.836 83.3612 141.836 85.8664V87.9178L139.932 85.0818Z" fill="#E84C6D"/>
<path d="M40.7716 69.0107C41.7902 69.0107 42.0948 69.9277 41.5522 71.3363C41.2476 72.1399 40.5527 72.7922 40.0101 72.7922C39.458 72.7922 39.3057 71.9697 39.6579 70.9015C40.0006 69.8616 40.5051 69.0107 40.7716 69.0107Z" fill="#E84C6D"/>
<path d="M126.605 61.4482H127.557C124.806 64.8988 124.197 65.1446 123.902 64.2749C123.683 63.6037 124.197 62.6867 125.054 62.2518L126.605 61.4482Z" fill="#E84C6D"/>
<path d="M50.8523 54.7073C51.1665 55.2178 50.7762 56.0875 49.9861 56.6452C49.1865 57.2125 48.3488 57.2881 48.0917 56.8249C47.4444 55.6148 50.1384 53.5539 50.8523 54.7073Z" fill="#E84C6D"/>
<path d="M65.6822 51.0494L66.6341 52.9402L65.6822 53.8855C63.9783 51.6734 63.7879 50.728 64.1591 50.3593C64.5304 49.9906 65.0254 49.9906 65.2539 50.3688L65.6822 51.0494Z" fill="#E84C6D"/>
<path d="M106.615 46.3224L109.471 43.4863C110.575 44.3088 110.366 45.1596 109.709 45.9064L108.519 47.2677L106.615 46.3224Z" fill="#E84C6D"/>
<path d="M72.1754 39.2135C72.5181 39.5632 72.0993 40.2439 71.233 40.7166C70.3668 41.1987 69.4053 41.5958 69.1007 41.5958C68.7866 41.5958 68.5391 41.2932 68.5391 40.9246C68.5391 39.8847 71.4615 38.5139 72.1754 39.2135Z" fill="#E84C6D"/>
<path d="M91.3848 34.9785H95.1925V36.8692H91.3848V34.9785Z" fill="#E84C6D"/>
<path d="M84.722 143.855C85.2456 144.025 85.6739 144.489 85.6739 144.876C85.6739 145.264 85.0361 145.585 84.246 145.585C83.4655 145.585 82.6183 145.264 82.3708 144.876C81.8472 144.044 83.3417 143.392 84.722 143.855Z" fill="#E84C6D"/>
<path d="M74.0114 141.482C74.9157 140.924 77.1051 142.03 77.1051 143.042C77.1051 143.401 76.6767 143.694 76.1532 143.694C75.6296 143.694 74.7539 143.306 74.2017 142.834C73.6496 142.361 73.564 141.747 74.0114 141.482Z" fill="#E84C6D"/>
<path d="M59.9903 133.881C60.5044 134.392 60.9232 135.11 60.9232 135.47C60.9232 135.838 60.4948 136.131 59.9713 136.131C59.4477 136.131 58.7719 135.668 58.4672 135.101C57.6962 133.673 58.848 132.747 59.9903 133.881Z" fill="#E84C6D"/>
<path d="M126.368 131.801C126.691 132.123 126.53 132.803 126.016 133.314C125.502 133.824 124.788 134.24 124.416 134.24C124.055 134.24 123.75 133.843 123.75 133.352C123.75 132.17 125.625 131.064 126.368 131.801Z" fill="#E84C6D"/>
<path d="M66.6348 127.623C67.8247 126.262 68.4625 126.044 68.8337 126.271L69.4905 126.678C68.6052 129.608 68.2816 129.712 67.5677 128.805L66.6348 127.623Z" fill="#E84C6D"/>
<path d="M133.032 125.184C133.356 125.506 133.194 126.186 132.68 126.697C132.166 127.207 131.452 127.623 131.08 127.623C130.719 127.623 130.414 127.226 130.414 126.735C130.414 125.553 132.289 124.447 133.032 125.184Z" fill="#E84C6D"/>
<path d="M60.9238 126.678L62.8277 124.787L63.7796 125.732L61.8758 127.623L60.9238 126.678Z" fill="#E84C6D"/>
<path d="M80.9134 124.003C81.437 124.173 81.8653 124.636 81.8653 125.024C81.8653 125.411 81.2275 125.733 80.4375 125.733C79.6569 125.733 78.8097 125.411 78.5622 125.024C78.0386 124.192 79.5331 123.539 80.9134 124.003Z" fill="#E84C6D"/>
<path d="M46.1397 120.249C46.4919 119.89 47.2344 120.391 47.777 121.365C48.3196 122.329 48.5099 123.284 48.1863 123.482C47.8626 123.681 47.1201 123.18 46.5395 122.367C45.9588 121.563 45.7779 120.608 46.1397 120.249Z" fill="#E84C6D"/>
<path d="M42.9414 113.169C43.5221 113.746 43.8457 114.681 43.6553 115.249C43.465 115.816 42.989 116.279 42.5987 116.279C42.2084 116.279 41.8848 115.343 41.8848 114.199C41.8848 112.677 42.1703 112.403 42.9414 113.169Z" fill="#E84C6D"/>
<path d="M48.5488 114.388L50.4527 111.552L51.4046 112.497V113.442L48.5488 114.388Z" fill="#23284C"/>
<path d="M142.551 111.004C142.875 111.325 142.713 112.006 142.199 112.516C141.685 113.027 140.971 113.443 140.6 113.443C140.238 113.443 139.934 113.045 139.934 112.554C139.934 111.372 141.809 110.266 142.551 111.004Z" fill="#E84C6D"/>
<path d="M44.7402 76.5743L45.6922 75.6289L48.5479 76.5743L46.6441 77.5196L44.7402 76.5743Z" fill="#E84C6D"/>
<path d="M122.816 70.5425C123.331 71.053 123.749 71.7715 123.749 72.1307C123.749 72.4994 123.321 72.7925 122.797 72.7925C122.274 72.7925 121.598 72.3292 121.293 71.762C120.522 70.3345 121.674 69.4081 122.816 70.5425Z" fill="#E84C6D"/>
<path d="M136.668 59.6519C137.382 58.9429 138.962 61.6561 138.391 62.5825C138.125 62.9985 137.725 63.3388 137.496 63.3388C137.268 63.3388 136.868 62.6204 136.62 61.7506C136.363 60.8714 136.392 59.9261 136.668 59.6519Z" fill="#E84C6D"/>
<path d="M71.1569 59.9547C71.4805 60.2761 71.3187 60.9568 70.8046 61.4673C70.2906 61.9778 69.5767 62.3937 69.2054 62.3937C68.8437 62.3937 68.5391 61.9967 68.5391 61.5051C68.5391 60.3234 70.4144 59.2173 71.1569 59.9547Z" fill="#E84C6D"/>
<path d="M126.605 61.4486C128.709 58.8961 129.671 58.5085 130.099 58.9434C130.537 59.3782 130.137 60.1156 129.223 60.5883L127.557 61.4486H126.605Z" fill="#E84C6D"/>
<path d="M122.799 58.6123L125.655 57.667L123.751 60.5031L122.799 58.6123Z" fill="#E84C6D"/>
<path d="M61.875 57.667L62.8269 56.7217C64.3024 57.5063 64.7213 58.4611 64.7022 59.3592C64.6832 60.8718 64.588 60.8718 63.2743 59.3214L61.875 57.667Z" fill="#E84C6D"/>
<path d="M57.1147 58.6117H55.2109C53.1167 57.8176 53.1547 57.5624 54.1638 57.0897C54.8872 56.7494 55.8582 56.9574 56.3056 57.5435L57.1147 58.6117Z" fill="#E84C6D"/>
<path d="M65.6836 53.8848L66.6355 52.9395H67.5874C68.6917 56.7776 67.5874 57.5244 66.5498 55.5392L65.6836 53.8848Z" fill="#E84C6D"/>
<path d="M56.8776 48.61C57.2012 48.9314 57.0394 49.612 56.5253 50.1225C56.0113 50.633 55.2974 51.049 54.9261 51.049C54.5644 51.049 54.2598 50.6519 54.2598 50.1604C54.2598 48.9787 56.1351 47.8726 56.8776 48.61Z" fill="#E84C6D"/>
<path d="M68.5391 49.1582H67.5872C64.4173 48.0427 64.4364 47.9387 66.1498 47.5133C67.1874 47.2581 68.1489 47.5228 68.2916 48.0994L68.5391 49.1582Z" fill="#E84C6D"/>
<path d="M92.3938 143.836C93.5456 143.448 94.8022 144.403 94.0787 145.112C93.8217 145.367 93.1077 145.584 92.4985 145.584C91.8893 145.584 91.3848 145.263 91.3848 144.875C91.3848 144.488 91.8417 144.015 92.3938 143.836Z" fill="#E84C6D"/>
<path d="M111.28 140.452C111.528 140.698 111.299 141.312 110.785 141.823C110.271 142.333 109.557 142.749 109.186 142.749C108.824 142.749 108.52 142.456 108.52 142.097C108.52 141.218 110.728 139.904 111.28 140.452Z" fill="#E84C6D"/>
<path d="M66.0253 138.315C66.3776 137.966 67.1867 138.192 67.834 138.835C68.4718 139.469 68.6812 140.187 68.2909 140.423C67.9006 140.66 67.0915 140.433 66.4823 139.903C65.873 139.384 65.6636 138.665 66.0253 138.315Z" fill="#E84C6D"/>
<path d="M116.134 130.459C115.163 128.663 115.382 128.02 115.982 127.878L117.086 127.623L118.038 128.568L116.134 130.459Z" fill="#E84C6D"/>
<path d="M72.898 120.807C74.0213 121.431 74.2022 121.913 73.4502 122.31C72.8409 122.631 71.9461 122.366 71.4606 121.724C70.2422 120.126 70.918 119.701 72.898 120.807Z" fill="#E84C6D"/>
<path d="M127.559 114.388L130.414 113.442L131.366 115.333L128.511 116.278L127.559 114.388Z" fill="#E84C6D"/>
<path d="M120.8 112.091C121.047 112.336 120.819 112.951 120.305 113.461C119.791 113.972 119.077 114.388 118.705 114.388C118.344 114.388 118.039 114.095 118.039 113.735C118.039 112.856 120.248 111.542 120.8 112.091Z" fill="#E84C6D"/>
<path d="M51.4043 113.442V112.497H52.3562H53.3081L54.2601 113.442L52.3562 114.388L51.4043 113.442Z" fill="#E84C6D"/>
<path d="M132.317 108.716L130.414 109.662C128.938 108.877 128.51 108.215 128.51 107.676C128.51 107.024 129.129 107.034 130.414 107.714L132.317 108.716Z" fill="#E84C6D"/>
<path d="M128.043 95.6513C128.405 96.0105 128.414 96.7574 128.072 97.3057C127.729 97.8634 127.044 98.3172 126.549 98.3172C126.006 98.3172 125.987 97.6743 126.52 96.6628C126.996 95.7553 127.681 95.3015 128.043 95.6513Z" fill="#E84C6D"/>
<path d="M36.9067 96.0101C37.6492 95.2727 39.039 97.5416 38.4393 98.5059C38.1728 98.9218 37.7729 99.2621 37.5445 99.2621C37.316 99.2621 36.9543 98.6571 36.7354 97.9197C36.5259 97.1729 36.6021 96.3126 36.9067 96.0101Z" fill="#E84C6D"/>
<path d="M56.8673 82.066C57.1148 82.7466 57.1243 83.4935 56.8958 83.7203C56.6674 83.9472 56.1914 84.1363 55.8487 84.1363C55.4965 84.1363 55.2109 83.6447 55.2109 83.0302C55.2109 81.3475 56.3628 80.6669 56.8673 82.066Z" fill="#E84C6D"/>
<path d="M38.7813 79.23C39.0288 79.9107 39.0384 80.6575 38.8099 80.8844C38.5814 81.1113 38.1055 81.3004 37.7628 81.3004C37.4106 81.3004 37.125 80.8088 37.125 80.1943C37.125 78.5116 38.2768 77.8309 38.7813 79.23Z" fill="#E84C6D"/>
<path d="M59.7228 73.5582C59.9703 74.2388 59.9798 74.9857 59.7513 75.2125C59.5228 75.4394 59.0469 75.6285 58.7042 75.6285C58.352 75.6285 58.0664 75.1369 58.0664 74.5224C58.0664 72.8397 59.2182 72.159 59.7228 73.5582Z" fill="#E84C6D"/>
<path d="M53.3086 71.8468V69.9561L54.2605 69.0107L55.2124 70.9015L53.3086 71.8468Z" fill="#E84C6D"/>
<path d="M56.1629 60.503L55.2109 58.6123H57.1148L59.0186 60.503H58.0667H56.1629Z" fill="#E84C6D"/>
<path d="M123.751 54.8311L125.654 56.7218C123.103 56.7218 122.684 56.3058 123.065 55.7764L123.751 54.8311Z" fill="#23284C"/>
<path d="M117.087 56.7209L115.184 54.8301C117.478 53.6106 118.791 55.681 117.678 56.3616L117.087 56.7209Z" fill="#E84C6D"/>
<path d="M75.2012 52.9396V51.0489L76.1531 49.1582L77.105 51.9943L75.2012 52.9396Z" fill="#E84C6D"/>
<path d="M104.711 50.1041C105.634 47.9771 105.92 47.9771 106.653 48.9224L107.567 50.1041H106.615H104.711Z" fill="#E84C6D"/>
<path d="M77.1062 51.9948L76.1543 49.1588C77.3061 47.2019 77.6583 47.5706 77.8868 49.0548C78.0677 50.2932 77.9725 51.4654 77.6679 51.6545L77.1062 51.9948Z" fill="#E84C6D"/>
<path d="M89.4805 41.5957H90.4324V47.2678L89.4805 41.5957Z" fill="#E84C6D"/>
<path d="M101.913 36.065C103.065 35.6774 104.322 36.6323 103.598 37.3413C103.341 37.5965 102.627 37.8139 102.018 37.8139C101.409 37.8139 100.904 37.4925 100.904 37.1049C100.904 36.7173 101.361 36.2447 101.913 36.065Z" fill="#E84C6D"/>
<path d="M116.135 137.549C116.135 137.294 116.868 137.076 117.753 137.076C118.829 137.076 119.057 137.388 118.419 138.022C117.896 138.541 117.172 138.967 116.801 138.967C116.439 138.967 116.135 138.749 116.135 138.494V137.549Z" fill="#E84C6D"/>
<path d="M53.5559 128.436C54.1937 129.069 54.4031 129.788 54.0128 130.024C53.6225 130.26 52.9086 129.93 52.4231 129.287C51.2047 127.689 52.109 126.999 53.5559 128.436Z" fill="#E84C6D"/>
<path d="M127.559 123.842L128.511 121.006V123.842H127.559Z" fill="#E84C6D"/>
<path d="M137.648 118.424C137.962 118.736 137.934 119.445 137.591 119.994C137.248 120.551 136.772 121.005 136.544 121.005C136.315 121.005 136.125 120.514 136.125 119.899C136.125 118.472 136.925 117.696 137.648 118.424Z" fill="#E84C6D"/>
<path d="M54.2598 117.224L56.1636 115.333V117.224H54.2598Z" fill="#E84C6D"/>
<path d="M65.2641 114.539C65.6354 114.199 66.1494 114.492 66.4065 115.21C66.6635 115.919 66.5968 116.657 66.2732 116.865C65.9495 117.063 65.4355 116.761 65.1309 116.193C64.8263 115.636 64.8834 114.889 65.2641 114.539Z" fill="#E84C6D"/>
<path d="M53.3074 109.662L52.3555 108.716C53.7548 106.882 54.1736 106.863 54.621 107.591C54.9733 108.158 54.8209 108.858 54.2879 109.142L53.3074 109.662Z" fill="#E84C6D"/>
<path d="M144.531 103.044C144.731 103.63 144.702 104.291 144.474 104.518C144.246 104.745 143.77 104.934 143.427 104.934C143.075 104.934 142.789 104.584 142.789 104.15C142.789 102.788 144.16 101.928 144.531 103.044Z" fill="#E84C6D"/>
<path d="M135.173 94.5352V95.4806C132.594 95.0457 132.127 94.5825 132.47 94.176C132.822 93.7695 133.574 93.6844 134.136 93.9869L135.173 94.5352Z" fill="#E84C6D"/>
<path d="M44.7402 92.6446L49.4998 91.6992V92.6446H44.7402Z" fill="#E84C6D"/>
<path d="M135.174 86.0274L138.982 85.082H139.933L135.174 86.0274Z" fill="#E84C6D"/>
<path d="M43.7876 84.1367H45.6914V85.0821C43.007 86.2827 42.7214 86.1409 43.1593 85.3184L43.7876 84.1367Z" fill="#E84C6D"/>
<path d="M144.645 76.527C145.121 77.2833 145.312 78.2381 145.055 78.654C144.788 79.07 144.388 79.4103 144.16 79.4103C143.931 79.4103 143.751 78.4555 143.76 77.2833C143.77 75.6194 143.96 75.4587 144.645 76.527Z" fill="#E84C6D"/>
<path d="M135.173 70.9017L134.221 69.9564C135.649 68.9354 136.401 69.0016 136.81 69.4459C137.219 69.8996 137.019 70.4101 136.363 70.5803L135.173 70.9017Z" fill="#E84C6D"/>
<path d="M142.008 68.8027C142.627 69.4172 142.912 70.1451 142.646 70.4098C142.379 70.684 141.865 70.9014 141.523 70.9014C141.17 70.9014 140.885 70.183 140.885 69.2943C140.885 68.0559 141.142 67.9425 142.008 68.8027Z" fill="#E84C6D"/>
<path d="M133.269 64.2842V63.3389C134.344 66.4018 134.192 67.1203 133.526 67.1203C132.935 67.1203 132.631 66.4774 132.859 65.7023L133.269 64.2842Z" fill="#E84C6D"/>
<path d="M131.366 64.2842L130.414 63.3389H133.27V64.2842H131.366Z" fill="#E84C6D"/>
<path d="M77.1055 56.249C77.1055 55.9938 77.8384 55.7764 78.7237 55.7764C79.7994 55.7764 80.0279 56.0883 79.3901 56.7217C78.8665 57.2417 78.1431 57.6671 77.7718 57.6671C77.4101 57.6671 77.1055 57.4591 77.1055 57.1944V56.249Z" fill="#E84C6D"/>
<path d="M113.279 54.8311H115.183L117.087 56.7218L113.279 54.8311Z" fill="#E84C6D"/>
<path d="M62.8271 56.721L61.8752 57.6663C60.771 54.7263 60.8757 54.6223 61.7324 55.5393L62.8271 56.721Z" fill="#E84C6D"/>
<path d="M88.5297 54.4144C88.5297 54.6413 87.6729 54.8303 86.6258 54.8303C85.2836 54.8303 85.0361 54.5562 85.7977 53.9039C86.7686 53.0625 88.5297 53.3934 88.5297 54.4144Z" fill="#E84C6D"/>
<path d="M99.9515 48.2129L100.903 49.1582C97.9429 50.2549 97.8382 50.1509 98.7616 49.3001L99.9515 48.2129Z" fill="#E84C6D"/>
<path d="M112.327 126.678V127.623C110.481 127.131 110.29 126.611 110.709 126.148C111.137 125.694 111.67 125.619 111.899 125.997L112.327 126.678Z" fill="#E84C6D"/>
<path d="M58.0664 123.842L59.0183 122.896H59.9703L59.0183 124.787L58.0664 123.842Z" fill="#E84C6D"/>
<path d="M125.653 121.005L124.701 119.114V118.169L126.605 119.114L125.653 121.005Z" fill="#E84C6D"/>
<path d="M130.414 109.661L132.318 108.716L133.27 110.607L130.414 109.661Z" fill="#E84C6D"/>
<path d="M45.6914 85.0821V84.1367L47.5953 86.0274L45.6914 85.0821Z" fill="#E84C6D"/>
<path d="M55.2109 64.2842H56.1629L58.0667 66.1749L55.2109 64.2842Z" fill="#E84C6D"/>
<path d="M106.615 50.1035H107.567L108.519 51.9942C107.577 53.0908 107.148 52.6654 106.958 51.7579L106.615 50.1035Z" fill="#E84C6D"/>
<path d="M100.903 49.1583L99.9512 48.213V46.3223H100.903L101.855 47.2676L100.903 49.1583Z" fill="#E84C6D"/>
</g>
<defs>
<clipPath id="clip0_318_596">
<rect width="198" height="173" fill="white"/>
</clipPath>
</defs>
</svg>
