<svg width="252" height="234" viewBox="0 0 252 234" fill="none" xmlns="http://www.w3.org/2000/svg">
<path d="M13.6138 190.455H15.8155V200.021C15.8155 201.039 15.5764 201.941 15.0982 202.727C14.62 203.509 13.9476 204.124 13.0811 204.574C12.2147 205.019 11.199 205.241 10.0343 205.241C8.87423 205.241 7.86097 205.019 6.9945 204.574C6.12802 204.124 5.45567 203.509 4.97745 202.727C4.49923 201.941 4.26012 201.039 4.26012 200.021V190.455H6.45472V199.844C6.45472 200.502 6.59914 201.087 6.88796 201.598C7.18152 202.109 7.59582 202.512 8.13086 202.805C8.6659 203.094 9.30037 203.239 10.0343 203.239C10.7729 203.239 11.4097 203.094 11.9448 202.805C12.4846 202.512 12.8965 202.109 13.1806 201.598C13.4694 201.087 13.6138 200.502 13.6138 199.844V190.455ZM30.7463 190.455V205H28.7292L21.3358 194.332H21.2008V205H19.0062V190.455H21.0375L28.438 201.136H28.573V190.455H30.7463ZM39.0701 205V194.091H41.1937V205H39.0701ZM40.1426 192.408C39.7733 192.408 39.456 192.285 39.1909 192.038C38.9305 191.787 38.8002 191.489 38.8002 191.143C38.8002 190.793 38.9305 190.495 39.1909 190.249C39.456 189.998 39.7733 189.872 40.1426 189.872C40.5119 189.872 40.8268 189.998 41.0872 190.249C41.3523 190.495 41.4849 190.793 41.4849 191.143C41.4849 191.489 41.3523 191.787 41.0872 192.038C40.8268 192.285 40.5119 192.408 40.1426 192.408ZM46.1742 198.523V205H44.0506V194.091H46.089V195.866H46.2239C46.4748 195.289 46.8678 194.825 47.4029 194.474C47.9426 194.124 48.6221 193.949 49.4412 193.949C50.1846 193.949 50.8356 194.105 51.3944 194.418C51.9531 194.725 52.3863 195.185 52.6941 195.795C53.0018 196.406 53.1557 197.161 53.1557 198.061V205H51.0321V198.317C51.0321 197.526 50.8262 196.908 50.4142 196.463C50.0023 196.013 49.4365 195.788 48.7168 195.788C48.2244 195.788 47.7864 195.895 47.4029 196.108C47.0241 196.321 46.7234 196.634 46.5009 197.045C46.2831 197.453 46.1742 197.945 46.1742 198.523ZM61.1955 194.091V195.795H55.0307V194.091H61.1955ZM56.7211 205V192.827C56.7211 192.145 56.8702 191.579 57.1685 191.129C57.4668 190.675 57.8622 190.336 58.3546 190.114C58.847 189.886 59.382 189.773 59.9597 189.773C60.3858 189.773 60.7504 189.808 61.0534 189.879C61.3565 189.946 61.5814 190.007 61.7282 190.064L61.231 191.783C61.1316 191.754 61.0037 191.721 60.8475 191.683C60.6912 191.641 60.5018 191.619 60.2793 191.619C59.7632 191.619 59.3939 191.747 59.1713 192.003C58.9535 192.259 58.8446 192.628 58.8446 193.111V205H56.7211ZM67.552 205.22C66.5293 205.22 65.6368 204.986 64.8745 204.517C64.1122 204.048 63.5203 203.393 63.0989 202.55C62.6775 201.707 62.4668 200.722 62.4668 199.595C62.4668 198.464 62.6775 197.474 63.0989 196.626C63.5203 195.779 64.1122 195.121 64.8745 194.652C65.6368 194.183 66.5293 193.949 67.552 193.949C68.5748 193.949 69.4673 194.183 70.2296 194.652C70.9919 195.121 71.5837 195.779 72.0051 196.626C72.4266 197.474 72.6373 198.464 72.6373 199.595C72.6373 200.722 72.4266 201.707 72.0051 202.55C71.5837 203.393 70.9919 204.048 70.2296 204.517C69.4673 204.986 68.5748 205.22 67.552 205.22ZM67.5591 203.438C68.222 203.438 68.7712 203.262 69.2069 202.912C69.6425 202.562 69.9644 202.095 70.1728 201.513C70.3858 200.93 70.4924 200.289 70.4924 199.588C70.4924 198.892 70.3858 198.253 70.1728 197.67C69.9644 197.083 69.6425 196.612 69.2069 196.257C68.7712 195.902 68.222 195.724 67.5591 195.724C66.8915 195.724 66.3375 195.902 65.8972 196.257C65.4616 196.612 65.1373 197.083 64.9242 197.67C64.7159 198.253 64.6117 198.892 64.6117 199.588C64.6117 200.289 64.7159 200.93 64.9242 201.513C65.1373 202.095 65.4616 202.562 65.8972 202.912C66.3375 203.262 66.8915 203.438 67.5591 203.438ZM75.0076 205V194.091H77.0602V195.824H77.1738C77.3727 195.237 77.7231 194.775 78.225 194.439C78.7316 194.098 79.3045 193.928 79.9437 193.928C80.0763 193.928 80.2325 193.932 80.4125 193.942C80.5971 193.951 80.7415 193.963 80.8457 193.977V196.009C80.7605 195.985 80.609 195.959 80.3912 195.93C80.1734 195.897 79.9556 195.881 79.7377 195.881C79.2359 195.881 78.7884 195.987 78.3954 196.2C78.0072 196.409 77.6994 196.7 77.4721 197.074C77.2449 197.443 77.1312 197.865 77.1312 198.338V205H75.0076ZM82.6834 205V194.091H84.7218V195.866H84.8567C85.084 195.265 85.4557 194.796 85.9718 194.46C86.4879 194.119 87.1058 193.949 87.8255 193.949C88.5546 193.949 89.1654 194.119 89.6578 194.46C90.155 194.801 90.522 195.27 90.7587 195.866H90.8723C91.1328 195.284 91.5471 194.82 92.1152 194.474C92.6834 194.124 93.3605 193.949 94.1465 193.949C95.1361 193.949 95.9434 194.259 96.5684 194.879C97.1981 195.5 97.513 196.435 97.513 197.685V205H95.3894V197.884C95.3894 197.145 95.1882 196.61 94.7857 196.278C94.3832 195.947 93.9026 195.781 93.3439 195.781C92.6526 195.781 92.1152 195.994 91.7317 196.42C91.3482 196.842 91.1564 197.384 91.1564 198.047V205H89.04V197.749C89.04 197.157 88.8553 196.681 88.486 196.321C88.1167 195.961 87.6361 195.781 87.0442 195.781C86.6417 195.781 86.2701 195.888 85.9292 196.101C85.593 196.309 85.3207 196.6 85.1124 196.974C84.9088 197.348 84.807 197.782 84.807 198.274V205H82.6834ZM103.534 205.241C102.843 205.241 102.218 205.114 101.659 204.858C101.1 204.598 100.657 204.221 100.331 203.729C100.009 203.236 99.8478 202.633 99.8478 201.918C99.8478 201.302 99.9662 200.795 100.203 200.398C100.44 200 100.759 199.685 101.162 199.453C101.564 199.221 102.014 199.046 102.511 198.928C103.008 198.809 103.515 198.719 104.031 198.658C104.684 198.582 105.215 198.52 105.622 198.473C106.029 198.421 106.325 198.338 106.51 198.224C106.694 198.111 106.787 197.926 106.787 197.67V197.621C106.787 197 106.612 196.52 106.261 196.179C105.916 195.838 105.399 195.668 104.713 195.668C103.998 195.668 103.434 195.826 103.023 196.143C102.615 196.456 102.334 196.804 102.177 197.188L100.182 196.733C100.418 196.07 100.764 195.535 101.219 195.128C101.678 194.716 102.206 194.418 102.802 194.233C103.399 194.044 104.026 193.949 104.684 193.949C105.12 193.949 105.582 194.001 106.069 194.105C106.562 194.205 107.021 194.389 107.447 194.659C107.878 194.929 108.231 195.315 108.506 195.817C108.78 196.314 108.917 196.96 108.917 197.756V205H106.844V203.509H106.758C106.621 203.783 106.415 204.053 106.14 204.318C105.866 204.583 105.513 204.804 105.082 204.979C104.651 205.154 104.135 205.241 103.534 205.241ZM103.996 203.537C104.583 203.537 105.085 203.421 105.501 203.189C105.923 202.957 106.242 202.654 106.46 202.28C106.683 201.901 106.794 201.496 106.794 201.065V199.659C106.718 199.735 106.571 199.806 106.354 199.872C106.14 199.934 105.897 199.988 105.622 200.036C105.347 200.078 105.08 200.118 104.819 200.156C104.559 200.189 104.341 200.218 104.166 200.241C103.754 200.294 103.378 200.381 103.037 200.504C102.701 200.627 102.431 200.805 102.227 201.037C102.028 201.264 101.929 201.567 101.929 201.946C101.929 202.472 102.123 202.869 102.511 203.139C102.899 203.404 103.394 203.537 103.996 203.537ZM116.838 194.091V195.795H110.879V194.091H116.838ZM112.477 191.477H114.601V201.797C114.601 202.209 114.663 202.519 114.786 202.727C114.909 202.931 115.067 203.071 115.262 203.146C115.46 203.217 115.676 203.253 115.908 203.253C116.078 203.253 116.227 203.241 116.355 203.217C116.483 203.194 116.583 203.175 116.654 203.161L117.037 204.915C116.914 204.962 116.739 205.009 116.512 205.057C116.284 205.109 116 205.137 115.659 205.142C115.101 205.152 114.58 205.052 114.097 204.844C113.614 204.635 113.223 204.313 112.925 203.878C112.627 203.442 112.477 202.895 112.477 202.237V191.477ZM119.187 205V194.091H121.311V205H119.187ZM120.26 192.408C119.89 192.408 119.573 192.285 119.308 192.038C119.048 191.787 118.917 191.489 118.917 191.143C118.917 190.793 119.048 190.495 119.308 190.249C119.573 189.998 119.89 189.872 120.26 189.872C120.629 189.872 120.944 189.998 121.204 190.249C121.47 190.495 121.602 190.793 121.602 191.143C121.602 191.489 121.47 191.787 121.204 192.038C120.944 192.285 120.629 192.408 120.26 192.408ZM128.763 205.22C127.74 205.22 126.848 204.986 126.085 204.517C125.323 204.048 124.731 203.393 124.31 202.55C123.888 201.707 123.678 200.722 123.678 199.595C123.678 198.464 123.888 197.474 124.31 196.626C124.731 195.779 125.323 195.121 126.085 194.652C126.848 194.183 127.74 193.949 128.763 193.949C129.786 193.949 130.678 194.183 131.441 194.652C132.203 195.121 132.795 195.779 133.216 196.626C133.637 197.474 133.848 198.464 133.848 199.595C133.848 200.722 133.637 201.707 133.216 202.55C132.795 203.393 132.203 204.048 131.441 204.517C130.678 204.986 129.786 205.22 128.763 205.22ZM128.77 203.438C129.433 203.438 129.982 203.262 130.418 202.912C130.853 202.562 131.175 202.095 131.384 201.513C131.597 200.93 131.703 200.289 131.703 199.588C131.703 198.892 131.597 198.253 131.384 197.67C131.175 197.083 130.853 196.612 130.418 196.257C129.982 195.902 129.433 195.724 128.77 195.724C128.102 195.724 127.548 195.902 127.108 196.257C126.673 196.612 126.348 197.083 126.135 197.67C125.927 198.253 125.823 198.892 125.823 199.588C125.823 200.289 125.927 200.93 126.135 201.513C126.348 202.095 126.673 202.562 127.108 202.912C127.548 203.262 128.102 203.438 128.77 203.438ZM138.342 198.523V205H136.219V194.091H138.257V195.866H138.392C138.643 195.289 139.036 194.825 139.571 194.474C140.111 194.124 140.79 193.949 141.609 193.949C142.353 193.949 143.004 194.105 143.562 194.418C144.121 194.725 144.554 195.185 144.862 195.795C145.17 196.406 145.324 197.161 145.324 198.061V205H143.2V198.317C143.2 197.526 142.994 196.908 142.582 196.463C142.17 196.013 141.604 195.788 140.885 195.788C140.392 195.788 139.954 195.895 139.571 196.108C139.192 196.321 138.891 196.634 138.669 197.045C138.451 197.453 138.342 197.945 138.342 198.523ZM165.716 195.185H163.5C163.415 194.711 163.256 194.295 163.024 193.935C162.792 193.575 162.508 193.269 162.172 193.018C161.836 192.768 161.459 192.578 161.043 192.45C160.631 192.322 160.193 192.259 159.729 192.259C158.891 192.259 158.14 192.469 157.477 192.891C156.819 193.312 156.298 193.93 155.915 194.744C155.536 195.559 155.347 196.553 155.347 197.727C155.347 198.911 155.536 199.91 155.915 200.724C156.298 201.539 156.822 202.154 157.485 202.571C158.147 202.988 158.893 203.196 159.722 203.196C160.181 203.196 160.617 203.134 161.029 203.011C161.445 202.884 161.822 202.696 162.158 202.45C162.494 202.204 162.778 201.903 163.01 201.548C163.247 201.188 163.41 200.777 163.5 200.312L165.716 200.32C165.598 201.035 165.368 201.693 165.027 202.294C164.691 202.891 164.258 203.407 163.727 203.842C163.202 204.273 162.601 204.607 161.923 204.844C161.246 205.08 160.508 205.199 159.708 205.199C158.448 205.199 157.326 204.901 156.341 204.304C155.356 203.703 154.58 202.843 154.012 201.726C153.448 200.608 153.166 199.276 153.166 197.727C153.166 196.174 153.45 194.841 154.019 193.729C154.587 192.611 155.363 191.754 156.348 191.158C157.333 190.556 158.453 190.256 159.708 190.256C160.479 190.256 161.199 190.367 161.867 190.589C162.539 190.807 163.143 191.129 163.678 191.555C164.213 191.977 164.655 192.493 165.006 193.104C165.356 193.71 165.593 194.403 165.716 195.185ZM172.873 205.22C171.799 205.22 170.873 204.991 170.096 204.531C169.325 204.067 168.728 203.416 168.307 202.578C167.89 201.735 167.682 200.748 167.682 199.616C167.682 198.499 167.89 197.514 168.307 196.662C168.728 195.81 169.315 195.144 170.068 194.666C170.826 194.188 171.711 193.949 172.724 193.949C173.34 193.949 173.936 194.051 174.514 194.254C175.092 194.458 175.61 194.777 176.069 195.213C176.529 195.649 176.891 196.214 177.156 196.911C177.421 197.602 177.554 198.442 177.554 199.432V200.185H168.882V198.594H175.473C175.473 198.035 175.359 197.54 175.132 197.109C174.905 196.674 174.585 196.33 174.173 196.08C173.766 195.829 173.288 195.703 172.738 195.703C172.142 195.703 171.621 195.85 171.176 196.143C170.736 196.432 170.395 196.811 170.153 197.28C169.916 197.744 169.798 198.248 169.798 198.793V200.036C169.798 200.765 169.926 201.385 170.182 201.896C170.442 202.408 170.804 202.798 171.268 203.068C171.732 203.333 172.274 203.466 172.895 203.466C173.297 203.466 173.664 203.409 173.996 203.295C174.327 203.177 174.613 203.002 174.855 202.77C175.096 202.538 175.281 202.251 175.409 201.911L177.419 202.273C177.258 202.865 176.969 203.383 176.552 203.828C176.14 204.268 175.622 204.612 174.997 204.858C174.377 205.099 173.669 205.22 172.873 205.22ZM182.034 198.523V205H179.91V194.091H181.948V195.866H182.083C182.334 195.289 182.727 194.825 183.262 194.474C183.802 194.124 184.481 193.949 185.301 193.949C186.044 193.949 186.695 194.105 187.254 194.418C187.812 194.725 188.246 195.185 188.553 195.795C188.861 196.406 189.015 197.161 189.015 198.061V205H186.892V198.317C186.892 197.526 186.686 196.908 186.274 196.463C185.862 196.013 185.296 195.788 184.576 195.788C184.084 195.788 183.646 195.895 183.262 196.108C182.883 196.321 182.583 196.634 182.36 197.045C182.142 197.453 182.034 197.945 182.034 198.523ZM196.955 194.091V195.795H190.997V194.091H196.955ZM192.595 191.477H194.718V201.797C194.718 202.209 194.78 202.519 194.903 202.727C195.026 202.931 195.185 203.071 195.379 203.146C195.578 203.217 195.793 203.253 196.025 203.253C196.195 203.253 196.345 203.241 196.472 203.217C196.6 203.194 196.7 203.175 196.771 203.161L197.154 204.915C197.031 204.962 196.856 205.009 196.629 205.057C196.401 205.109 196.117 205.137 195.776 205.142C195.218 205.152 194.697 205.052 194.214 204.844C193.731 204.635 193.34 204.313 193.042 203.878C192.744 203.442 192.595 202.895 192.595 202.237V191.477ZM199.305 205V194.091H201.357V195.824H201.471C201.67 195.237 202.02 194.775 202.522 194.439C203.028 194.098 203.601 193.928 204.241 193.928C204.373 193.928 204.529 193.932 204.709 193.942C204.894 193.951 205.038 193.963 205.143 193.977V196.009C205.057 195.985 204.906 195.959 204.688 195.93C204.47 195.897 204.252 195.881 204.035 195.881C203.533 195.881 203.085 195.987 202.692 196.2C202.304 196.409 201.996 196.7 201.769 197.074C201.542 197.443 201.428 197.865 201.428 198.338V205H199.305ZM211.291 205.22C210.217 205.22 209.291 204.991 208.514 204.531C207.743 204.067 207.146 203.416 206.725 202.578C206.308 201.735 206.1 200.748 206.1 199.616C206.1 198.499 206.308 197.514 206.725 196.662C207.146 195.81 207.733 195.144 208.486 194.666C209.244 194.188 210.129 193.949 211.142 193.949C211.758 193.949 212.354 194.051 212.932 194.254C213.51 194.458 214.028 194.777 214.487 195.213C214.947 195.649 215.309 196.214 215.574 196.911C215.839 197.602 215.972 198.442 215.972 199.432V200.185H207.3V198.594H213.891C213.891 198.035 213.777 197.54 213.55 197.109C213.323 196.674 213.003 196.33 212.591 196.08C212.184 195.829 211.706 195.703 211.156 195.703C210.56 195.703 210.039 195.85 209.594 196.143C209.154 196.432 208.813 196.811 208.571 197.28C208.334 197.744 208.216 198.248 208.216 198.793V200.036C208.216 200.765 208.344 201.385 208.6 201.896C208.86 202.408 209.222 202.798 209.686 203.068C210.15 203.333 210.692 203.466 211.313 203.466C211.715 203.466 212.082 203.409 212.414 203.295C212.745 203.177 213.031 203.002 213.273 202.77C213.514 202.538 213.699 202.251 213.827 201.911L215.837 202.273C215.676 202.865 215.387 203.383 214.97 203.828C214.558 204.268 214.04 204.612 213.415 204.858C212.795 205.099 212.087 205.22 211.291 205.22ZM228.813 194.091V195.795H222.648V194.091H228.813ZM224.338 205V192.827C224.338 192.145 224.487 191.579 224.786 191.129C225.084 190.675 225.479 190.336 225.972 190.114C226.464 189.886 226.999 189.773 227.577 189.773C228.003 189.773 228.368 189.808 228.671 189.879C228.974 189.946 229.199 190.007 229.345 190.064L228.848 191.783C228.749 191.754 228.621 191.721 228.465 191.683C228.308 191.641 228.119 191.619 227.896 191.619C227.38 191.619 227.011 191.747 226.789 192.003C226.571 192.259 226.462 192.628 226.462 193.111V205H224.338ZM235.169 205.22C234.146 205.22 233.254 204.986 232.492 204.517C231.729 204.048 231.137 203.393 230.716 202.55C230.295 201.707 230.084 200.722 230.084 199.595C230.084 198.464 230.295 197.474 230.716 196.626C231.137 195.779 231.729 195.121 232.492 194.652C233.254 194.183 234.146 193.949 235.169 193.949C236.192 193.949 237.084 194.183 237.847 194.652C238.609 195.121 239.201 195.779 239.622 196.626C240.044 197.474 240.254 198.464 240.254 199.595C240.254 200.722 240.044 201.707 239.622 202.55C239.201 203.393 238.609 204.048 237.847 204.517C237.084 204.986 236.192 205.22 235.169 205.22ZM235.176 203.438C235.839 203.438 236.388 203.262 236.824 202.912C237.26 202.562 237.582 202.095 237.79 201.513C238.003 200.93 238.11 200.289 238.11 199.588C238.11 198.892 238.003 198.253 237.79 197.67C237.582 197.083 237.26 196.612 236.824 196.257C236.388 195.902 235.839 195.724 235.176 195.724C234.509 195.724 233.955 195.902 233.514 196.257C233.079 196.612 232.754 197.083 232.541 197.67C232.333 198.253 232.229 198.892 232.229 199.588C232.229 200.289 232.333 200.93 232.541 201.513C232.754 202.095 233.079 202.562 233.514 202.912C233.955 203.262 234.509 203.438 235.176 203.438ZM242.625 205V194.091H244.677V195.824H244.791C244.99 195.237 245.34 194.775 245.842 194.439C246.349 194.098 246.922 193.928 247.561 193.928C247.693 193.928 247.85 193.932 248.03 193.942C248.214 193.951 248.359 193.963 248.463 193.977V196.009C248.378 195.985 248.226 195.959 248.008 195.93C247.791 195.897 247.573 195.881 247.355 195.881C246.853 195.881 246.406 195.987 246.013 196.2C245.624 196.409 245.317 196.7 245.089 197.074C244.862 197.443 244.748 197.865 244.748 198.338V205H242.625ZM49.3258 214.455V229H47.1312V214.455H49.3258ZM54.475 222.523V229H52.3514V218.091H54.3897V219.866H54.5247C54.7756 219.289 55.1686 218.825 55.7037 218.474C56.2434 218.124 56.9229 217.949 57.742 217.949C58.4854 217.949 59.1364 218.105 59.6951 218.418C60.2538 218.725 60.6871 219.185 60.9949 219.795C61.3026 220.406 61.4565 221.161 61.4565 222.061V229H59.3329V222.317C59.3329 221.526 59.127 220.908 58.715 220.463C58.3031 220.013 57.7373 219.788 57.0176 219.788C56.5252 219.788 56.0872 219.895 55.7037 220.108C55.3249 220.321 55.0242 220.634 54.8017 221.045C54.5839 221.453 54.475 221.945 54.475 222.523ZM68.3883 229.213C67.5076 229.213 66.7217 228.988 66.0304 228.538C65.3438 228.084 64.804 227.437 64.411 226.599C64.0228 225.757 63.8287 224.746 63.8287 223.567C63.8287 222.388 64.0252 221.379 64.4181 220.541C64.8159 219.703 65.3604 219.062 66.0517 218.616C66.743 218.171 67.5266 217.949 68.4025 217.949C69.0796 217.949 69.6241 218.062 70.036 218.29C70.4527 218.512 70.7747 218.773 71.002 219.071C71.234 219.369 71.4139 219.632 71.5417 219.859H71.6696V214.455H73.7931V229H71.7193V227.303H71.5417C71.4139 227.535 71.2292 227.8 70.9877 228.098C70.751 228.396 70.4243 228.657 70.0076 228.879C69.591 229.102 69.0512 229.213 68.3883 229.213ZM68.8571 227.402C69.4679 227.402 69.984 227.241 70.4054 226.919C70.8315 226.592 71.1535 226.14 71.3713 225.562C71.5938 224.985 71.7051 224.312 71.7051 223.545C71.7051 222.788 71.5962 222.125 71.3784 221.557C71.1606 220.989 70.841 220.546 70.4196 220.229C69.9982 219.911 69.4773 219.753 68.8571 219.753C68.2179 219.753 67.6852 219.919 67.2591 220.25C66.8329 220.581 66.5109 221.034 66.2931 221.607C66.0801 222.179 65.9735 222.826 65.9735 223.545C65.9735 224.275 66.0824 224.93 66.3002 225.513C66.5181 226.095 66.84 226.557 67.2662 226.898C67.697 227.234 68.2273 227.402 68.8571 227.402ZM76.824 229V218.091H78.9476V229H76.824ZM77.8965 216.408C77.5272 216.408 77.2099 216.285 76.9448 216.038C76.6844 215.787 76.5542 215.489 76.5542 215.143C76.5542 214.793 76.6844 214.495 76.9448 214.249C77.2099 213.998 77.5272 213.872 77.8965 213.872C78.2658 213.872 78.5807 213.998 78.8411 214.249C79.1062 214.495 79.2388 214.793 79.2388 215.143C79.2388 215.489 79.1062 215.787 78.8411 216.038C78.5807 216.285 78.2658 216.408 77.8965 216.408ZM84.9792 229.241C84.2879 229.241 83.6629 229.114 83.1042 228.858C82.5455 228.598 82.1028 228.221 81.7761 227.729C81.4541 227.236 81.2931 226.633 81.2931 225.918C81.2931 225.302 81.4115 224.795 81.6483 224.398C81.885 224 82.2046 223.685 82.6071 223.453C83.0095 223.221 83.4593 223.046 83.9565 222.928C84.4537 222.809 84.9603 222.719 85.4764 222.658C86.1298 222.582 86.6601 222.52 87.0673 222.473C87.4745 222.421 87.7704 222.338 87.9551 222.224C88.1397 222.111 88.2321 221.926 88.2321 221.67V221.621C88.2321 221 88.0569 220.52 87.7065 220.179C87.3609 219.838 86.8448 219.668 86.1582 219.668C85.4432 219.668 84.8798 219.826 84.4679 220.143C84.0607 220.456 83.7789 220.804 83.6227 221.188L81.627 220.733C81.8637 220.07 82.2093 219.535 82.6639 219.128C83.1232 218.716 83.6511 218.418 84.2477 218.233C84.8443 218.044 85.4717 217.949 86.1298 217.949C86.5654 217.949 87.027 218.001 87.5147 218.105C88.0072 218.205 88.4664 218.389 88.8926 218.659C89.3234 218.929 89.6762 219.315 89.9508 219.817C90.2254 220.314 90.3627 220.96 90.3627 221.756V229H88.2889V227.509H88.2037C88.0663 227.783 87.8604 228.053 87.5858 228.318C87.3111 228.583 86.9584 228.804 86.5275 228.979C86.0967 229.154 85.5806 229.241 84.9792 229.241ZM85.4409 227.537C86.028 227.537 86.5299 227.421 86.9466 227.189C87.368 226.957 87.6876 226.654 87.9054 226.28C88.1279 225.901 88.2392 225.496 88.2392 225.065V223.659C88.1634 223.735 88.0166 223.806 87.7988 223.872C87.5858 223.934 87.3419 223.988 87.0673 224.036C86.7927 224.078 86.5252 224.118 86.2647 224.156C86.0043 224.189 85.7865 224.218 85.6113 224.241C85.1994 224.294 84.823 224.381 84.4821 224.504C84.1459 224.627 83.876 224.805 83.6724 225.037C83.4735 225.264 83.3741 225.567 83.3741 225.946C83.3741 226.472 83.5682 226.869 83.9565 227.139C84.3448 227.404 84.8395 227.537 85.4409 227.537ZM101.659 229.241C100.968 229.241 100.343 229.114 99.7839 228.858C99.2252 228.598 98.7825 228.221 98.4558 227.729C98.1338 227.236 97.9728 226.633 97.9728 225.918C97.9728 225.302 98.0912 224.795 98.3279 224.398C98.5647 224 98.8843 223.685 99.2868 223.453C99.6892 223.221 100.139 223.046 100.636 222.928C101.133 222.809 101.64 222.719 102.156 222.658C102.809 222.582 103.34 222.52 103.747 222.473C104.154 222.421 104.45 222.338 104.635 222.224C104.819 222.111 104.912 221.926 104.912 221.67V221.621C104.912 221 104.737 220.52 104.386 220.179C104.041 219.838 103.524 219.668 102.838 219.668C102.123 219.668 101.559 219.826 101.148 220.143C100.74 220.456 100.459 220.804 100.302 221.188L98.3066 220.733C98.5434 220.07 98.889 219.535 99.3436 219.128C99.8029 218.716 100.331 218.418 100.927 218.233C101.524 218.044 102.151 217.949 102.809 217.949C103.245 217.949 103.707 218.001 104.194 218.105C104.687 218.205 105.146 218.389 105.572 218.659C106.003 218.929 106.356 219.315 106.631 219.817C106.905 220.314 107.042 220.96 107.042 221.756V229H104.969V227.509H104.883C104.746 227.783 104.54 228.053 104.265 228.318C103.991 228.583 103.638 228.804 103.207 228.979C102.776 229.154 102.26 229.241 101.659 229.241ZM102.121 227.537C102.708 227.537 103.21 227.421 103.626 227.189C104.048 226.957 104.367 226.654 104.585 226.28C104.808 225.901 104.919 225.496 104.919 225.065V223.659C104.843 223.735 104.696 223.806 104.479 223.872C104.265 223.934 104.022 223.988 103.747 224.036C103.472 224.078 103.205 224.118 102.944 224.156C102.684 224.189 102.466 224.218 102.291 224.241C101.879 224.294 101.503 224.381 101.162 224.504C100.826 224.627 100.556 224.805 100.352 225.037C100.153 225.264 100.054 225.567 100.054 225.946C100.054 226.472 100.248 226.869 100.636 227.139C101.024 227.404 101.519 227.537 102.121 227.537ZM111.994 222.523V229H109.871V218.091H111.909V219.866H112.044C112.295 219.289 112.688 218.825 113.223 218.474C113.763 218.124 114.442 217.949 115.262 217.949C116.005 217.949 116.656 218.105 117.215 218.418C117.773 218.725 118.207 219.185 118.514 219.795C118.822 220.406 118.976 221.161 118.976 222.061V229H116.852V222.317C116.852 221.526 116.646 220.908 116.235 220.463C115.823 220.013 115.257 219.788 114.537 219.788C114.045 219.788 113.607 219.895 113.223 220.108C112.844 220.321 112.544 220.634 112.321 221.045C112.103 221.453 111.994 221.945 111.994 222.523ZM125.908 229.213C125.027 229.213 124.241 228.988 123.55 228.538C122.863 228.084 122.324 227.437 121.931 226.599C121.542 225.757 121.348 224.746 121.348 223.567C121.348 222.388 121.545 221.379 121.938 220.541C122.335 219.703 122.88 219.062 123.571 218.616C124.262 218.171 125.046 217.949 125.922 217.949C126.599 217.949 127.144 218.062 127.556 218.29C127.972 218.512 128.294 218.773 128.521 219.071C128.753 219.369 128.933 219.632 129.061 219.859H129.189V214.455H131.313V229H129.239V227.303H129.061C128.933 227.535 128.749 227.8 128.507 228.098C128.271 228.396 127.944 228.657 127.527 228.879C127.11 229.102 126.571 229.213 125.908 229.213ZM126.377 227.402C126.987 227.402 127.503 227.241 127.925 226.919C128.351 226.592 128.673 226.14 128.891 225.562C129.113 224.985 129.225 224.312 129.225 223.545C129.225 222.788 129.116 222.125 128.898 221.557C128.68 220.989 128.36 220.546 127.939 220.229C127.518 219.911 126.997 219.753 126.377 219.753C125.737 219.753 125.205 219.919 124.779 220.25C124.352 220.581 124.03 221.034 123.813 221.607C123.6 222.179 123.493 222.826 123.493 223.545C123.493 224.275 123.602 224.93 123.82 225.513C124.038 226.095 124.36 226.557 124.786 226.898C125.217 227.234 125.747 227.402 126.377 227.402ZM139.807 229V214.455H145.134C146.166 214.455 147.021 214.625 147.698 214.966C148.375 215.302 148.881 215.759 149.218 216.337C149.554 216.91 149.722 217.556 149.722 218.276C149.722 218.882 149.611 219.393 149.388 219.81C149.165 220.222 148.867 220.553 148.493 220.804C148.124 221.05 147.717 221.23 147.271 221.344V221.486C147.754 221.509 148.226 221.666 148.685 221.955C149.149 222.239 149.532 222.643 149.835 223.169C150.138 223.695 150.29 224.334 150.29 225.087C150.29 225.83 150.115 226.498 149.764 227.089C149.419 227.677 148.884 228.143 148.159 228.489C147.435 228.83 146.509 229 145.382 229H139.807ZM142.002 227.118H145.169C146.22 227.118 146.973 226.914 147.428 226.507C147.882 226.1 148.11 225.591 148.11 224.98C148.11 224.521 147.994 224.099 147.762 223.716C147.53 223.332 147.198 223.027 146.767 222.8C146.341 222.572 145.834 222.459 145.247 222.459H142.002V227.118ZM142.002 220.747H144.942C145.434 220.747 145.877 220.652 146.27 220.463C146.668 220.274 146.983 220.009 147.215 219.668C147.451 219.322 147.57 218.915 147.57 218.446C147.57 217.845 147.359 217.34 146.938 216.933C146.516 216.526 145.87 216.322 144.999 216.322H142.002V220.747ZM154.846 222.523V229H152.722V214.455H154.818V219.866H154.953C155.208 219.279 155.599 218.813 156.124 218.467C156.65 218.122 157.337 217.949 158.184 217.949C158.932 217.949 159.586 218.103 160.144 218.411C160.708 218.718 161.143 219.178 161.451 219.788C161.764 220.394 161.92 221.152 161.92 222.061V229H159.796V222.317C159.796 221.517 159.59 220.896 159.178 220.456C158.767 220.011 158.194 219.788 157.46 219.788C156.958 219.788 156.508 219.895 156.11 220.108C155.717 220.321 155.407 220.634 155.18 221.045C154.957 221.453 154.846 221.945 154.846 222.523ZM171.664 224.476V218.091H173.795V229H171.707V227.111H171.593C171.342 227.693 170.94 228.179 170.386 228.567C169.837 228.95 169.152 229.142 168.333 229.142C167.633 229.142 167.012 228.988 166.472 228.68C165.937 228.368 165.516 227.906 165.208 227.295C164.905 226.685 164.754 225.929 164.754 225.03V218.091H166.877V224.774C166.877 225.518 167.083 226.109 167.495 226.55C167.907 226.99 168.442 227.21 169.1 227.21C169.498 227.21 169.893 227.111 170.286 226.912C170.684 226.713 171.013 226.412 171.274 226.01C171.539 225.607 171.669 225.096 171.664 224.476ZM181.741 218.091V219.795H175.782V218.091H181.741ZM177.38 215.477H179.503V225.797C179.503 226.209 179.565 226.519 179.688 226.727C179.811 226.931 179.97 227.071 180.164 227.146C180.363 227.217 180.578 227.253 180.81 227.253C180.981 227.253 181.13 227.241 181.258 227.217C181.385 227.194 181.485 227.175 181.556 227.161L181.939 228.915C181.816 228.962 181.641 229.009 181.414 229.057C181.187 229.109 180.903 229.137 180.562 229.142C180.003 229.152 179.482 229.052 178.999 228.844C178.516 228.635 178.126 228.313 177.827 227.878C177.529 227.442 177.38 226.895 177.38 226.237V215.477ZM187.264 229.241C186.573 229.241 185.948 229.114 185.389 228.858C184.831 228.598 184.388 228.221 184.061 227.729C183.739 227.236 183.578 226.633 183.578 225.918C183.578 225.302 183.697 224.795 183.933 224.398C184.17 224 184.49 223.685 184.892 223.453C185.295 223.221 185.744 223.046 186.242 222.928C186.739 222.809 187.245 222.719 187.762 222.658C188.415 222.582 188.945 222.52 189.352 222.473C189.76 222.421 190.056 222.338 190.24 222.224C190.425 222.111 190.517 221.926 190.517 221.67V221.621C190.517 221 190.342 220.52 189.992 220.179C189.646 219.838 189.13 219.668 188.443 219.668C187.728 219.668 187.165 219.826 186.753 220.143C186.346 220.456 186.064 220.804 185.908 221.188L183.912 220.733C184.149 220.07 184.494 219.535 184.949 219.128C185.408 218.716 185.936 218.418 186.533 218.233C187.129 218.044 187.757 217.949 188.415 217.949C188.851 217.949 189.312 218.001 189.8 218.105C190.292 218.205 190.752 218.389 191.178 218.659C191.609 218.929 191.961 219.315 192.236 219.817C192.511 220.314 192.648 220.96 192.648 221.756V229H190.574V227.509H190.489C190.352 227.783 190.146 228.053 189.871 228.318C189.596 228.583 189.244 228.804 188.813 228.979C188.382 229.154 187.866 229.241 187.264 229.241ZM187.726 227.537C188.313 227.537 188.815 227.421 189.232 227.189C189.653 226.957 189.973 226.654 190.191 226.28C190.413 225.901 190.524 225.496 190.524 225.065V223.659C190.449 223.735 190.302 223.806 190.084 223.872C189.871 223.934 189.627 223.988 189.352 224.036C189.078 224.078 188.81 224.118 188.55 224.156C188.289 224.189 188.072 224.218 187.896 224.241C187.485 224.294 187.108 224.381 186.767 224.504C186.431 224.627 186.161 224.805 185.958 225.037C185.759 225.264 185.659 225.567 185.659 225.946C185.659 226.472 185.853 226.869 186.242 227.139C186.63 227.404 187.125 227.537 187.726 227.537ZM197.6 222.523V229H195.476V218.091H197.515V219.866H197.65C197.901 219.289 198.294 218.825 198.829 218.474C199.368 218.124 200.048 217.949 200.867 217.949C201.61 217.949 202.261 218.105 202.82 218.418C203.379 218.725 203.812 219.185 204.12 219.795C204.428 220.406 204.581 221.161 204.581 222.061V229H202.458V222.317C202.458 221.526 202.252 220.908 201.84 220.463C201.428 220.013 200.862 219.788 200.143 219.788C199.65 219.788 199.212 219.895 198.829 220.108C198.45 220.321 198.149 220.634 197.927 221.045C197.709 221.453 197.6 221.945 197.6 222.523Z" fill="#E84C6D"/>
<path d="M124.216 139.154C84.8623 137.72 54.6426 105.471 56.6108 66.1488C58.5659 27.1286 91.6605 -2.2739 130.802 0.138418C167.042 2.36942 198.213 33.3854 195.829 73.9008C193.588 112.02 161.31 140.361 124.216 139.154ZM141.229 93.0076C141.41 92.0511 141.589 91.0945 141.715 90.4244C138.293 90.8502 135.264 91.7567 132.362 91.4519C128.605 91.0551 126.976 91.4493 124.702 95.7484C129.522 94.1717 134.336 98.1502 138.669 94.2059C139.355 93.5831 140.406 93.3623 141.289 92.955C146.324 97.3986 151.538 97.3198 154.77 92.7527C156.925 95.0205 157.392 95.2386 158.451 93.499C160.911 89.4601 163.042 85.224 165.688 80.3705C158.11 80.0578 153.049 82.7775 148.371 87.4945C149.225 87.3158 149.735 87.2606 150.213 87.1029C151.49 86.6798 152.754 86.2121 154.023 85.7627C154.06 87.1344 154.242 88.5219 154.081 89.8674C153.966 90.8291 153.319 91.7147 153.03 92.6686C152.378 94.8234 151.02 94.8681 149.107 94.3924C146.526 93.7486 143.859 93.4517 141.229 93.0076ZM194.09 70.3927C193.238 70.1562 192.92 69.9985 192.6 69.9907C190.587 69.9434 188.574 69.9013 186.561 69.9066C181.668 69.9197 181.639 69.9276 181.2 74.7917C180.451 83.0613 178.031 90.8055 173.658 97.8506C171.446 101.414 168.821 104.717 166.897 107.418C169.69 110.553 172.323 113.512 175.141 116.676C187.336 103.495 193.777 88.317 194.09 70.3927ZM78.5871 117.415C79.2126 118.263 79.3702 118.566 79.6041 118.786C91.3031 129.773 105.188 135.814 121.147 137.244C124.017 137.502 125.656 136.863 125.223 133.518C124.994 131.755 125.083 129.928 125.22 128.147C125.407 125.703 124.763 124.439 121.946 124.502C119.628 124.552 117.266 124.071 114.974 123.587C106.289 121.75 98.4455 118.121 91.5343 112.482C87.6715 109.331 87.1117 109.46 83.4433 113.018C81.9192 114.495 80.2952 115.875 78.5871 117.415ZM78.0038 22.501C77.7305 22.6035 77.4651 22.6219 77.3284 22.7664C65.9054 34.602 59.8036 48.7922 58.5212 65.1371C58.3426 67.4207 59.3543 68.1039 61.4644 68.0014C63.7006 67.891 65.9527 67.87 68.1863 68.0093C70.3332 68.1433 70.8693 67.263 71.3002 65.187C72.5406 59.1983 73.5286 52.9967 75.9304 47.4494C78.5083 41.4869 82.5788 36.1708 86.1973 30.2425C83.8165 27.9931 80.9916 25.3233 78.0038 22.501ZM88.3757 29.399C96.7505 21.7626 106.371 17.0562 117.342 15.1038C119.896 14.6491 123.638 14.9093 124.676 13.3773C125.995 11.4353 125.026 7.99292 125.21 5.20745C125.375 2.6795 124.379 1.9043 121.87 2.0462C108.993 2.76885 97.3838 7.00487 86.9199 14.4389C84.3394 16.2705 81.9586 18.3833 79.4885 20.3672C82.634 23.5653 85.3643 26.3402 88.3757 29.399ZM194.116 67.9804C194.034 66.3853 194.006 65.2922 193.916 64.2042C192.781 50.537 188.038 38.2179 179.447 27.57C173.693 20.4356 175.23 21.0189 168.829 27.2416C167.352 28.6764 167.241 30.1295 168.437 31.6957C172.289 36.7463 176.142 41.6997 177.285 48.2955C178.218 53.6615 180.11 58.8593 181.061 64.2226C181.576 67.1185 182.472 68.3299 185.499 68.0356C188.151 67.7754 190.847 67.9804 194.116 67.9804ZM164.635 109.434C161.142 112.311 157.876 114.684 154.998 117.462C152.252 120.113 149.906 123.18 147.396 126.076C145.588 128.162 144.085 128.12 142.18 125.944C141.153 124.77 139.297 123.756 137.778 123.7C135.022 123.603 132.221 124.192 129.472 124.68C128.676 124.822 127.383 125.566 127.354 126.089C127.167 129.723 127.257 133.371 127.257 137.323C145.473 136.818 160.514 130.449 173.159 118.579C170.169 115.37 167.517 112.524 164.635 109.434ZM172.846 20.3804C161.749 10.061 149.01 4.10114 134.365 2.34052C127.028 1.45757 125.927 2.66374 127.328 9.99793C127.674 11.8059 127.89 14.2392 130.873 14.7989C136.441 15.8422 141.917 17.3794 147.451 18.6145C148.529 18.8563 149.722 18.8011 150.831 18.6513C154.943 18.0994 159.071 17.1088 161.941 21.5498C163.16 23.4365 164.753 25.0815 166.269 26.9499C168.487 24.7346 170.523 22.7034 172.846 20.3804ZM72.4722 84.2885C72.1779 81.8894 71.9861 79.6899 71.6208 77.5193C71.2083 75.0623 71.4211 71.5069 69.9364 70.4768C68.0917 69.1944 64.7807 70.1247 62.1213 69.8803C59.0389 69.5991 58.2742 70.9945 58.4766 73.8299C59.2675 84.8404 62.2816 95.1624 68.1416 104.523C70.7642 108.714 73.9281 112.569 76.6662 116.329C79.8564 113.339 82.5105 110.848 85.8819 107.686C81.4698 103.931 77.289 100.176 72.8743 96.7154C70.9481 95.2044 68.4412 94.4581 66.3784 93.089C63.7663 91.3521 62.6837 87.2947 64.0028 85.1662C65.1223 83.3662 69.8891 82.746 72.4722 84.2885ZM95.8834 40.9745C93.1793 37.8921 90.7775 35.1513 88.1996 32.2134C78.6003 42.4066 73.547 53.9847 72.8638 67.9804C74.9555 67.9804 76.5033 67.9778 78.0484 67.9804C83.9978 67.9935 83.9952 67.9935 85.0699 62.1362C86.5836 53.8796 90.3886 46.7793 95.8834 40.9745ZM98.0329 38.7829C103.909 33.8925 110.37 30.3108 117.923 28.7552C125.677 27.1549 125.651 27.0261 125.186 18.9745C125.181 18.8615 125.17 18.7511 125.178 18.6381C125.312 16.8407 124.374 16.2836 122.716 16.4045C110.102 17.3242 99.1891 22.0911 89.6449 30.8417C92.4751 33.5194 95.1318 36.0342 98.0329 38.7829ZM164.931 105.101C165.775 104.654 166.256 104.536 166.532 104.234C174.862 95.0941 178.935 84.2176 179.508 71.9668C179.537 71.3413 178.672 70.1431 178.168 70.1142C175.275 69.9434 172.36 69.967 169.464 70.1273C169.007 70.1536 168.214 71.2152 168.243 71.7644C168.363 74.2109 168.729 76.6443 168.968 78.7544C168.048 79.9448 166.965 81.0222 166.264 82.3072C163.928 86.601 161.665 90.9395 159.521 95.3306C158.956 96.4868 158.281 98.3657 158.798 99.0778C159.468 100 161.289 100.087 163.465 100.82C163.694 101.495 164.251 103.119 164.931 105.101ZM101.276 105.768C97.5704 106.796 94.2515 107.718 90.2047 108.843C100.574 117.969 111.779 122.502 125.16 122.812C125.16 119.588 125.328 116.689 125.06 113.828C124.976 112.934 123.791 111.505 122.992 111.421C114.822 110.553 107.425 107.731 100.248 102.547C100.703 103.968 100.947 104.738 101.276 105.768ZM127.228 16.436C127.228 19.8969 127.162 22.9977 127.291 26.0906C127.312 26.6267 128.111 27.5333 128.626 27.5884C136.367 28.4398 143.633 30.6735 150.176 35.1486C150.405 34.9647 150.631 34.7807 150.86 34.5994C150.442 32.5944 150.024 30.5894 149.451 27.8355C152.281 30.9152 154.615 33.4511 157.298 36.3679C157.968 35.6348 158.693 34.8386 159.789 33.6376C158.572 32.6338 157.689 31.3042 156.667 31.1859C154.383 30.9258 153.947 29.4962 153.198 27.7671C152.258 25.5992 151.23 22.819 149.404 21.802C142.798 18.1257 135.521 16.4492 127.228 16.436ZM165.202 67.8227C165.801 64.9768 166.301 62.6039 166.8 60.2336C167.031 60.2809 167.262 60.3282 167.494 60.3755C167.78 62.7695 168.069 65.1634 168.377 67.7281C172.032 67.7281 175.64 67.7281 180.154 67.7281C179.048 62.5697 178.055 57.8187 177.001 53.0808C176.383 50.3058 174.838 48.4926 172.326 46.8056C167.856 43.802 163.936 39.9785 159.818 36.5256C158.627 37.7975 157.836 38.6436 157.356 39.1587C157.955 39.7841 158.775 40.3096 159.106 41.0507C160.372 43.8913 164.388 43.9912 165.163 47.3022C165.481 48.6608 166.048 49.9668 166.534 51.2807C167.833 54.7836 166.306 60.9878 163.678 63.6787C162.632 64.7508 161.97 66.2014 160.914 67.8175C162.948 67.8227 164.259 67.8227 165.202 67.8227ZM152.875 40.2255C149.354 35.7898 141.034 31.5065 133.285 30.1243C127.378 29.0705 127.186 29.2256 127.178 35.0829C127.175 36.5387 126.931 38.0602 127.283 39.4241C127.509 40.3018 128.489 41.3319 129.362 41.634C132.189 42.6221 135.245 43.0163 137.994 44.1646C146.172 47.5808 146.132 47.678 152.329 41.0428C152.552 40.8037 152.699 40.4936 152.875 40.2255ZM107.201 47.9198C111.196 46.0277 114.948 44.1252 118.808 42.4802C120.766 41.6446 123.893 41.8916 124.747 40.5435C125.825 38.8433 125.123 36.0158 125.183 33.6744C125.194 33.2277 125.144 32.7784 125.183 32.3343C125.375 30.2031 124.29 29.3622 122.366 29.8878C117.76 31.1439 113.035 32.1766 108.66 34.0134C105.299 35.4246 102.398 37.9262 99.3363 39.9102C102.466 43.0977 105.012 45.6887 107.201 47.9198ZM117.489 80.402C123.152 84.9034 126.563 84.1966 129.729 77.882C130.108 77.1278 131.367 76.8571 132.1 76.2238C132.951 75.4854 134.415 74.4947 134.318 73.7905C133.889 70.6502 133.464 67.3602 132.173 64.5196C130.089 59.9341 124.476 58.8278 120.829 62.2676C118.653 64.3199 117.255 67.1973 115.602 69.5702C114.985 69.2549 114.105 68.8029 113.227 68.3535C112.964 69.2444 112.704 70.1352 112.231 71.7382C114.785 71.1705 116.501 70.7895 118.338 70.3822C118.293 71.344 118.238 72.5475 118.143 74.5946C119.021 73.5251 119.534 73.1782 119.631 72.7393C120.275 69.8382 122.414 70.3323 124.082 71.1127C126.121 72.0666 125.328 73.9376 124.187 75.0229C122.153 76.9517 119.817 78.5626 117.489 80.402ZM94.9899 98.3867C98.5768 94.8444 101.801 91.6595 104.939 88.564C103.472 86.0754 101.919 83.7498 100.692 81.2639C99.5412 78.9331 98.7345 76.434 97.4627 73.2123C96.338 75.149 95.8308 76.0241 95.3236 76.8992C95.0477 76.8335 94.7744 76.7704 94.4985 76.7047C94.5878 75.2095 94.6798 73.7169 94.735 72.8077C96.1015 72.3951 97.7701 72.2059 97.8148 71.8249C98.0276 69.9985 97.8752 68.1118 97.6387 66.2723C97.6098 66.0542 95.794 65.6837 95.6311 65.9307C94.9426 66.9713 94.5642 68.2169 93.8652 69.8829C93.2188 70.5977 92.3017 72.0561 90.9983 72.9548C88.9223 74.3843 89.5109 75.8901 90.315 77.5955C93.1504 83.5974 95.9963 89.5941 94.4091 96.563C94.3093 96.994 94.7035 97.5379 94.9899 98.3867ZM98.632 98.0346C104.082 104.659 117.581 110.482 122.705 108.554C115.676 102.985 115.676 102.985 118.49 97.2462C114.449 94.9706 110.418 92.7028 106.534 90.5164C103.94 92.9866 101.362 95.4383 98.632 98.0346ZM97.5993 42.0203C90.5778 49.2678 86.8411 57.6925 86.3681 67.6151C89.5346 68.4114 91.1691 68.0382 90.7512 64.5879C90.3886 61.5922 91.9863 59.5793 94.4854 57.8371C98.1433 55.2855 101.483 52.2766 105.283 49.2021C102.618 46.7136 100.28 44.5273 97.5993 42.0203ZM115.587 81.9866C113.103 84.1755 110.633 86.354 107.572 89.0554C111.332 91.0709 114.43 93.1101 117.823 94.3609C119.153 94.8523 121.302 93.8669 122.766 93.0155C123.89 92.3611 124.529 90.8659 125.932 89.0238C125.173 87.9911 124.39 86.0886 122.973 85.2004C120.653 83.7525 117.925 82.9641 115.587 81.9866ZM154.557 41.9179C148.437 46.8213 145.373 50.5791 145.478 52.8942C150.77 49.5779 154.115 50.5081 158.336 55.727C159.978 56.4049 161.62 57.0829 163.205 57.7346C162.616 59.4216 162.222 60.549 161.828 61.6763C162.17 61.8392 162.509 62.0021 162.85 62.1651C163.434 61.2559 164.677 60.1522 164.48 59.4742C163.825 57.2379 162.737 55.1094 161.628 53.0387C161.14 52.1242 159.502 51.3753 159.576 50.6816C160.036 46.4692 156.657 44.7349 154.557 41.9179ZM128.124 42.7088C127.809 43.0688 127.493 43.4315 127.178 43.7915C127.178 45.108 127.162 46.4219 127.18 47.7384C127.23 51.399 129.009 52.387 132.257 50.6001C133.248 50.0562 134.291 49.6068 135.311 49.1128C135.55 49.3572 135.792 49.6042 136.031 49.8486C135.056 51.5566 134.081 53.2647 132.927 55.2855C134.042 55.6429 135.876 56.7308 136.362 56.2998C138.241 54.6285 139.873 52.5841 141.181 50.4293C141.547 49.8302 140.766 47.7332 140.028 47.3994C136.147 45.6467 132.11 44.2382 128.124 42.7088ZM120.566 50.3794C122.056 50.3084 124.448 50.5081 124.54 50.1376C125.062 48.017 125.039 45.7623 125.22 43.3053C118.992 43.9307 113.999 45.5074 109.792 49.2993C115.455 55.4458 118.937 55.5719 120.566 50.3794ZM85.3406 74.5131C84.4051 72.7078 83.8874 70.3559 82.9703 70.1904C80.1586 69.6806 77.1918 69.967 74.2881 70.0458C73.8545 70.0564 73.2606 70.5215 73.0425 70.934C71.881 73.1519 74.204 81.4164 76.3667 82.9904C76.4402 77.8057 81.3043 74.1873 85.3406 74.5131ZM127.196 112.24C127.196 115.678 127.104 118.437 127.267 121.18C127.304 121.795 128.261 122.888 128.731 122.857C131.191 122.689 133.629 122.229 136.036 121.877C134.57 119.162 133.322 116.855 132.076 114.548C132.323 114.358 132.57 114.169 132.82 113.98C131.177 113.476 129.54 112.968 127.196 112.24ZM100.248 76.2317C102.321 80.0893 104.198 83.5817 106.14 87.2001C108.179 85.3659 109.627 84.0599 111.009 82.817C107.824 77.4825 104.374 75.1438 100.248 76.2317ZM156.777 112.185C157.179 112.293 157.579 112.398 157.981 112.506C159.652 111.113 161.326 109.718 162.934 108.378C160.28 105.705 157.907 103.311 155.421 100.807C154.15 102.334 153.971 103.613 155.979 104.486C158.244 105.469 158.754 106.685 157.206 108.853C156.633 109.657 156.896 111.055 156.777 112.185ZM159.986 70.3586C161.302 72.5081 162.183 74.3843 163.473 75.9164C164.592 77.246 165.835 76.6679 165.959 75.0176C166.285 70.6949 167.102 69.2181 159.986 70.3586ZM141.87 79.3956C140.666 82.2205 141.946 84.1571 144.905 84.885C146.119 81.8841 143.055 81.4873 141.87 79.3956ZM87.7556 75.8375C88.0078 75.7823 88.2601 75.7272 88.5124 75.672C88.6017 74.3686 88.8277 73.0521 88.72 71.7644C88.6727 71.1863 87.9579 70.6634 87.5453 70.1142C87.1222 70.6424 86.2708 71.2546 86.3576 71.6803C86.6414 73.102 87.2615 74.4579 87.7556 75.8375Z" fill="#E84C6D"/>
<path d="M103.901 166C102.96 165.112 101.998 164.203 100.269 162.571C107.382 157.457 114.199 152.556 121.565 147.259C118.766 147.75 116.088 147.679 113.936 148.709C109.516 150.825 105.283 153.376 101.141 156.017C88.6199 164 74.9291 160.011 66.8459 151.148C66.9379 151.09 67.0693 150.959 67.1166 150.985C78.3321 156.887 88.8748 152.88 99.386 148.757C107.763 145.469 116.262 143.483 125.27 145.84C125.906 146.005 126.652 146.137 127.259 145.968C138.351 142.873 148.476 146.428 158.554 150.42C160.632 151.242 162.766 151.944 164.897 152.627C171.44 154.722 177.878 154.682 184.167 151.626C184.824 151.308 185.575 151.182 186.645 150.859C179.439 159.914 165.336 162.947 155.374 157.683C151.422 155.594 147.745 152.995 143.885 150.727C140.177 148.549 136.27 147.004 132.094 147.621C138.84 152.38 145.717 157.234 153.138 162.471C151.443 163.987 150.339 164.973 149.304 165.9C145.052 162.114 141.168 158.054 136.698 154.798C126.184 147.135 127.162 147.193 117.066 154.461C112.478 157.757 108.504 161.917 103.901 166Z" fill="#E84C6D"/>
<path d="M57.8666 101.209C61.0646 107.782 64.2994 114.335 67.4475 120.934C70.3171 126.944 73.0894 133.001 75.8197 138.858C58.7784 140.109 36.9098 125.504 34.4449 110.063C39.5902 118.729 47.9151 121.924 55.6434 126.045C59.9373 128.334 63.8895 131.261 68.2332 133.715C58.6523 125.046 59.7086 112.654 56.2767 101.872C56.8075 101.648 57.3384 101.428 57.8666 101.209Z" fill="#E84C6D"/>
<path d="M177.106 139.661C177.674 138.486 177.952 137.903 178.236 137.322C181.166 131.315 184.046 125.284 187.045 119.311C190.132 113.159 193.338 107.065 197.08 101.221C194.113 112.539 195.454 125.363 185.45 134.332C195.559 124.948 210.866 123.466 219.183 111.433C216.694 119.466 212.298 126.13 205.132 130.676C196.736 136.003 187.171 137.695 177.106 139.661Z" fill="#E84C6D"/>
<path d="M197.115 122.768C199.175 109.282 201.233 95.8119 203.288 82.3418C203.684 82.3917 204.081 82.4417 204.478 82.4916C204.72 92.3853 209.954 102.232 204.328 112.251C211.415 102.699 222.15 96.1982 226.097 84.1523C229.4 96.0116 215.817 113.862 197.115 122.768Z" fill="#E84C6D"/>
<path d="M49.652 82.3457C54.4267 95.3008 52.8028 109.42 57.0467 122.567C44.491 114.72 31.197 107.693 27.9096 91.3486C27.4996 89.3173 27.518 87.1993 27.6731 84.9998C32.1403 96.0287 42.1943 102.443 49.2447 111.567C43.9996 101.702 49.1738 92.1001 49.652 82.3457Z" fill="#E84C6D"/>
<path d="M183.588 122.352C179.173 130.306 176.002 138.807 167.227 143.253C173.487 142.764 179.757 142.357 186.008 141.766C192.299 141.169 198.254 139.527 203.291 135.317C198.787 142.599 192.536 147.279 184.108 148.913C176.309 150.427 168.738 148.995 161.207 147.163C158.309 146.459 155.455 145.584 152.535 144.441C164.954 142.176 171.219 131.686 179.967 124.622C180.837 123.92 181.638 123.135 182.497 122.42C182.618 122.315 182.892 122.386 183.588 122.352Z" fill="#E84C6D"/>
<path d="M71.2764 121.966C75.8277 126.221 80.4159 130.436 84.9226 134.737C89.5028 139.11 94.4194 142.863 101.06 143.717C101.039 144.029 101.018 144.342 100.997 144.655C97.2128 145.664 93.4655 146.849 89.6368 147.643C80.45 149.548 71.2501 150.644 62.3839 146.21C57.2781 143.656 53.1997 139.964 50.3617 134.782C55.4255 139.086 61.3301 140.95 67.784 141.407C72.472 141.741 77.1495 142.195 81.827 142.644C83.7033 142.823 85.569 143.128 87.6528 143.133C78.3031 139.239 74.9684 130.549 70.601 122.694C70.8244 122.45 71.0504 122.208 71.2764 121.966Z" fill="#E84C6D"/>
<path d="M30.5275 54.6401C29.2925 66.6728 36.5452 75.455 39.2466 85.7717C39.2098 75.4707 46.5755 68.4046 49.8892 59.6251C50.2886 59.7223 50.688 59.8169 51.0874 59.9141C49.6842 66.3391 48.281 72.7615 46.8803 79.1864C45.4613 85.6981 44.0423 92.2072 42.6785 98.4745C30.1833 89.7344 23.5638 67.879 30.5275 54.6401Z" fill="#E84C6D"/>
<path d="M211.306 98.632C208.455 85.9476 205.601 73.2475 202.744 60.5473C208.284 65.5611 213.834 78.9366 214.231 86.9199C216.454 81.2728 218.653 76.3745 220.306 71.2976C221.938 66.2864 223.018 61.0939 224.164 56.666C230.331 66.9144 224.508 86.7806 211.306 98.632Z" fill="#E84C6D"/>
<path d="M197.232 41.5495C205.659 47.2387 210.539 53.6112 214.827 62.3249C214.827 51.4564 214.827 40.5904 214.827 29.8164C218.425 34.1943 221.208 39.4499 221.305 45.4702C221.384 50.4315 220.553 55.4743 219.56 60.3672C218.575 65.226 216.88 69.9403 215.684 74.0712C211.424 67.2521 206.889 60.3094 202.708 53.1592C200.556 49.4803 199.037 45.4308 197.232 41.5495Z" fill="#E84C6D"/>
<path d="M38.5371 74.3777C36.1274 64.7311 31.4893 55.6494 32.3696 45.4036C32.8899 39.3465 35.3417 34.0935 39.3754 29.5054C36.6661 40.4081 39.7932 51.2793 39.3622 62.3608C41.1255 52.1859 50.2834 47.808 55.8517 40.6236C53.9018 53.7915 42.3973 62.0638 38.5371 74.3777Z" fill="#E84C6D"/>
<path d="M198.95 15.2324C211.054 19.6708 214.186 33.8714 211.65 50.6132C204.539 41.0085 191.676 36.8067 189.269 23.7439C195.292 28.8155 201.284 33.8609 207.724 39.2847C206.05 30.8284 204.679 22.7085 198.95 15.2324Z" fill="#E84C6D"/>
<path d="M46.0126 39.1491C52.3903 33.7621 58.5341 28.5695 64.578 23.4637C62.3654 36.3163 49.589 40.6259 42.176 50.3514C41.8764 48.8956 41.5716 48.194 41.6189 47.5186C42.0919 40.752 42.0814 33.8908 43.3033 27.2583C44.3571 21.548 48.5011 17.6352 54.1588 15.4463C49.074 22.4625 47.8862 30.7401 46.0126 39.1491Z" fill="#E84C6D"/>
<path d="M51.4658 30.1169C53.9465 17.2985 61.3753 10.2612 73.3239 6.55078C66.3655 14.8678 60.9364 23.7261 51.4658 30.1169Z" fill="#E84C6D"/>
<path d="M202.342 30.3501C193.013 24.1432 187.658 15.3138 180.786 7.17285C192.291 10.518 199.517 16.7643 202.342 30.3501Z" fill="#E84C6D"/>
<path d="M97.596 42.0205C100.279 44.5274 102.618 46.7111 105.28 49.1997C101.48 52.2742 98.1426 55.2857 94.482 57.8346C91.983 59.5769 90.3853 61.5898 90.7479 64.5854C91.1657 68.0331 89.5312 68.4089 86.3647 67.6127C86.8378 57.6927 90.5745 49.268 97.596 42.0205Z" fill="#E84C6D"/>
<path d="M87.7529 75.8358C87.2615 74.4536 86.6414 73.1003 86.3549 71.676C86.2708 71.2503 87.1222 70.6381 87.5427 70.1099C87.9553 70.6591 88.6674 71.182 88.7173 71.7601C88.8251 73.0477 88.5991 74.3643 88.5097 75.6677C88.2548 75.7255 88.0026 75.7807 87.7529 75.8358Z" fill="#E84C6D"/>
<path d="M141.815 8.81042C139.676 11.3463 133.943 11.7746 130.997 9.81687C134.755 6.73446 138.089 6.38233 141.815 8.81042Z" fill="#E84C6D"/>
</svg>
