<svg width="173" height="151" viewBox="0 0 173 151" fill="none" xmlns="http://www.w3.org/2000/svg">
<g clip-path="url(#clip0_35_2)">
<path d="M31.452 61.2365C31.452 46.8417 37.2159 33.0365 47.4755 22.8579C57.7352 12.6792 71.6503 6.96094 86.1597 6.96094C100.669 6.96094 114.584 12.6792 124.844 22.8579C135.104 33.0365 140.867 46.8417 140.867 61.2365C140.867 75.6313 135.104 89.4365 124.844 99.6152C114.584 109.794 100.669 115.512 86.1597 115.512C71.6503 115.512 57.7352 109.794 47.4755 99.6152C37.2159 89.4365 31.452 75.6313 31.452 61.2365ZM35.9008 61.2879C36.0157 74.4387 41.3621 87.012 50.7761 96.271C60.19 105.53 72.9093 110.725 86.1653 110.725C99.4213 110.725 112.141 105.53 121.555 96.271C130.969 87.012 136.315 74.4387 136.43 61.2879C136.315 48.1372 130.969 35.5638 121.555 26.3049C112.141 17.0459 99.4213 11.8511 86.1653 11.8511C72.9093 11.8511 60.19 17.0459 50.7761 26.3049C41.3621 35.5638 36.0157 48.1372 35.9008 61.2879Z" fill="#E84C6D"/>
<path d="M76.4036 63.6264C85.6114 55.5512 86.6891 54.285 86.2542 52.0435C85.8288 49.8395 87.0956 48.1981 96.4829 38.8662C108.376 27.03 109.293 26.5423 105.048 34.3174C102.127 39.6727 102.127 39.6727 104.49 40.892C105.785 41.5579 107.203 43.0491 107.629 44.2027C108.413 46.3036 108.413 46.3036 113.755 43.3211C116.685 41.6704 119.342 40.3293 119.663 40.3293C119.975 40.3293 115.447 45.4126 109.586 51.6214C100.047 61.7319 98.6667 62.8573 96.4168 62.3696C94.1479 61.8726 93.0797 62.7823 85.6303 71.4765C76.3374 82.3373 72.6411 85.3854 65.428 88.1334C62.677 89.1839 60.238 90.0373 59.9922 90.0373C59.7559 90.0373 59.5574 89.0432 59.5574 87.8145C59.5574 81.8777 65.7778 72.9396 76.4036 63.6264Z" fill="#E84C6D"/>
<path d="M72.764 130.385C76.9803 127.281 80.9413 124.683 81.5747 124.608C82.1987 124.542 81.7354 124.298 80.5443 124.073C79.0695 123.792 75.5244 125.349 69.6727 128.828C57.4209 136.116 51.4273 136.575 42.0778 130.92C37.2659 128.012 37.7953 127.684 45.3771 128.819C51.399 129.729 51.7204 129.663 61.4481 125.705C69.3135 122.498 72.5466 121.663 77.0465 121.644C80.1661 121.635 84.4202 121.635 86.5 121.625C88.5798 121.625 93.0513 121.616 96.4263 121.607C101.342 121.597 104.282 122.282 111.145 125.039C120.315 128.734 126.489 129.419 132.444 127.403C135.659 126.315 135.658 126.315 133.815 128.387C127.254 135.759 115.324 135.872 103.535 128.659C93.0419 122.254 88.4758 121.982 97.8443 128.331C106.91 134.465 108.81 136.669 106.485 138.357C104.925 139.492 103.951 138.901 96.9746 132.645C88.4947 125.039 86.6891 124.448 81.9151 127.731C80.2796 128.866 76.4887 132.026 73.5014 134.765C68.2169 139.614 68.0278 139.698 66.5814 137.888C65.1728 136.125 65.4659 135.769 72.764 130.385Z" fill="#E84C6D"/>
<path d="M128.635 113.653C129.712 112.293 131.877 107.585 133.437 103.186C135.999 96.0022 141.529 85.7042 142.38 86.5483C143.098 87.2517 140.017 103.083 138.665 105.634C137.88 107.116 137.36 108.448 137.511 108.598C138.277 109.367 155.851 98.5064 157.874 96.0116C160.644 92.5977 161.041 92.6258 160.143 96.1898C158.063 104.387 147.249 112.725 135.186 115.407C130.771 116.392 127.046 117.208 126.914 117.217C126.782 117.227 126.678 116.983 126.678 116.683C126.678 116.373 127.557 115.013 128.635 113.653Z" fill="#E84C6D"/>
<path d="M15.8347 102.436C10.9566 95.6364 11.2308 93.6856 16.4019 98.3563C19.6445 101.282 28.8806 106.779 35.2901 109.592C35.725 109.789 35.3846 108.598 34.5244 106.957C33.0023 104.04 29.7692 88.3209 30.535 87.5706C31.4519 86.6514 36.2733 95.5332 39.7049 104.453C41.7563 109.789 44.0819 114.685 44.876 115.332C45.6701 115.989 46.3224 116.683 46.3224 116.88C46.3224 117.077 45.2636 117.236 43.959 117.236C42.6639 117.236 38.7217 116.523 35.2145 115.651C27.3302 113.681 20.6087 109.104 15.8347 102.436Z" fill="#E84C6D"/>
<path d="M142.824 100.654C143.391 99.2004 144.45 92.654 145.188 86.1169C147.126 68.916 148.317 66.6088 149.952 76.9068C150.652 81.2961 150.973 86.5671 150.68 88.6304C150.141 92.382 150.141 92.382 157.354 83.9504C161.325 79.3172 164.86 74.4683 165.229 73.1646C165.891 70.8105 165.891 70.8105 166.212 73.5304C167.186 81.7276 161.504 90.4968 149.914 98.6752C145.717 101.639 142.172 104.077 142.04 104.087C141.907 104.096 141.803 103.918 141.803 103.702C141.803 103.477 142.266 102.098 142.824 100.654Z" fill="#E84C6D"/>
<path d="M110.767 119.356C113.67 118.08 118.444 114.441 122.991 110.052C127.094 106.094 130.695 103.093 130.988 103.383C132.161 104.546 125.543 115.576 122.48 117.546C120.76 118.671 119.408 119.656 119.483 119.759C120.4 120.894 141.86 116.889 144.62 115.079C146.445 113.869 148.099 112.987 148.288 113.128C149.395 113.944 143.656 119.646 139.232 122.122C135.422 124.261 132.529 125.124 128.455 125.358C124.853 125.565 119.918 124.936 114.445 123.567C106.003 121.457 106.003 121.457 110.767 119.356Z" fill="#E84C6D"/>
<path d="M6.61743 76.2223C6.61743 72.9678 6.61743 72.9678 9.00918 76.9538C10.881 80.0676 21.3839 92.4665 22.4332 92.7854C22.5561 92.8229 22.4143 91.0597 22.1307 88.865C21.8471 86.6703 22.2442 81.5026 23.0099 77.3759C24.721 68.1377 25.8649 70.2948 27.472 85.8169C28.0108 90.9752 29.098 97.2591 29.8921 99.7914C30.6767 102.314 31.0832 104.537 30.7902 104.715C30.4971 104.894 26.952 102.586 22.9248 99.5851C11.0322 90.7314 6.61743 84.4006 6.61743 76.2223Z" fill="#E84C6D"/>
<path d="M24.5792 114.169C24.5792 113.719 25.8082 114.225 27.3018 115.285C30.3648 117.442 35.9046 118.708 46.2468 119.59C53.2613 120.19 53.2613 120.19 50.0471 117.545C46.9558 114.985 40.291 104.152 41.2269 103.215C41.4822 102.961 45.6985 106.413 50.5954 110.886C56.8253 116.579 60.7107 119.384 63.5468 120.237C67.5929 121.447 67.5929 121.447 60.03 123.482C55.7949 124.626 49.4515 125.555 45.6134 125.602C40.3005 125.658 37.9655 125.236 35.2145 123.698C31.3669 121.56 24.5792 115.473 24.5792 114.169Z" fill="#E84C6D"/>
<path d="M150.311 67.209C146.038 50.8147 146.417 48.2074 151.682 57.6801C153.979 61.8068 156.125 66.5712 156.447 68.2594C157.042 71.4483 162.119 59.7715 164.104 50.6459C164.785 47.4946 164.842 47.4571 165.503 49.708C168.103 58.5429 165.276 69.9289 158.29 78.7638C155.823 81.8682 153.667 84.4099 153.478 84.4099C153.299 84.4099 153.148 82.9843 153.148 81.2492C153.148 79.5141 151.871 73.1927 150.311 67.209Z" fill="#E84C6D"/>
<path d="M6.65528 58.4587C6.59856 48.7797 7.47774 47.5792 9.49135 54.5946C10.4178 57.8397 12.1762 63.2513 13.3957 66.6183C15.5983 72.7333 15.5983 72.7333 16.7517 68.2971C17.6498 64.8269 22.3198 55.0917 24.2767 52.5969C25.9878 50.4116 24.324 62.6792 21.7337 71.3077C20.7033 74.7592 19.8524 79.3267 19.8524 81.4651C19.8524 83.6035 19.6445 85.3479 19.3798 85.3479H18.4344C18.1792 85.3479 15.9576 82.2904 13.5186 78.5482C7.78026 69.779 6.712 66.6464 6.65528 58.4587Z" fill="#E84C6D"/>
<path d="M108.631 70.4073C111.278 68.2126 113.443 65.7272 113.443 64.8925C113.443 64.0484 115.863 60.9346 118.822 57.9709C124.163 52.6155 126.328 51.4994 123.671 55.4761C121.563 58.618 124.541 61.4223 128.323 59.8373C130.383 58.9744 129.759 59.9498 125.288 64.5455C122.187 67.7343 119.134 70.3416 118.51 70.3416C117.886 70.3416 115.314 72.7332 112.809 75.6501C110.295 78.5669 106.542 81.7182 104.462 82.6655C102.382 83.6033 100.576 84.3818 100.444 84.3912C100.312 84.4006 100.208 83.669 100.208 82.7592C100.208 79.683 103.791 74.4308 108.631 70.4073Z" fill="#E84C6D"/>
<path d="M76.0349 31.5129C78.9371 29.065 81.3005 26.3639 81.3005 25.5104C81.3005 24.0098 91.6994 12.8208 92.4273 13.543C92.6353 13.7399 92.0965 14.9686 91.2362 16.2629C89.1092 19.4798 92.0681 23.1188 95.046 20.9617C99.1488 17.9886 98.2413 20.1082 93.1931 25.3229C90.1963 28.4179 87.1806 30.9502 86.4905 30.9502C85.791 30.9502 83.2007 33.3043 80.7239 36.1742C78.247 39.0535 74.6169 42.2142 72.66 43.2084C70.6936 44.2026 68.6422 45.0185 68.1034 45.0185C67.5456 45.0185 67.366 44.1088 67.6874 42.9083C68.8407 38.6784 70.8827 35.8835 76.0349 31.5129Z" fill="#E84C6D"/>
<path d="M12.6394 32.1226C15.2013 27.1142 16.7139 25.5949 15.57 29.1776C14.152 33.595 16.1467 52.2403 17.7065 49.1827C19.238 46.2003 28.4646 36.3712 29.1264 37.0277C30.119 38.0125 27.888 42.8801 22.2064 52.109C18.8315 57.5862 16.071 62.6602 16.071 63.3918C16.071 64.1139 15.863 64.7142 15.5983 64.7142C15.3431 64.7142 14.0101 61.2346 12.6488 56.9766C9.26447 46.4066 9.26446 38.7347 12.6394 32.1226Z" fill="#E84C6D"/>
<path d="M150.321 51.1336C146.265 45.6845 142.805 39.0255 142.768 36.6058C142.739 34.5987 154.991 46.9319 155.785 49.7081C156.778 53.197 157.165 47.8604 156.768 35.9492C156.513 28.2398 156.693 26.6079 157.676 27.4238C159.604 29.0182 162.601 38.9036 162.601 43.6868C162.601 46.266 161.438 51.0774 159.765 55.4479C156.929 62.8385 156.929 62.8385 155.596 59.6309C154.859 57.8583 152.486 54.0411 150.321 51.1336Z" fill="#E84C6D"/>
<path d="M145.282 35.1051C139.79 30.622 136.131 25.8106 136.131 23.0814C136.131 22.0122 138.23 23.2314 142.985 27.0486C146.757 30.0874 149.981 32.4509 150.151 32.3102C150.945 31.6443 146.445 17.9793 145.055 16.835C143.978 15.9441 143.836 15.4282 144.62 15.1656C146.473 14.556 152.06 20.6616 153.809 25.2104C155.114 28.5962 155.303 30.9128 154.764 36.7652C154.093 44.0807 154.093 44.0807 152.363 41.7735C151.408 40.5073 148.222 37.5061 145.282 35.1051Z" fill="#E84C6D"/>
<path d="M23.1044 18.8047C26.7346 15.3251 28.4457 15.3907 26.1107 18.9266C25.3071 20.1365 23.9836 24.0006 23.1612 27.5176L21.6675 33.9047C31.9813 25.7357 34.9781 22.9595 34.9781 22.4718C34.9781 21.9747 35.3657 21.5714 35.8478 21.5714C38.8068 21.5714 34.1462 29.1777 26.6022 36.6527C22.1118 41.1076 18.3304 44.8123 18.198 44.8873C18.0657 44.9624 17.7348 41.7079 17.4512 37.6656C16.8178 28.6243 18.406 23.3347 23.1044 18.8047Z" fill="#E84C6D"/>
<path d="M147.475 27.1988L137.077 19.6957L128.568 7.50317L140.858 13.1305L147.475 27.1988Z" fill="#E84C6D"/>
<path d="M30.3175 15.5784C32.1798 13.2525 42.5031 7.16556 43.2878 7.93463C43.8455 8.48798 32.8321 22.1812 29.495 25.0792C27.576 26.7393 25.8932 28.118 25.7609 28.1274C25.6285 28.1274 25.5245 27.5553 25.5245 26.8518C25.5245 24.4415 28.1337 18.2983 30.3175 15.5784Z" fill="#E84C6D"/>
</g>
<defs>
<clipPath id="clip0_35_2">
<rect width="173" height="151" fill="white"/>
</clipPath>
</defs>
</svg>
