<svg width="178" height="152" viewBox="0 0 178 152" fill="none" xmlns="http://www.w3.org/2000/svg">
<g clip-path="url(#clip0_318_574)">
<path d="M28.3809 64.6419C28.47 48.8957 34.8446 33.8245 46.1119 22.7214C57.3791 11.6182 72.6229 5.38574 88.5127 5.38574C104.402 5.38574 119.646 11.6182 130.913 22.7214C142.181 33.8245 148.555 48.8957 148.644 64.6419C148.555 80.3881 142.181 95.4593 130.913 106.562C119.646 117.666 104.402 123.898 88.5127 123.898C72.6229 123.898 57.3791 117.666 46.1119 106.562C34.8446 95.4593 28.47 80.3881 28.3809 64.6419ZM88.0525 115.876C88.0525 110.716 88.0525 110.716 84.502 110.697C78.575 110.659 69.0974 107.178 62.2709 102.525C55.8137 98.1241 55.8137 98.1241 52.2916 101.671C48.2298 105.743 49.5364 107.573 61.0685 114C64.1929 115.745 69.8359 118.034 73.6137 119.104C77.3915 120.164 82.1823 121.037 84.2653 121.037C88.0525 121.037 88.0525 121.037 88.0525 115.876ZM125.925 108.042C129.239 105.246 129.239 105.246 125.972 101.887C121.816 97.5893 122.308 97.4955 113.796 104.382C107.339 109.609 106.089 110.256 102.274 110.294C99.9255 110.322 96.1856 110.425 93.9701 110.528C89.9461 110.716 89.9461 110.716 89.9461 115.876C89.9461 121.037 89.9461 121.037 93.4967 121.009C102.643 120.934 117.849 114.854 125.925 108.042ZM88.0525 104.654C88.0525 100.47 88.0525 100.47 81.6616 98.9967C78.1489 98.1804 73.7841 96.7261 71.9568 95.7597C70.1389 94.7933 68.4062 94.3804 68.1222 94.8402C67.6488 95.5908 60.2353 96.4071 58.4648 95.9098C56.1735 95.253 58.4648 97.8333 62.8011 100.798C65.5848 102.694 70.6975 105.283 74.1628 106.54C77.6376 107.807 82.1823 108.839 84.2653 108.839C88.0525 108.839 88.0525 108.839 88.0525 104.654ZM98.4769 106.972C97.8804 106.597 97.2555 105.124 97.0945 103.679C96.7632 100.667 94.5287 99.0812 91.8208 99.935C90.3249 100.404 89.9461 101.361 89.9461 104.683C89.9461 108.792 89.984 108.839 93.1842 108.839C97.3028 108.839 99.9823 107.892 98.4769 106.972ZM51.0323 100.029C54.2893 96.698 54.0526 92.8886 50.5873 92.8886C49.8109 92.8886 48.9304 92.2599 48.6274 91.4905C48.3339 90.7118 47.7279 90.3083 47.2924 90.571C46.8474 90.8431 46.0048 90.177 45.4177 89.0886C43.8271 86.1424 38.8563 84.2752 37.1426 85.9735C36.0065 87.0994 36.1864 87.9157 38.4208 91.7251C39.86 94.174 42.2365 97.7582 43.7135 99.691C45.1905 101.624 46.7338 103.21 47.1504 103.21C47.5765 103.21 49.3186 101.774 51.0323 100.029ZM146.338 70.6046C147.001 64.7404 147.001 64.7404 141.67 64.7404C136.397 64.7404 136.34 64.7686 136.34 67.5177C136.34 72.894 132.628 83.2525 128.292 89.9706C123.927 96.7449 123.927 96.7449 126.815 99.9725C128.406 101.755 130.176 103.21 130.735 103.21C134.825 103.21 145.079 81.7794 146.338 70.6046ZM117.583 94.1552C114.497 90.0362 113.739 89.5859 113.02 91.4624C112.67 92.3725 113.143 93.4984 114.203 94.2866C115.605 95.3093 115.766 95.9567 114.97 97.2891C114.412 98.2273 114.09 99.5128 114.26 100.16C114.468 100.986 115.377 100.751 117.29 99.372C120.026 97.411 120.026 97.411 117.583 94.1552ZM81.4911 94.8589C79.5881 92.2036 79.5786 92.1004 81.3018 89.9893C83.0628 87.8407 83.0628 87.8407 77.7702 84.7538C72.4681 81.6668 72.4681 81.6668 68.8512 85.1666C65.225 88.6663 65.225 88.6664 67.8571 90.9088C69.2962 92.1473 72.7332 94.1552 75.4789 95.3656C78.2247 96.5854 81.1503 97.5799 81.9645 97.5799C83.2049 97.5799 83.1291 97.1296 81.4911 94.8589ZM134.172 69.2723C134.711 64.7404 134.711 64.7404 130.072 64.7404C125.442 64.7404 125.442 64.7404 124.344 71.0456C123.558 75.5587 122.175 79.0115 119.477 83.2056C115.87 88.7977 115.747 92.7197 119.25 90.571C119.79 90.2426 120.661 91.0496 121.181 92.3725C122.138 94.7651 122.138 94.7651 125.972 89.9049C130.081 84.6975 133.291 76.6189 134.172 69.2723ZM68.0275 75.2678C66.4653 72.331 65.0829 69.8071 64.9409 69.6757C64.0888 68.8313 63.4355 69.7696 63.4355 71.8338C63.4355 73.1755 63.0189 73.9824 62.4982 73.6634C61.9869 73.3444 61.7407 72.1621 61.9585 71.0268C62.1762 69.8915 62.3751 68.3622 62.4224 67.6303C62.4603 66.8985 62.8011 66.6076 63.1799 66.9923C63.5586 67.3676 64.032 67.1987 64.2214 66.617C64.8652 64.7029 63.5302 64.4589 61.0969 66.0446C58.2849 67.8649 58.1712 68.897 60.2542 73.776C61.1063 75.7745 61.8922 78.2515 62.0153 79.2836C62.1289 80.3157 62.4982 82.5301 62.8295 84.2096C63.4355 87.2589 63.4355 87.2589 67.1565 83.9375C70.8679 80.616 70.8679 80.616 68.0275 75.2678ZM123.084 67.6303C123.084 64.8812 122.895 64.7404 119.269 64.7404C115.463 64.7404 115.463 64.7404 116.883 67.4708C117.669 68.972 118.852 70.4264 119.515 70.7078C120.964 71.3177 116.817 74.0387 114.364 74.0856C112.338 74.1325 110.312 77.4822 111.78 78.3735C112.376 78.7394 112.518 80.1938 112.139 81.9577C111.78 83.6184 111.865 84.5661 112.319 84.1251C112.774 83.6841 113.247 84.2002 113.38 85.298C113.607 87.2027 113.683 87.1839 115.936 84.8757C118.776 81.9577 123.084 71.5617 123.084 67.6303ZM35.5899 81.3947C35.5046 77.4071 35.5046 77.4071 39.2919 77.5009C41.3749 77.5478 43.117 77.5478 43.1738 77.5009C43.2211 77.4446 42.814 74.5547 42.2649 71.0738C41.2707 64.7404 41.2707 64.7404 36.1295 64.7404C30.9789 64.7404 30.9789 64.7404 31.5659 69.6664C31.8878 72.378 32.8062 77.0224 33.5921 79.9873C34.3874 82.9523 35.1733 85.3824 35.3532 85.3824C35.5236 85.3824 35.6277 83.5903 35.5899 81.3947ZM85.8181 84.2096C85.7423 83.5622 86.1116 82.896 86.6323 82.7271C88.2514 82.1923 88.2987 81.817 87.0394 79.0115C84.8902 74.1888 80.6769 73.4945 76.8044 77.3226C73.5758 80.5222 73.5758 80.5222 77.9785 82.9523C80.3928 84.294 83.1765 85.3824 84.1611 85.3824C85.1458 85.3824 85.8938 84.857 85.8181 84.2096ZM95.6459 84.1908C95.5986 82.3987 95.4376 82.1923 94.9832 83.3088C94.6139 84.2189 94.1784 84.2565 93.2126 83.4683C92.5025 82.8866 91.48 82.6802 90.9308 83.0086C90.3911 83.3464 89.9461 84.0125 89.9461 84.5004C89.9461 84.9883 91.2338 85.2698 92.8055 85.1291C94.3772 84.9883 95.6554 84.5661 95.6459 84.1908ZM74.854 74.2263C73.3296 71.4115 68.9081 68.6436 68.3873 70.1824C68.1695 70.8298 68.8891 73.0441 69.978 75.0896C71.8242 78.5612 72.0893 78.7207 73.9451 77.5103C75.602 76.4219 75.7535 75.8871 74.854 74.2263ZM49.0913 75.0708C49.2712 73.7947 50.237 71.618 51.2217 70.2387C54.2988 65.9508 53.655 64.7404 48.2866 64.7404C43.9691 64.7404 43.5525 64.9281 43.5525 66.9172C43.5525 68.1182 43.9786 71.0738 44.4993 73.4851C45.2284 76.8535 45.8343 77.8199 47.1031 77.6417C48.0593 77.5103 48.902 76.4219 49.0913 75.0708ZM90.8929 72.7157C91.4421 71.2802 92.5404 70.3701 93.7144 70.3701C94.7843 70.3701 95.627 69.7508 95.627 68.9626C95.627 68.1933 95.1441 67.6585 94.5666 67.7898C93.9795 67.9212 93.2789 67.3864 93.0138 66.617C92.7487 65.8476 92.9002 65.5567 93.3452 65.9696C93.7996 66.3918 94.3393 66.2323 94.5382 65.6318C94.7465 65.0219 94.3867 64.2056 93.7523 63.8115C92.8339 63.2486 92.8339 62.9389 93.7712 62.3666C94.6897 61.813 94.5855 61.3627 93.3357 60.4619C92.4457 59.8145 91.7735 58.9794 91.8398 58.6041C92.1049 57.1404 87.617 55.6486 86.8217 56.9434C86.4051 57.6189 85.4488 58.1725 84.6913 58.1725C82.7693 58.1725 82.9587 59.1483 85.7044 63.3987C87.4371 66.0915 87.901 67.7241 87.4087 69.4318C87.0394 70.7266 86.6512 72.1997 86.5566 72.7157C86.4619 73.2318 86.3293 73.973 86.2725 74.3577C86.2062 74.7424 87.0205 75.0614 88.0715 75.0614C89.2455 75.0614 90.3438 74.1513 90.8929 72.7157ZM85.2121 72.7439C85.2121 71.8994 84.6535 71.5804 83.7729 71.9182C82.8261 72.2747 82.6652 72.7439 83.2995 73.2881C83.8298 73.7478 84.4831 74.1231 84.7387 74.1231C85.0038 74.1231 85.2121 73.5039 85.2121 72.7439ZM56.022 64.7404C55.416 64.7404 54.9237 65.6881 54.9332 66.8515C54.9332 68.015 55.1509 69.2817 55.4066 69.6664C55.6527 70.051 56.3723 69.3286 56.9877 68.0431C58.1618 65.6318 57.8967 64.7404 56.022 64.7404ZM42.066 57.938C42.975 51.0135 45.8249 44.1078 50.6252 37.1552C54.7533 31.1878 54.7533 31.1878 51.1081 27.6599C47.4628 24.132 47.4628 24.132 42.6625 30.4185C39.6517 34.3592 36.8207 39.5572 35.0596 44.3893C33.5163 48.6115 32.0204 54.5039 31.7458 57.4688C31.244 62.8639 31.244 62.8639 36.3284 62.8639C41.4127 62.8639 41.4127 62.8639 42.066 57.938ZM53.7402 56.8683C54.5071 52.8619 56.1451 48.9118 58.692 44.9335C62.5076 38.9849 62.5076 38.9849 59.2222 35.7291C55.9368 32.4733 55.9368 32.4733 51.5815 38.9098C48.9967 42.738 46.4876 47.9641 45.3893 51.7923C44.3762 55.3483 43.5525 59.2891 43.5525 60.5557C43.5525 62.6856 43.9028 62.8639 48.0688 62.8639C52.5851 62.8639 52.5851 62.8639 53.7402 56.8683ZM60.5951 60.0397C61.0495 58.4915 62.2141 56.9059 63.1988 56.5212C65.064 55.7987 71.01 49.3246 71.01 48.0298C71.01 47.617 69.5329 45.8624 67.734 44.136C63.7479 40.3078 62.6875 40.8708 58.5026 49.0431C56.9593 52.0362 55.5296 56.371 55.3119 58.6698C54.9332 62.6481 55.0373 62.8639 57.3475 62.8639C59.2411 62.8639 59.9607 62.2352 60.5951 60.0397ZM61.5419 62.8639H65.3291V60.9873H61.5419V62.8639ZM122.848 60.3399C122.848 58.1068 122.715 58.0036 121.674 59.4017C121.039 60.2743 119.799 60.9873 118.918 60.9873C118.047 60.9873 117.565 61.4096 117.839 61.9256C118.123 62.4417 119.363 62.8639 120.604 62.8639C122.412 62.8639 122.848 62.3666 122.848 60.3399ZM133.045 53.2185C131.691 48.0861 131.341 47.6733 124.173 42.738C120.074 39.9044 116.476 37.8214 116.192 38.1029C115.538 38.7503 119.203 45.0367 120.235 45.0367C120.651 45.0367 121.295 46.2002 121.674 47.617C122.157 49.3903 122.535 49.7562 122.886 48.7898C123.255 47.7952 123.757 48.2081 124.58 50.1972C125.234 51.7454 125.48 53.1152 125.13 53.2466C124.789 53.3686 124.609 55.5923 124.741 58.1725C124.978 62.8639 124.978 62.8639 129.712 62.8639C135.223 62.8639 135.421 62.2822 133.045 53.2185ZM146.329 57.4688C145.297 48.7617 140.695 37.4273 135.336 30.4185C130.536 24.1414 130.536 24.1414 127.288 27.2659C123.189 31.1972 123.179 31.0752 128.368 36.9113C130.839 39.6792 132.884 43.0007 133.111 44.5864C133.329 46.1251 134.143 50.8634 134.92 55.1231C136.34 62.8639 136.34 62.8639 141.661 62.8639C146.972 62.8639 146.972 62.8639 146.329 57.4688ZM119.316 50.6757C118.237 50.1034 117.754 49.0807 118.038 48.0017C118.313 46.9602 117.527 45.1493 116.106 43.5355C113.72 40.8145 113.72 40.8145 110.227 44.2392C107.102 47.298 106.875 47.8422 108.049 49.4091C109.848 51.8298 114.516 54.6728 116.873 54.7948C117.972 54.8417 118.786 55.4985 118.748 56.296C118.701 57.0654 118.597 58.0224 118.511 58.4071C118.426 58.7918 118.758 59.1108 119.259 59.1108C122.441 59.1108 122.478 52.3552 119.316 50.6757ZM75.4978 51.8767C73.5758 49.972 72.6574 49.5967 71.8526 50.3943C71.0478 51.1918 71.2845 51.8392 72.79 52.937C73.8883 53.7533 75.5357 54.4194 76.4352 54.4194C77.7512 54.4194 77.5714 53.9315 75.4978 51.8767ZM86.0548 51.6046C87.8253 51.6046 88.0525 51.0604 88.0525 46.8382C88.0525 41.3306 86.0453 41.0866 77.7702 45.5903C73.6326 47.8422 73.6326 47.8422 77.0601 51.1261C80.194 54.1473 80.6295 54.3069 82.2675 53.012C83.2617 52.2427 84.9659 51.6046 86.0548 51.6046ZM98.4485 50.0565C98.3822 49.6999 99.5373 48.9118 101.005 48.3113C103.949 47.1103 101.298 45.0461 94.2731 43.0476C89.9745 41.8185 89.9461 41.8466 89.9461 46.9133C89.9461 51.614 91.6031 53.2935 93.4209 50.4318C93.9511 49.5967 94.273 49.7938 94.5382 51.1261C94.737 52.1488 95.2767 53.3123 95.7406 53.7064C96.1951 54.1004 97.0188 53.5844 97.5679 52.571C98.1171 51.5483 98.5053 50.4224 98.4485 50.0565ZM111.013 38.5064C108.977 35.2599 96.1951 30.0244 90.287 30.0244C90.0976 30.0244 89.9461 32.3044 89.9461 35.091C89.9461 40.1577 89.9461 40.1577 94.8033 41.3118C97.4733 41.9498 100.882 43.4698 102.378 44.6896C105.095 46.9133 105.095 46.9133 108.646 43.6481C111.789 40.7676 112.064 40.1765 111.013 38.5064ZM76.1038 44.1735C77.7323 43.179 81.084 41.856 83.5552 41.2461C88.0525 40.1202 88.0525 40.1202 88.0525 35.0629C88.0525 30.0056 88.0525 30.0056 84.0286 30.5592C79.02 31.2629 68.4536 36.1701 67.005 38.4688C66.1055 39.9044 66.4179 40.655 68.9365 43.0757C70.6028 44.6708 72.2219 45.975 72.5533 45.975C72.8846 45.975 74.4848 45.1587 76.1038 44.1735ZM69.2678 34.2278C72.3734 32.2106 76.9749 30.3246 81.1882 29.3488C88.0525 27.7631 88.0525 27.7631 88.0525 23.3533C88.0525 18.9434 88.0525 18.9434 81.1882 20.1162C74.2291 21.3078 65.2155 25.2673 60.2069 29.3394C57.4611 31.5819 57.4611 31.5819 59.9702 34.5562C61.3525 36.1888 62.8769 37.5306 63.3503 37.5306C63.8237 37.5306 66.4937 36.0481 69.2678 34.2278ZM116.646 33.5898C116.116 33.0644 115.245 32.8955 114.715 33.2145C114.184 33.5429 113.938 34.4343 114.156 35.1943C114.383 35.9636 114.961 36.5923 115.453 36.5923C116.911 36.5923 117.688 34.6219 116.646 33.5898ZM110.142 25.7083C108.106 23.0249 102.52 20.7449 95.485 19.7315C92.7013 19.3281 90.3817 18.9434 90.3438 18.8777C90.3059 18.8214 90.2207 20.7918 90.1639 23.2782C90.0598 27.7913 90.0598 27.7913 97.3407 29.5552C101.346 30.531 105.815 31.3473 107.282 31.3755C108.74 31.4036 110.34 31.9572 110.833 32.6046C111.325 33.252 111.959 33.7775 112.253 33.7775C113.342 33.7775 111.798 27.8945 110.142 25.7083ZM60.6045 26.731C66.9576 22.1054 74.6931 18.934 81.6426 18.0802C87.5791 17.3577 87.5791 17.3577 87.8632 12.4318C88.1472 7.50586 88.1472 7.50586 83.8771 7.50586C74.8729 7.50586 56.2871 15.2841 50.8524 21.3266C49.2239 23.1468 49.2618 23.3157 52.0359 26.6185C53.6171 28.495 55.1793 30.0244 55.5012 30.0244C55.8137 30.0244 58.1144 28.5419 60.6045 26.731ZM127.336 21.5424C121.731 15.3123 103.277 7.50586 94.1689 7.50586C89.9461 7.50586 89.9461 7.50586 89.9461 10.893C89.9461 13.6891 90.2207 14.1676 91.5557 13.6609C94.6991 12.4693 101.895 11.9626 100.361 13.0417C99.5846 13.5952 97.9845 14.055 96.8105 14.055C95.6365 14.0644 94.6802 14.5429 94.6802 15.1246C94.6802 15.7439 93.8281 15.9503 92.5877 15.6313C90.1923 15.0027 89.4822 15.3873 90.3817 16.8229C90.7225 17.3765 92.5025 17.8268 94.3299 17.8268C96.1667 17.8268 100.816 18.8777 104.669 20.1538C110.104 21.9646 112.225 22.2836 114.128 21.5612C117.413 20.332 118.587 20.3977 118.104 21.8145C117.886 22.4619 118.483 23.5409 119.449 24.2165C120.405 24.892 121.191 25.9523 121.191 26.5903C121.191 27.2189 121.617 28.0352 122.138 28.4106C122.658 28.7859 124.467 27.857 126.152 26.3651C129.229 23.6441 129.229 23.6441 127.336 21.5424Z" fill="#E84C6D"/>
<path d="M79.6839 133.047C82.4202 131.527 83.083 130.795 81.9373 130.57C81.0378 130.392 76.834 132.372 72.5828 134.971C59.9903 142.655 52.0371 143.443 43.0519 137.907C37.4562 134.464 37.8066 133.939 44.7561 135.393C49.6701 136.416 50.721 136.322 56.5534 134.323C77.2127 127.23 74.5901 127.708 90.6953 128.027C105.57 128.309 105.57 128.309 115.511 132.25C125.642 136.275 129.495 136.697 137.288 134.642C141.937 133.423 134.788 138.714 129.458 140.441C122.281 142.768 115.577 141.285 105.664 135.168C95.3631 128.816 92.2575 129.003 101.877 135.402C111.525 141.829 112.292 142.758 109.821 144.963C107.975 146.624 107.795 146.54 102.019 141.079C89.7674 129.51 87.2868 129.557 75.3097 141.632C72.7249 144.241 70.2726 146.371 69.8655 146.371C69.4489 146.371 68.4642 145.545 67.6594 144.55C66.0593 142.543 70.8502 137.954 79.6839 133.047Z" fill="#E84C6D"/>
<path d="M23.206 21.7394C26.766 18.9621 28.991 19.009 26.5482 21.8144C24.8818 23.7191 21.7763 33.205 21.7763 36.3764C21.7763 37.9245 34.8612 27.8006 35.7133 25.5957C36.0542 24.7324 36.4802 24.4885 36.6791 25.0608C37.5407 27.6411 33.3652 33.8712 25.7624 41.3305C21.2272 45.7779 17.4115 49.4841 17.279 49.5685C17.1464 49.6623 17.0517 45.609 17.0612 40.5799C17.0896 30.2776 18.737 25.2297 23.206 21.7394ZM38.8189 13.6608L44.0263 11.165C36.6885 21.5423 32.4374 26.4213 29.8431 28.7013C27.2489 30.972 25.0049 32.8391 24.8724 32.8391C24.7303 32.8391 24.6167 32.4357 24.6167 31.9384C24.6167 25.4643 30.8089 17.489 38.8189 13.6608Z" fill="#E84C6D"/>
<path d="M11.0009 100.977C10.3666 98.4621 10.4518 98.4997 13.4532 101.924C15.8297 104.636 30.0413 113.728 37.1897 117.115C37.6063 117.303 36.8867 115.923 35.599 114.047C34.3114 112.17 32.6071 107.516 31.8118 103.698C31.0165 99.8883 30.1075 95.5816 29.7856 94.1273C28.3843 87.7189 35.1162 98.2182 39.2632 108.896C41.5734 114.854 44.3381 120.512 45.408 121.469C46.4684 122.426 47.3395 123.354 47.3395 123.523C47.3395 123.702 46.4873 123.852 45.4458 123.852C44.4043 123.852 40.1153 122.979 35.902 121.91C24.1616 118.926 13.2165 109.731 11.0009 100.977Z" fill="#E84C6D"/>
<path d="M138.67 108.961C141.511 101.127 147.229 91.1716 148.28 92.2131C149.066 92.9919 144.626 110.453 142.912 113.352C141.899 115.06 141.075 116.552 141.075 116.664C141.075 117.622 161.119 105.508 163.306 103.238C167.567 98.8186 167.51 101.755 163.221 107.835C157.777 115.567 151.121 119.845 141.189 122.022C136.701 123.007 132.497 123.823 131.844 123.833C131.153 123.842 131.654 122.623 133.027 120.924C134.324 119.31 136.862 113.925 138.67 108.961Z" fill="#E84C6D"/>
<path d="M24.6172 121.074C24.6172 120.69 26.6434 121.384 29.1335 122.594C32.5609 124.283 35.9126 124.949 43.0989 125.39C52.548 125.972 52.548 125.972 49.5183 122.801C47.1796 120.352 40.8265 110.434 40.7319 109.074C40.6277 107.704 43.9226 110.153 51.0331 116.721C57.4904 122.698 60.7663 125.015 64.5725 126.291C69.5906 127.971 69.5906 127.971 61.0693 130.063C56.3826 131.217 49.6697 132.193 46.1571 132.23C41.4893 132.277 38.7341 131.78 35.9316 130.373C32.0402 128.421 24.6172 122.322 24.6172 121.074Z" fill="#E84C6D"/>
<path d="M113.921 126.095C117.452 124.725 121.58 121.76 127.318 116.477C131.882 112.274 136.029 108.84 136.54 108.84C137.894 108.84 131.314 120.193 128.416 122.839C127.053 124.087 126.135 125.316 126.39 125.56C127.706 126.864 144.758 124.64 148.697 122.642C151.017 121.469 153.09 120.634 153.317 120.784C154.312 121.46 147.703 127.183 143.111 129.613C138.945 131.818 136.881 132.297 131.512 132.297C127.763 132.297 121.533 131.396 116.903 130.186C108.817 128.074 108.817 128.074 113.921 126.095Z" fill="#E84C6D"/>
<path d="M148.129 106.747C148.886 104.955 149.975 98.8934 150.543 93.2637C151.121 87.6435 152.086 81.1413 152.702 78.8143C153.81 74.5921 153.81 74.5921 155.04 80.2217C155.713 83.318 156.29 88.5536 156.319 91.8469L156.366 97.8425C167.131 86.1141 170.54 81.798 170.899 80.6909C172.017 77.2099 172.613 79.4899 171.979 84.8099C171.098 92.2129 166.677 97.8519 156.177 104.964C151.509 108.126 147.475 110.716 147.22 110.716C146.964 110.716 146.756 110.556 146.756 110.359C146.756 110.162 147.371 108.539 148.129 106.747Z" fill="#E84C6D"/>
<path d="M5.69942 81.8547C5.70889 78.3456 5.70889 78.3456 7.82974 81.7703C9.64761 84.7164 21.9183 99.1846 22.4295 98.9969C22.5337 98.9688 22.2496 97.3174 21.7952 95.3377C21.2366 92.8794 21.4638 89.0043 22.4863 83.1683C24.3326 72.6784 25.6392 75.2586 27.4192 92.9732C28.0062 98.7342 29.114 104.955 29.8809 106.785C30.6573 108.614 31.0644 110.247 30.7898 110.416C30.5247 110.575 27.1352 108.624 23.2722 106.062C10.9258 97.8616 5.66155 90.6182 5.69942 81.8547Z" fill="#E84C6D"/>
<path d="M156.232 74.0296C154.679 68.6627 153.401 62.395 153.392 60.1056C153.382 55.9491 153.382 55.9491 157.131 62.6765C159.195 66.3827 161.354 71.1772 161.941 73.3353C163.011 77.2572 163.011 77.2572 166.694 68.4187C168.796 63.3708 170.396 57.9757 170.415 55.8271C170.462 50.7886 172.034 53.2187 172.829 59.5708C173.862 67.7901 171.296 75.8498 165.056 83.9846C162.093 87.8503 159.527 91.0123 159.366 91.0123C159.195 91.0123 159.063 89.3891 159.063 87.3999C159.063 85.4202 157.785 79.4059 156.232 74.0296Z" fill="#E84C6D"/>
<path d="M5.70897 57.1877C6.93035 52.0741 6.93035 52.0741 7.51737 56.3807C7.83929 58.7452 9.58142 64.3748 11.3898 68.8785C14.6752 77.0884 14.6752 77.0884 16.0955 72.9694C16.8813 70.7081 19.0116 66.0919 20.8295 62.7047C25.27 54.4667 25.9423 59.1393 22.2118 72.3314C20.839 77.1822 19.3241 83.3748 18.8507 86.0864C17.9891 91.0123 17.9891 91.0123 12.4218 83.1872C5.61429 73.6168 3.63546 65.9417 5.70897 57.1877Z" fill="#E84C6D"/>
<path d="M12.2986 34.9509C14.7698 30.9351 14.9118 31.0477 14.7982 36.8274C14.5047 51.3331 15.1296 56.9533 16.7013 53.9509C18.1025 51.2674 28.5364 40.3178 29.1802 40.8526C30.2312 41.7252 26.728 49.3346 21.9087 56.6531C18.8126 61.3632 16.0006 66.1578 15.6503 67.3212C15.3 68.4847 14.836 69.4324 14.6088 69.4324C14.3816 69.4324 12.8762 64.7504 11.2571 59.0269C7.99062 47.4956 8.24626 41.5375 12.2986 34.9509Z" fill="#E84C6D"/>
<path d="M155.74 55.8269C147.048 42.3158 146.414 38.1968 154.159 45.4966C157.302 48.4615 160.436 52.2146 161.127 53.8284C162.538 57.1405 164.29 41.6309 163.286 34.7158C162.519 29.4427 166.392 34.6314 168.115 41.1899C169.952 48.1706 169.914 48.5741 166.467 59.7114C164.811 65.0595 163.315 69.4319 163.154 69.4319C162.983 69.4319 162.604 68.4842 162.311 67.3208C162.017 66.1573 159.054 60.9874 155.74 55.8269Z" fill="#E84C6D"/>
<path d="M141.074 25.3712C141.084 24.4141 141.794 24.7988 143.205 26.5252C145.562 29.4057 155.532 37.4561 156.119 36.9588C156.99 36.2176 153.174 23.5697 151.593 21.9465C149.103 19.385 151.167 19.1129 154.509 21.5618C159.187 24.9959 160.91 30.0907 160.938 40.5806C160.948 45.6097 160.749 49.7287 160.484 49.7287C160.228 49.7287 156.517 46.0319 152.237 41.5188C144.672 33.5247 141.065 28.308 141.074 25.3712Z" fill="#E84C6D"/>
<path d="M134.087 11.4284C134.181 11.2595 136.766 12.3479 139.824 13.8492C146.48 17.1237 149.813 20.8111 151.991 27.2946C152.881 29.9499 153.345 32.2862 153.023 32.4832C152.701 32.6803 150.514 31.0477 148.175 28.8521C144.199 25.1366 133.661 12.104 134.087 11.4284Z" fill="#E84C6D"/>
<path d="M115.151 45.0371H116.041C116.912 45.0371 116.06 49.203 115.037 49.9443C114.517 50.329 113.769 50.648 113.381 50.648C112.992 50.6574 113.144 49.4001 113.731 47.8519C114.318 46.3038 114.952 45.0371 115.151 45.0371Z" fill="#E84C6D"/>
<path d="M119.44 41.5187C119.364 41.3874 119.705 41.2842 120.198 41.2842C120.974 41.2842 123.938 46.0506 123.549 46.6792C123.464 46.8106 123.114 46.9138 122.773 46.9138C122.423 46.9138 121.561 45.7504 120.86 44.3336C120.15 42.9168 119.516 41.6501 119.44 41.5187Z" fill="#E84C6D"/>
<path d="M102.728 28.148C103.514 28.7861 104.148 29.471 104.148 29.668C104.148 29.8651 103.722 30.0246 103.201 30.0246C102.68 30.0246 102.046 29.7056 101.8 29.3209C100.796 27.7915 101.383 27.0409 102.728 28.148Z" fill="#E84C6D"/>
</g>
<defs>
<clipPath id="clip0_318_574">
<rect width="178" height="152" fill="white"/>
</clipPath>
</defs>
</svg>
