<svg width="200" height="168" viewBox="0 0 200 168" fill="none" xmlns="http://www.w3.org/2000/svg">
<path d="M43.8565 91.3486C45.3334 88.1167 46.139 85.911 45.6499 86.4384C45.0745 87.0618 44.1059 86.6015 42.8783 85.115C38.6299 80.0034 60.6777 69.5789 81.5075 66.8457C90.9634 65.599 94.7515 64.7071 96.2955 63.3453C98.3382 61.5328 98.4341 61.5424 102.759 63.6426C105.608 65.0332 111.189 66.2895 118.66 67.2197C128.902 68.5144 131.434 69.2337 141.686 73.837C155.237 79.9075 158.056 82.3243 155.102 85.3164C153.53 86.9179 153.06 87.0138 152.484 85.8918C151.995 84.9328 151.784 85.1821 151.765 86.7261C151.755 87.9345 152.83 90.169 154.143 91.6938C158.699 96.9397 157.605 101.351 151.506 102.329C148.735 102.77 124.788 103.154 98.2807 103.173C68.4841 103.202 48.5365 102.847 46.0143 102.233C40.7589 100.968 40.3753 99.0015 43.8565 91.3486ZM96.1229 100.344H97.0819V94.5901H96.1229V100.344ZM100.918 100.344H101.877V94.5901H100.918V100.344ZM54.7509 86.1987C54.6263 81.0679 54.5687 80.9529 54.0125 84.5204C53.6864 86.6302 53.533 89.1141 53.6673 90.0347C53.8111 90.9554 54.1468 91.713 54.4057 91.713C54.6742 91.713 54.8277 89.2292 54.7509 86.1987ZM47.2131 90.754H48.1721V82.1229H47.2131V90.754ZM49.1311 90.754H50.0901V82.1229H49.1311V90.754ZM51.0491 90.754H52.0082V81.1638H51.0491V90.754ZM145.992 90.754H146.951V81.1638H145.992V90.754ZM147.91 90.754H148.869V82.1229H147.91V90.754ZM149.828 90.754H150.787V82.1229H149.828V90.754ZM55.8442 89.795H56.8032V81.1638H55.8442V89.795ZM58.7213 89.795H59.6803V80.2048H58.7213V89.795ZM61.5983 89.795H62.5573V80.2048H61.5983V89.795ZM135.443 89.795H136.402V80.2048H135.443V89.795ZM138.32 89.795H139.279V80.2048H138.32V89.795ZM141.197 89.795H142.156V81.1638H141.197V89.795ZM143.115 89.795H144.074V81.1638H143.115V89.795ZM65.4344 88.836H66.3934V79.2458H65.4344V88.836ZM69.2705 88.836H70.2295V78.2868H69.2705V88.836ZM73.1065 88.836H74.0655V78.2868H73.1065V88.836ZM77.9016 88.836H78.8606V78.2868H77.9016V88.836ZM83.6557 88.836H84.6147V77.3278H83.6557V88.836ZM113.385 88.836H114.344V77.3278H113.385V88.836ZM119.139 88.836H120.098V78.2868H119.139V88.836ZM123.934 88.836H124.893V78.2868H123.934V88.836ZM127.77 88.836H128.729V78.2868H127.77V88.836ZM131.607 88.836H132.566V79.2458H131.607V88.836ZM91.2319 75.6495C91.2895 75.5152 90.7908 75.4097 90.1291 75.4097C89.2659 75.4097 88.9974 77.1647 89.17 81.6434L89.4098 87.877C90.7524 78.5841 91.184 75.7838 91.2319 75.6495ZM95.1639 87.877H96.1229V77.3278H95.1639V87.877ZM101.877 87.877H102.836V77.3278H101.877V87.877ZM107.631 87.877H108.59V77.3278H107.631V87.877Z" fill="#E84C6D"/>
<path d="M84.8833 147.384C90.2825 142.656 88.7769 142.905 78.8606 148.401C68.6471 154.049 62.3272 154.509 53.5042 150.242C47.7118 147.432 48.6229 146.53 56.6594 147.106C62.7875 147.537 64.1685 147.24 75.5424 142.982C93.6295 136.221 106.173 136.192 123.733 142.867C135.596 147.374 141.59 148.266 147.91 146.463C151.017 145.571 151.592 147.068 148.878 148.976C140.65 154.73 131.837 154.375 120.012 147.816C114.785 144.919 110.345 142.541 110.134 142.541C109.933 142.541 112.628 145.36 116.128 148.803C122.477 155.037 122.486 155.066 120.242 156.322C118.123 157.502 117.739 157.271 113.807 152.486C104.14 140.738 95.7681 140.757 86.0629 152.553C83.6461 155.488 81.4692 157.885 81.2294 157.885C80.9801 157.885 80.1074 157.233 79.2826 156.428C77.5276 154.701 78.6976 152.822 84.8833 147.384Z" fill="#E84C6D"/>
<path d="M36.4242 130.429C31.1016 127.686 21.5594 115.362 22.5568 112.505C22.7678 111.881 21.7033 109.148 20.1785 106.434C17.7617 102.118 14.6737 89.7951 16.0067 89.7951C16.2753 89.7951 17.1384 91.3104 17.9056 93.1709C18.9893 95.7506 32.1949 109.887 33.5663 109.925C33.7102 109.934 33.5471 108.822 33.2019 107.451C32.8566 106.089 32.9142 100.805 33.317 95.7027C34.1321 85.4987 35.868 85.5946 37.2681 95.9232C37.7476 99.4524 39.0231 102.09 42.3893 106.549C45.1129 110.145 48.2585 116.072 50.3779 121.615C52.3055 126.65 54.7414 131.79 55.7867 133.056C56.8416 134.313 57.7144 135.454 57.7335 135.588C57.7527 135.722 57.1102 135.828 56.3238 135.828C55.5374 135.828 51.3273 134.917 46.9734 133.804C42.6194 132.692 37.8723 131.167 36.4242 130.429ZM45.4677 125.039C44.4224 123.322 42.7729 119.122 41.8043 115.689C40.8357 112.265 39.9246 110.318 39.7903 111.373C39.6561 112.428 40.126 115.449 40.8357 118.086C42.5427 124.416 42.677 124.396 33.6814 118.671C25.8462 113.684 23.2857 112.735 27.3135 116.312C28.5027 117.367 33.0293 120.455 37.3832 123.188C41.7371 125.921 45.765 128.156 46.3308 128.156C46.9062 128.156 46.513 126.756 45.4677 125.039Z" fill="#E84C6D"/>
<path d="M149.905 120.484C151.727 115.353 154.393 110.27 157.097 106.77C160.176 102.799 161.672 99.7881 162.333 96.2206C164.299 85.6331 165.537 84.559 166.419 92.6722C166.85 96.633 166.985 102.195 166.716 105.044C166.237 110.222 166.237 110.222 173.18 103.49C176.987 99.7881 180.919 94.9739 181.897 92.7969C184.151 87.7908 184.515 87.8196 183.796 92.912C182.051 105.312 177.802 111.373 165.728 118.738C157.538 123.735 157.001 123.85 158.306 120.378C158.775 119.112 159.428 115.928 159.763 113.291C160.32 108.88 160.137 109.148 157.538 116.648C155.985 121.136 154.287 125.432 153.76 126.209C153.242 126.986 152.897 127.705 153.002 127.82C153.645 128.463 171.885 117.29 174.216 114.835C178.157 110.673 178.378 111.824 174.858 118.067C170.034 126.612 163.484 131.33 153.021 133.785C148.236 134.907 143.834 135.828 143.239 135.828C142.645 135.828 143.249 134.207 144.582 132.232C145.915 130.256 148.313 124.972 149.905 120.484Z" fill="#E84C6D"/>
<path d="M160.185 54.5609C159.562 52.0482 158.018 48.8547 156.762 47.4641C154.527 44.9995 151.506 37.9411 152.331 37.1068C152.561 36.8766 153.923 38.0082 155.361 39.6194C156.8 41.2209 159.725 43.8582 161.844 45.4694C163.973 47.0709 166.313 49.5068 167.042 50.8686C169.008 54.5513 169.075 53.4964 167.272 47.3011C166.381 44.261 165.517 42.4293 165.345 43.2253C164.808 45.7763 160.511 42.0841 153.117 32.7336C145.397 22.9709 145.388 22.9421 150.442 25.0519C155.198 27.0371 160.665 32.3788 162.823 37.1547C163.753 39.2166 164.712 40.7031 164.961 40.4537C165.211 40.2044 164.51 38.1809 163.398 35.9463C160.952 30.9978 161.298 30.4512 165.143 33.194C170.734 37.1739 172.307 42.2759 172.029 55.4719C171.885 61.8973 171.885 61.8973 167.435 57.1502C161.039 50.3028 160.387 51.2906 166.534 58.5024C169.91 62.4536 172.02 65.9156 172.518 68.3323C173.458 72.9164 175.088 52.3647 174.264 46.3325C173.573 41.3264 175.175 42.5732 177.601 48.9506C180.305 56.0186 180.133 63.566 177.054 73.2521C175.664 77.606 174.369 81.164 174.168 81.164C173.966 81.164 170.993 76.2059 167.57 70.1449C164.136 64.0839 160.818 57.0735 160.185 54.5609Z" fill="#E84C6D"/>
<path d="M122.016 140.182C119.926 139.693 120.616 139.127 127.387 135.847C132.633 133.296 136.028 130.927 137.84 128.549C140.477 125.096 146.864 120.081 147.641 120.858C148.418 121.625 142.3 132.519 139.768 134.869C137.188 137.266 137.188 137.266 143.268 137.516C149.329 137.775 157.318 136.317 162.775 133.958C165.306 132.864 165.095 133.248 161.02 137.132C157.903 140.105 154.786 142.033 151.497 143.011C148.802 143.807 144.525 144.459 141.983 144.459C139.442 144.459 134.445 143.625 130.887 142.608C127.329 141.582 123.34 140.489 122.016 140.182Z" fill="#E84C6D"/>
<path d="M34.8418 133.507C35.1487 133.191 37.5175 133.862 40.0973 135.003C43.4442 136.48 47.4145 137.209 53.9167 137.525C63.0369 137.976 63.0369 137.976 60.2558 135.022C57.3979 131.982 50.915 121.26 51.5479 120.618C52.3918 119.784 58.5391 124.55 62.0396 128.76C64.9454 132.241 67.3909 133.958 72.349 135.972C81.4596 139.683 81.5172 139.578 69.0883 142.368C63.9768 143.519 58.05 144.459 55.9018 144.459C53.7632 144.459 49.745 143.596 46.9734 142.531C41.8714 140.575 33.7869 134.572 34.8418 133.507Z" fill="#E84C6D"/>
<path d="M32.9333 35.0257C37.0475 30.9115 39.4163 30.0484 37.2585 33.4529C36.0885 35.2942 30.9098 51.07 30.9098 52.7771C30.9098 53.1031 32.5306 51.5879 34.5061 49.4205C40.8932 42.4101 46.7144 37.4616 47.0501 38.7562C47.6543 41.1058 42.4756 48.2793 37.2585 52.2976C34.3719 54.5321 31.3222 57.4091 30.4783 58.6942C29.6343 59.9697 28.7424 61.0246 28.4931 61.0246C28.2342 61.0246 27.8314 58.1859 27.582 54.7047C26.9011 45.2392 28.4643 39.4947 32.9333 35.0257ZM52.7946 24.0929C53.2261 24.5244 41.6316 38.6316 38.4093 41.6045C37.1147 42.7937 35.7624 43.7623 35.4076 43.7623C35.0432 43.7623 34.7459 43.3787 34.7459 42.9184C34.7459 36.8574 49.8312 21.1199 52.7946 24.0929Z" fill="#E84C6D"/>
<path d="M167.55 85.0384C166.246 79.5241 165.21 73.4823 165.249 71.6122C165.364 66.539 172.01 80.5119 172.652 87.1675C173.113 92.0105 173.113 92.0105 174.81 86.8222C175.74 83.9739 177.611 79.0542 178.972 75.8894C180.325 72.7247 181.466 68.6297 181.514 66.7788C181.59 63.5373 181.629 63.5085 182.588 65.8197C185.733 73.4247 181.638 90.3706 174.647 98.6661C172.537 101.169 170.619 103.221 170.389 103.221C170.159 103.221 169.958 101.39 169.948 99.1456C169.938 96.9015 168.864 90.5528 167.55 85.0384Z" fill="#E84C6D"/>
<path d="M17.0713 68.0349C17.8481 64.381 17.8481 64.381 18.3851 67.7759C18.6824 69.6364 20.6484 75.6878 22.7582 81.2214C26.5943 91.2814 26.5943 91.2814 27.2368 86.4864C28.052 80.4062 34.1322 67.2677 34.5445 70.7105C34.6884 71.9764 33.5376 78.6224 31.984 85.4794C30.4304 92.3364 29.385 99.1358 29.6632 100.584C29.9509 102.032 29.9125 103.221 29.5864 103.221C29.2604 103.221 27.4095 101.389 25.4723 99.1454C18.692 91.2814 15.0094 77.673 17.0713 68.0349Z" fill="#E84C6D"/>
<path d="M22.6622 73.0123C19.5646 63.4989 19.7372 53.4196 23.0938 46.8791C25.1653 42.8608 26.9299 41.2209 25.6735 44.4816C25.3187 45.4022 25.3379 51.9715 25.7119 59.0874C26.3832 71.7752 26.4216 71.9286 27.6587 67.7185C28.8191 63.7866 39.0902 50.6576 40.1643 51.7317C41.0658 52.6428 36.2707 63.3071 31.9935 69.8571C29.4904 73.7028 26.9203 77.817 26.2969 79.0062C25.6735 80.1953 25.1557 81.0585 25.1557 80.9242C25.1557 80.7899 24.0336 77.232 22.6622 73.0123Z" fill="#E84C6D"/>
<path d="M101.877 53.3525C104.303 53.3525 104.754 53.7266 104.754 55.7501C104.754 57.5051 104.246 58.1476 102.836 58.1476C101.781 58.1476 100.486 57.8407 99.959 57.4571C97.7724 55.8843 98.952 53.3525 101.877 53.3525Z" fill="#E84C6D"/>
</svg>
