<svg width="190" height="188" viewBox="0 0 190 188" fill="none" xmlns="http://www.w3.org/2000/svg">
<g clip-path="url(#clip0_318_552)">
<path d="M43.6992 91.0562C43.6992 87.3531 43.6992 87.3531 55.0992 87.3531C66.4992 87.3531 66.4992 87.3531 66.4992 84.0299C66.4992 80.7067 66.4992 80.7067 55.5742 80.7067C44.6492 80.7067 44.6492 80.7067 44.6492 77.3835C44.6492 74.0602 44.6492 74.0602 55.5742 74.0602C66.4992 74.0602 66.4992 74.0602 66.4992 70.737C66.4992 67.4138 66.4992 67.4138 55.5742 67.4138C44.6492 67.4138 44.6492 67.4138 44.6492 60.2925C44.6492 50.6931 42.6542 51.2723 75.7617 51.2723C108.66 51.2723 109.61 51.4622 112.603 58.6974C115.719 66.2364 112.508 70.5376 100.224 75.2851C87.4087 80.2319 86.3922 94.3129 98.2482 102.574C104.784 107.131 104.832 112.99 98.3242 112.99C94.0682 112.99 94.0492 113.009 94.0492 116.313C94.0492 119.617 94.0682 119.636 98.3242 119.636C102.599 119.636 102.599 119.636 102.599 124.858C102.599 130.08 102.599 130.08 97.3742 130.08C94.5052 130.08 88.1497 129.026 83.2572 127.735C60.6947 121.791 43.6992 106.03 43.6992 91.0562Z" fill="#E84C6D"/>
<path d="M108.319 124.147C108.3 119.637 108.3 119.637 112.575 119.637C119.102 119.637 119.32 113.275 112.813 112.81C106.334 112.335 106.182 105.869 112.556 102.137C118.37 98.7287 120.65 94.3515 120.65 86.6131C120.65 75.5136 123.548 73.1113 136.933 73.1113C145.521 73.1113 145.521 73.1113 143.203 75.8554C141.142 78.3051 140.838 79.7768 140.363 89.3857C139.441 108.157 132.744 120.653 120.384 126.701C117.515 128.097 113.839 129.435 112.214 129.663C110.58 129.891 109.041 129.758 108.794 129.369C108.538 128.98 108.319 126.625 108.319 124.147Z" fill="#E84C6D"/>
<path d="M87.7701 146.973C89.4231 146.118 90.1072 145.292 89.4706 144.903C88.9007 144.551 85.7372 145.824 82.4501 147.742C68.5137 155.85 68.4377 155.879 61.1892 155.537C55.7552 155.281 53.6842 154.711 50.5017 152.603C45.4097 149.242 45.3052 149.318 53.9122 149.764C60.7142 150.125 62.0062 149.859 70.8792 146.374C85.6612 140.554 105.621 140.602 121.039 146.488C131.28 150.4 131.48 150.438 137.921 149.432C145.749 148.207 145.141 150.144 136.524 153.847C128.991 157.085 122.911 156.097 113.088 150.049C101.973 143.194 98.2582 143.573 108.271 150.533C117.03 156.629 117.591 157.284 115.596 159.278C114.256 160.617 113.61 160.294 108.737 155.85C96.5007 144.675 92.7102 144.779 81.2722 156.591C79.2012 158.718 77.1777 160.465 76.7597 160.465C76.3417 160.465 75.3251 159.886 74.4986 159.183C72.9312 157.844 80.8826 150.524 87.7701 146.973Z" fill="#E84C6D"/>
<path d="M20.8151 120.406C18.1456 115.183 18.6016 114.329 22.0882 118.003C24.9952 121.061 41.6012 130.603 42.4847 129.72C42.7032 129.492 42.2662 128.097 41.4967 126.606C40.1287 123.957 36.7656 108.214 37.4212 107.55C38.3047 106.676 44.7077 118.041 46.8927 124.384C48.2512 128.305 50.4172 133.005 51.7092 134.829C53.0012 136.661 54.0747 138.256 54.1032 138.389C54.1317 138.522 53.2957 138.627 52.2507 138.627C51.2057 138.627 47.4627 137.943 43.9382 137.107C33.6307 134.658 24.8431 128.315 20.8151 120.406Z" fill="#E84C6D"/>
<path d="M143.517 123.435C146.015 116.38 151.829 105.859 152.732 106.761C153.539 107.568 149.739 124.251 148.124 127.052C147.117 128.78 146.3 130.28 146.3 130.394C146.3 131.667 166.735 118.924 168.758 116.399C172.197 112.079 172.691 112.753 170.069 118.184C167.495 123.492 160.712 130.423 155.487 133.091C153.359 134.173 148.058 135.873 143.726 136.851C135.85 138.626 135.85 138.626 138.254 135.066C139.574 133.11 141.949 127.878 143.517 123.435Z" fill="#E84C6D"/>
<path d="M155.877 102.071C156.846 93.763 157.976 89.2339 158.831 90.2024C159.791 91.2943 161.463 107.236 160.912 110.018C160.038 114.386 174.307 98.3301 175.988 93.0509C177.147 89.4238 177.698 93.4877 176.691 98.3016C175.105 105.945 170.222 112.335 160.921 118.925C156.684 121.925 152.951 124.384 152.609 124.384C152.276 124.384 152.172 123.853 152.39 123.197C153.179 120.776 154.898 110.36 155.877 102.071Z" fill="#E84C6D"/>
<path d="M31.5962 135.208C31.7577 135.046 34.0187 135.948 36.6122 137.211C44.1362 140.876 61.7777 142.177 57.7307 138.768C54.9662 136.452 47.7937 124.716 48.6297 123.89C48.8482 123.662 52.9712 127.071 57.7877 131.457C64.2857 137.382 67.8102 139.86 71.4677 141.076C76.3792 142.699 76.3792 142.699 67.4017 144.902C62.4617 146.108 56.1822 147.114 53.4367 147.133C50.4062 147.152 46.5872 146.383 43.6992 145.158C39.6427 143.449 30.7127 136.1 31.5962 135.208Z" fill="#E84C6D"/>
<path d="M115.425 142.909C113.934 142.557 115.093 141.912 119.501 140.649C122.484 139.794 125.885 137.297 132.155 131.353C136.867 126.891 140.933 123.454 141.199 123.72C142.13 124.65 135.879 135.607 133.162 137.81C131.642 139.044 130.511 140.184 130.654 140.345C131.566 141.428 150.404 138.266 154.005 136.424C156.294 135.256 158.356 134.42 158.584 134.572C159.619 135.284 152.01 141.788 147.735 143.849C145.122 145.102 141.161 146.365 138.938 146.65C136.468 146.973 131.3 146.384 125.638 145.15C120.546 144.039 115.948 143.032 115.425 142.909Z" fill="#E84C6D"/>
<path d="M13.5747 98.0071C13.2232 92.6044 13.2327 92.5854 14.6102 95.5859C15.3702 97.2475 19.0182 101.862 22.7232 105.85C26.4187 109.838 29.4492 113.503 29.4492 113.997C29.4492 114.49 29.5917 114.889 29.7627 114.889C29.9432 114.889 29.8767 112.477 29.6392 109.534C29.3922 106.591 29.7532 101.14 30.4277 97.4279C31.6722 90.677 31.6722 90.677 32.8597 94.6554C33.5152 96.8487 34.5032 103.144 35.0542 108.651C35.6052 114.158 36.7262 120.235 37.5242 122.162C38.3317 124.09 38.7687 125.808 38.4932 125.979C38.2272 126.141 33.8857 123.245 28.8697 119.532C17.7547 111.309 14.0972 106.163 13.5747 98.0071Z" fill="#E84C6D"/>
<path d="M13.9646 71.0978C14.6201 67.8885 14.6201 67.8885 15.4656 72.1613C15.9311 74.516 17.7741 80.0136 19.5696 84.3908C22.8186 92.338 22.8186 92.338 24.0821 88.1508C24.7756 85.8435 26.6946 81.6942 28.3476 78.9122C30.0006 76.1396 31.4256 73.1677 31.5111 72.3037C31.5966 71.4397 31.8436 72.4366 32.0526 74.516C32.2806 76.7758 31.2546 83.0805 29.5066 90.1827C27.8916 96.7247 26.3621 103.029 26.1151 104.207C25.7066 106.058 25.0131 105.46 20.7856 99.6302C13.9266 90.1637 11.8271 81.4093 13.9646 71.0978Z" fill="#E84C6D"/>
<path d="M160.549 88.4548C156.198 72.3039 156.569 68.6484 161.632 77.7825C163.779 81.6565 165.964 86.3565 166.487 88.227C167.446 91.6261 167.446 91.6262 171.123 81.6659C173.146 76.1779 174.828 70.6233 174.866 69.3225C175.018 63.7585 176.566 70.9177 176.633 77.4977C176.718 86.1571 175.008 90.8855 168.89 98.9373C166.183 102.488 163.846 105.394 163.684 105.394C163.532 105.394 163.399 103.96 163.399 102.213C163.399 100.466 162.117 94.2752 160.549 88.4548Z" fill="#E84C6D"/>
<path d="M95.2949 89.2092C95.2949 86.6041 96.3303 84.1057 98.1734 82.2637C100.016 80.4216 102.516 79.3867 105.123 79.3867C107.729 79.3867 110.229 80.4216 112.072 82.2637C113.915 84.1057 114.95 86.6041 114.95 89.2092C114.95 91.8143 113.915 94.3127 112.072 96.1548C110.229 97.9969 107.729 99.0318 105.123 99.0318C102.516 99.0318 100.016 97.9969 98.1734 96.1548C96.3303 94.3127 95.2949 91.8143 95.2949 89.2092Z" fill="#E84C6D"/>
<path d="M160.483 71.6874C150.983 58.7173 150.422 52.7164 159.618 62.3728C165.774 68.8389 165.774 68.8389 166.544 64.0914C166.971 61.4803 167.171 56.4859 166.99 52.9918C166.61 45.4528 167.95 45.6617 170.999 53.6375C173.574 60.3789 173.393 66.2468 170.306 76.169C168.881 80.755 167.598 84.5055 167.456 84.5055C167.313 84.5055 166.781 83.1193 166.278 81.4197C165.765 79.7201 163.152 75.3429 160.483 71.6874Z" fill="#E84C6D"/>
<path d="M19.5614 52.412C20.9104 49.6964 22.0884 47.4746 22.1739 47.4746C22.2594 47.4746 22.3734 51.0352 22.4304 55.3934C22.6299 70.9176 22.8294 71.1075 30.1919 63.2077C33.6974 59.4382 36.7279 56.4663 36.9179 56.6087C37.9154 57.3494 33.7734 66.2366 29.4699 72.6172C26.7624 76.6146 24.1214 81.1342 23.5894 82.6724C23.0479 84.2011 22.4399 85.4544 22.2309 85.4544C22.0219 85.4544 20.7869 81.6184 19.4759 76.9374C16.3314 65.6764 16.3599 58.8306 19.5614 52.412Z" fill="#E84C6D"/>
<path d="M154.973 55.0806C151.126 51.7668 147.383 47.646 146.661 45.9274C144.97 41.8826 144.979 39.7937 146.68 42.025C147.915 43.6486 159.847 53.0107 160.303 52.7163C160.882 52.327 156.693 39.1765 155.458 37.5054C153.244 34.5145 154.622 34.4765 158.327 37.4294C160.198 38.9202 162.602 42.1105 163.685 44.5222C165.385 48.3012 165.566 49.9628 165.005 56.7327C164.445 63.3981 164.169 64.3096 163.162 62.8379C162.507 61.8789 158.821 58.3943 154.973 55.0806Z" fill="#E84C6D"/>
<path d="M31.2067 38.0838C34.8262 35.5012 35.6432 35.5486 33.7337 38.2167C32.3562 40.1442 29.4967 49.9905 29.4587 52.9244C29.4492 54.3392 42.7017 43.8947 42.8632 42.366C42.9202 41.7868 43.1767 42.1002 43.4237 43.0781C44.1077 45.7462 39.5002 52.0699 32.7742 57.6814C29.4872 60.4349 26.5517 63.3119 26.2572 64.0905C25.9532 64.8785 25.4782 65.5147 25.2027 65.5147C24.9272 65.5147 24.6992 61.3464 24.6992 56.2476C24.6992 45.8222 26.2002 41.6444 31.2067 38.0838Z" fill="#E84C6D"/>
<path d="M138.33 27.6498C138.957 26.8902 146.149 30.3843 149.132 32.891C152.324 35.578 156.751 43.1645 156.751 45.956C156.751 46.7916 156.323 47.4752 155.801 47.4752C155.278 47.4752 152.78 45.2344 150.253 42.4904C144.439 36.1952 137.95 28.1245 138.33 27.6498Z" fill="#E84C6D"/>
<path d="M48.6883 28.8931C51.5573 28.219 44.2518 38.4071 36.9083 45.3384C35.1033 47.038 33.3363 48.4243 32.9658 48.4243C32.6048 48.4243 32.5668 47.2469 32.8803 45.8131C34.5333 38.4261 41.9528 30.4883 48.6883 28.8931Z" fill="#E84C6D"/>
</g>
<defs>
<clipPath id="clip0_318_552">
<rect width="190" height="188" fill="white"/>
</clipPath>
</defs>
</svg>
