<svg width="185" height="183" viewBox="0 0 185 183" fill="none" xmlns="http://www.w3.org/2000/svg">
<g clip-path="url(#clip0_36_4)">
<path d="M86.8456 95.4256C76.903 78.8229 74.9202 71.5123 76.59 57.6024C77.7569 47.8835 77.7569 47.8835 79.3223 52.1504C83.5251 63.5286 86.6653 68.7247 95.403 78.7185C100.384 84.4171 105.905 91.6803 107.67 94.8472C109.444 98.0236 111.152 100.356 111.465 100.043C112.746 98.7632 110.374 92.4862 101.845 74.5655C92.9269 55.8388 89.0941 44.0529 89.2269 35.8131C89.2743 33.0634 89.6823 33.5659 92.87 40.298C94.8433 44.4701 101.076 54.2838 106.731 62.1063C112.376 69.9289 118.713 79.9607 120.81 84.3887C124.614 92.4483 124.614 92.4483 125.013 87.6884C125.553 81.1933 123.229 74.8215 112.404 53.0417C107.48 43.1331 102.651 31.973 101.655 28.1992C99.0746 18.4329 127.318 59.5273 131.568 71.7209C139.67 94.9894 128.599 121.577 107.547 129.409C103.818 130.793 98.7995 132.111 96.3992 132.339C92.0256 132.746 92.0256 132.746 94.3974 127.711C98.8089 118.362 97.6705 113.489 86.8456 95.4256Z" fill="#E84C6D"/>
<path d="M75.1385 122.601C53.8967 110.341 47.4359 96.9332 53.1187 76.8411C55.4905 68.4497 55.5 68.4592 55.5 78.5099C55.5 89.7744 59.1905 97.047 67.9377 103.002C77.8044 109.724 78.6108 109.487 74.0664 101.21C71.1254 95.8523 69.9679 92.4578 69.2754 87.1384C67.5961 74.1957 68.1369 73.6742 71.6472 84.8249C74.1138 92.6758 79.7208 101.352 86.1626 107.297C90.6026 111.403 92.4621 116.267 91.7031 121.833C91.3046 124.725 90.3369 126.564 88.2687 128.356C85.7831 130.508 85.2992 130.641 84.749 129.314C84.3979 128.47 80.0718 125.455 75.1385 122.601Z" fill="#E84C6D"/>
<path d="M83.4777 144.333C86.7319 142.38 87.3201 141.697 85.9729 141.441C84.9957 141.251 81.0395 143.1 77.1688 145.547C65.917 152.667 57.9667 153.473 49.0867 148.372C44.2862 145.613 42.9865 143.565 47.028 145.091C52.0657 147.007 59.2285 146.153 68.4501 142.541C82.6334 136.984 103.002 136.871 116.901 142.266C127.109 146.22 131.805 146.789 137.564 144.722C142.384 143.005 142.384 143.84 137.583 147.064C128.437 153.198 120.781 152.81 109.188 145.594C99.2454 139.421 95.4411 139.744 104.682 145.983C113.571 151.975 114.643 153.208 112.698 155.161C111.389 156.47 110.478 155.958 103.61 149.984C99.4162 146.343 95.109 143.081 94.0465 142.74C91.8644 142.048 81.7795 148.913 77.9657 153.691C76.7513 155.209 75.3662 156.451 74.8824 156.451C74.3985 156.451 73.4972 155.74 72.8806 154.877C71.5998 153.085 75.7077 148.998 83.4777 144.333Z" fill="#E84C6D"/>
<path d="M139.424 120.638C141.928 113.669 147.82 102.859 148.664 103.703C149.252 104.291 145.856 120.998 144.698 123.207C143.996 124.544 143.532 125.748 143.664 125.881C144.452 126.678 161.33 116.352 163.673 113.64C167.838 108.814 167.762 111.251 163.531 117.926C158.322 126.175 151.918 130.48 141.473 132.793C136.976 133.789 132.972 134.614 132.583 134.623C132.194 134.633 132.906 133.353 134.158 131.779C135.42 130.205 137.782 125.198 139.424 120.638Z" fill="#E84C6D"/>
<path d="M18.5664 113.204C17.8833 110.502 17.9212 110.521 21.052 114.124C23.6325 117.101 41.2787 127.996 42.531 127.379C42.7017 127.294 42.1135 126.109 41.2217 124.753C39.7512 122.496 35.6717 105.306 36.4402 104.547C37.2941 103.694 43.6125 114.987 45.5194 120.78C46.7053 124.364 48.9348 129.01 50.4717 131.106C52.0087 133.201 53.0238 135.069 52.7297 135.249C52.4261 135.439 48.2897 134.671 43.5366 133.543C31.2697 130.641 20.7864 122.107 18.5664 113.204Z" fill="#E84C6D"/>
<path d="M148.484 118.172C149.271 116.286 150.343 110.369 150.856 105.021C151.377 99.6733 152.317 93.3773 152.943 91.0258C154.081 86.759 154.081 86.759 155.267 92.4481C155.922 95.5771 156.472 100.631 156.501 103.684C156.538 109.24 156.538 109.24 163.113 102.006C166.728 98.0235 170.228 93.1782 170.893 91.2344C172.619 86.1806 173.217 89.9354 171.737 96.5348C170.2 103.4 164.84 109.971 155.182 116.835C150.969 119.822 147.421 122.288 147.288 122.297C147.156 122.307 147.051 122.155 147.051 121.956C147.051 121.757 147.696 120.059 148.484 118.172Z" fill="#E84C6D"/>
<path d="M35.7192 133.751C41.6866 136.7 59.883 138.122 56.3728 135.363C53.8871 133.41 46.8287 121.662 47.6446 120.846C47.8818 120.609 51.8094 123.824 56.3728 127.996C62.141 133.258 66.1256 136.084 69.4176 137.24C74.1518 138.909 74.1518 138.909 65.7746 140.976C61.1638 142.114 54.9402 143.072 51.9423 143.11C47.4928 143.167 45.3771 142.588 40.4628 139.99C32.2943 135.657 27.8923 129.883 35.7192 133.751Z" fill="#E84C6D"/>
<path d="M13.282 96.7339C12.1246 90.3336 12.6179 88.1623 14.2402 92.5524C14.9897 94.6004 28.0251 110.672 29.1161 110.9C29.211 110.919 29.0403 109.402 28.7367 107.524C27.9872 102.897 30.3874 87.5175 31.5354 89.5751C32.0097 90.4095 33.1577 97.2648 34.0969 104.793C35.0361 112.332 36.279 119.083 36.8767 119.794C37.4649 120.505 37.9487 121.368 37.9487 121.7C37.9487 122.041 37.5218 122.316 37 122.316C36.4782 122.316 32.6169 119.737 28.4141 116.589C18.2438 108.975 14.6482 104.253 13.282 96.7339Z" fill="#E84C6D"/>
<path d="M116.398 136.767C119.795 135.458 123.703 132.594 129.016 127.541C133.257 123.511 136.957 120.448 137.251 120.742C138.124 121.605 131.17 133.524 129.026 134.851C124.159 137.857 144.234 135.923 149.926 132.841C151.738 131.864 153.398 131.229 153.626 131.438C154.499 132.253 148.247 137.847 144.12 139.952C141.729 141.176 137.773 142.399 135.344 142.674C132.441 143.006 127.584 142.399 121.199 140.92C111.474 138.663 111.474 138.663 116.398 136.767Z" fill="#E84C6D"/>
<path d="M13.5857 70.7725C14.5439 65.8989 14.5439 65.8988 15.2364 70.251C15.6159 72.6499 17.2572 77.6279 18.87 81.3164C20.4923 85.0048 21.868 88.807 21.9154 89.7647C21.9723 90.7224 22.3613 90.0112 22.7787 88.1812C23.1962 86.3607 25.179 81.6482 27.1903 77.7133C30.8334 70.5639 30.8334 70.5639 31.118 74.442C31.2698 76.566 30.4918 81.4965 29.3913 85.3841C28.2813 89.2717 26.9816 95.1125 26.4977 98.3742C25.6154 104.3 25.6154 104.3 19.9705 96.2977C13.5098 87.1477 11.7546 80.1122 13.5857 70.7725Z" fill="#E84C6D"/>
<path d="M156.956 89.1106C154.432 80.1123 152.345 69.2176 153.152 69.2176C154.3 69.2176 162.24 85.3747 162.278 87.8021C162.335 91.3009 169.754 71.92 169.934 67.7954C170.039 65.387 170.257 65.6809 171.376 69.6917C173.72 78.1116 171.727 86.01 164.859 95.5203C161.747 99.8251 159.024 103.352 158.815 103.352C158.607 103.352 158.654 102.129 158.929 100.631C159.204 99.1045 158.341 94.0506 156.956 89.1106Z" fill="#E84C6D"/>
<path d="M155.59 68.8763C147.26 56.1801 146.748 52.9847 154.053 59.2902C156.851 61.7081 159.736 64.7897 160.457 66.1361C162.183 69.3884 163.568 53.8097 162.06 47.9309C160.713 42.64 163.179 44.8019 166.026 51.4013C168.758 57.7541 168.843 65.406 166.253 72.6786C165.172 75.7317 164.071 79.1831 163.815 80.3589C163.568 81.5346 163.104 82.4923 162.79 82.4923C162.487 82.4923 162.231 81.7053 162.231 80.7476C162.231 79.7805 159.242 74.4422 155.59 68.8763Z" fill="#E84C6D"/>
<path d="M19.8092 49.7514C22.1146 45.8448 23.0443 45.5225 22.1905 48.917C20.8623 54.2078 22.7218 69.7202 24.382 67.198C26.1466 64.5336 35.4346 55.1371 35.9089 55.5353C36.8387 56.3223 33.281 63.9173 28.8315 70.6399C26.0802 74.8119 23.5377 79.4012 23.1961 80.8329C22.8451 82.2647 22.3992 83.4404 22.1905 83.4404C21.9913 83.4404 20.4733 79.0693 18.8225 73.7215C15.4736 62.8648 15.7202 56.6826 19.8092 49.7514Z" fill="#E84C6D"/>
<path d="M27.0005 41.0091C31.5638 35.2157 36.6205 32.684 32.7971 38.1077C31.431 40.0514 28.0251 52.065 28.6797 52.6623C28.822 52.7856 31.9243 50.2539 35.5769 47.0206C39.2294 43.7968 42.3792 41.2556 42.5689 41.3884C44.2007 42.5072 40.3015 48.2438 32.9015 55.6017C28.1105 60.3711 24.0879 64.3155 23.9551 64.3724C23.8223 64.4293 23.8223 59.9918 23.9551 54.5208C24.1828 45.0958 24.3535 44.3657 27.0005 41.0091Z" fill="#E84C6D"/>
<path d="M151.681 54.5018C145.79 49.7419 141.359 43.7968 141.359 40.6488C141.359 40.023 142.535 40.6393 143.968 42.0237C148.313 46.2242 155.096 51.0315 155.428 50.1591C155.893 48.9265 152.763 38.7524 151.264 36.6001C150.533 35.5665 150.154 34.5141 150.41 34.258C151.396 33.2719 156.738 38.2499 158.692 41.9858C160.523 45.513 160.665 46.7836 160.058 54.2553C159.688 58.835 159.119 61.9451 158.806 61.1771C158.483 60.409 155.277 57.4033 151.681 54.5018Z" fill="#E84C6D"/>
<path d="M134.329 26.6916C135.164 25.6486 145.249 31.5463 147.364 34.3055C149.822 37.5293 152.744 43.5977 152.744 45.4846C152.744 46.0251 152.317 46.4612 151.795 46.4612C151.273 46.4612 148.778 44.2235 146.254 41.4833C140.572 35.3295 133.968 27.1372 134.329 26.6916Z" fill="#E84C6D"/>
<path d="M47.6446 28C50.1966 27.3268 41.9428 38.8094 35.9374 44.2804C34.0494 46.0061 32.2279 47.4094 31.9053 47.4094C31.5733 47.4094 31.5448 46.4517 31.8389 45.276C33.8028 37.444 40.7853 29.8016 47.6446 28Z" fill="#E84C6D"/>
</g>
<defs>
<clipPath id="clip0_36_4">
<rect width="185" height="183" fill="white"/>
</clipPath>
</defs>
</svg>
